<svg width="13" height="16" viewBox="0 0 13 16" fill="none" xmlns="http://www.w3.org/2000/svg">
<path d="M11.05 5.4756V4.55C11.05 3.34327 10.5706 2.18595 9.71734 1.33266C8.86405 0.479374 7.70673 0 6.5 0C5.29326 0 4.13595 0.479374 3.28266 1.33266C2.42937 2.18595 1.95 3.34327 1.95 4.55V5.4756C1.37108 5.72826 0.87834 6.14414 0.532024 6.67239C0.185708 7.20064 0.000830944 7.81835 0 8.45V12.35C0.00103211 13.2116 0.343773 14.0377 0.953043 14.647C1.56231 15.2562 2.38836 15.599 3.25 15.6H9.75C10.6116 15.599 11.4377 15.2562 12.047 14.647C12.6562 14.0377 12.999 13.2116 13 12.35V8.45C12.9992 7.81835 12.8143 7.20064 12.468 6.67239C12.1217 6.14414 11.6289 5.72826 11.05 5.4756ZM3.25 4.55C3.25 3.68805 3.59241 2.8614 4.2019 2.2519C4.8114 1.64241 5.63805 1.3 6.5 1.3C7.36195 1.3 8.1886 1.64241 8.7981 2.2519C9.40759 2.8614 9.75 3.68805 9.75 4.55V5.2H3.25V4.55ZM11.7 12.35C11.7 12.8672 11.4946 13.3632 11.1289 13.7289C10.7632 14.0946 10.2672 14.3 9.75 14.3H3.25C2.73283 14.3 2.23684 14.0946 1.87114 13.7289C1.50545 13.3632 1.3 12.8672 1.3 12.35V8.45C1.3 7.93283 1.50545 7.43684 1.87114 7.07114C2.23684 6.70545 2.73283 6.5 3.25 6.5H9.75C10.2672 6.5 10.7632 6.70545 11.1289 7.07114C11.4946 7.43684 11.7 7.93283 11.7 8.45V12.35Z" fill="#706866"/>
<path d="M6.49961 9.09985C6.32722 9.09985 6.16189 9.16834 6.03999 9.29023C5.91809 9.41213 5.84961 9.57746 5.84961 9.74985V11.0499C5.84961 11.2222 5.91809 11.3876 6.03999 11.5095C6.16189 11.6314 6.32722 11.6999 6.49961 11.6999C6.672 11.6999 6.83733 11.6314 6.95923 11.5095C7.08113 11.3876 7.14961 11.2222 7.14961 11.0499V9.74985C7.14961 9.57746 7.08113 9.41213 6.95923 9.29023C6.83733 9.16834 6.672 9.09985 6.49961 9.09985Z" fill="#706866"/>
</svg>
