<svg width="16" height="15" viewBox="0 0 16 15" fill="none" xmlns="http://www.w3.org/2000/svg">
<path d="M7.75 7.8304C7.00832 7.8304 6.2833 7.61072 5.66661 7.19915C5.04993 6.78757 4.56928 6.20258 4.28545 5.51815C4.00163 4.83373 3.92736 4.0806 4.07206 3.35402C4.21675 2.62743 4.5739 1.96002 5.09835 1.43619C5.6228 0.912349 6.29098 0.555611 7.01841 0.411085C7.74584 0.266558 8.49984 0.340734 9.18506 0.624233C9.87029 0.907732 10.456 1.38782 10.868 2.00379C11.2801 2.61976 11.5 3.34394 11.5 4.08476C11.5 5.07816 11.1049 6.03088 10.4017 6.73333C9.69839 7.43577 8.74456 7.8304 7.75 7.8304ZM7.75 1.83737C7.30499 1.83737 6.86998 1.96918 6.49997 2.21612C6.12996 2.46307 5.84157 2.81406 5.67127 3.22472C5.50098 3.63538 5.45642 4.08725 5.54323 4.5232C5.63005 4.95915 5.84434 5.3596 6.15901 5.6739C6.47368 5.9882 6.87459 6.20225 7.31105 6.28896C7.74751 6.37568 8.19991 6.33117 8.61104 6.16107C9.02217 5.99097 9.37358 5.70292 9.62081 5.33334C9.86804 4.96376 10 4.52925 10 4.08476C10 3.48871 9.76295 2.91708 9.34099 2.49562C8.91903 2.07415 8.34674 1.83737 7.75 1.83737Z" fill="#706866"/>
<path d="M14.75 14.8222C14.5519 14.8196 14.3626 14.7399 14.2225 14.5999C14.0824 14.46 14.0026 14.271 14 14.0731C14 12.1254 12.94 10.8269 7.75 10.8269C2.56 10.8269 1.5 12.1254 1.5 14.0731C1.5 14.2718 1.42098 14.4623 1.28033 14.6028C1.13968 14.7433 0.948912 14.8222 0.75 14.8222C0.551088 14.8222 0.360322 14.7433 0.21967 14.6028C0.0790175 14.4623 0 14.2718 0 14.0731C0 9.32861 5.43 9.32861 7.75 9.32861C10.07 9.32861 15.5 9.32861 15.5 14.0731C15.4974 14.271 15.4176 14.46 15.2775 14.5999C15.1374 14.7399 14.9481 14.8196 14.75 14.8222Z" fill="#706866"/>
</svg>