<svg width="370" height="370" viewBox="0 0 370 370" fill="none" xmlns="http://www.w3.org/2000/svg">
<path d="M269.92 158.587H232.809V104.796H269.92V158.587Z" fill="#F6F4EE"/>
<path d="M268.06 158.587H230.949V104.796H268.06V158.587Z" fill="#F6F4EE"/>
<path d="M263.448 152.762H235.559V110.622H263.448V152.762Z" fill="white"/>
<mask id="mask0_70_1621" style="mask-type:luminance" maskUnits="userSpaceOnUse" x="0" y="0" width="370" height="370">
<path d="M0 3.05176e-05H370V370H0V3.05176e-05Z" fill="white"/>
</mask>
<g mask="url(#mask0_70_1621)">
<path d="M263.448 152.762C263.448 152.762 263.444 152.69 263.442 152.556C263.441 152.417 263.439 152.218 263.436 151.958C263.434 151.429 263.431 150.653 263.426 149.647C263.42 147.627 263.411 144.684 263.401 140.967C263.39 133.536 263.374 123.013 263.355 110.623L263.448 110.715C254.927 110.718 245.486 110.72 235.561 110.723H235.558L235.659 110.623C235.652 126.519 235.644 141.176 235.638 152.762L235.558 152.681C244.051 152.699 251.013 152.714 255.858 152.724C258.282 152.733 260.174 152.74 261.467 152.744C262.109 152.748 262.601 152.751 262.939 152.753C263.272 152.756 263.448 152.762 263.448 152.762C263.448 152.762 263.283 152.768 262.956 152.771C262.622 152.772 262.135 152.776 261.498 152.779C260.21 152.784 258.324 152.792 255.908 152.8C251.052 152.81 244.072 152.824 235.558 152.842L235.478 152.843V152.762C235.472 141.176 235.465 126.519 235.458 110.623L235.457 110.521H235.558H235.561C245.486 110.524 254.927 110.527 263.448 110.53H263.541V110.623C263.522 123.039 263.506 133.582 263.495 141.027C263.485 144.736 263.476 147.672 263.47 149.687C263.465 150.685 263.462 151.455 263.459 151.979C263.456 152.235 263.455 152.43 263.453 152.567C263.452 152.698 263.448 152.762 263.448 152.762Z" fill="#F6F4EE"/>
<path d="M268.164 104.796C268.185 104.813 267.933 105.181 267.502 105.757C267.071 106.334 266.459 107.118 265.761 107.966C265.063 108.814 264.41 109.564 263.927 110.099C263.444 110.631 263.131 110.95 263.111 110.932C263.089 110.913 263.364 110.562 263.819 110.005C264.317 109.402 264.929 108.659 265.606 107.837C266.281 107.016 266.893 106.273 267.391 105.669C267.85 105.116 268.142 104.779 268.164 104.796Z" fill="#F6F4EE"/>
<path d="M263.59 152.625C264.975 154.828 266.611 156.873 268.454 158.709L263.59 152.625Z" fill="white"/>
<path d="M268.455 158.709C268.438 158.728 268.106 158.44 267.607 157.937C267.109 157.435 266.448 156.712 265.773 155.868C265.098 155.023 264.538 154.22 264.157 153.622C263.776 153.025 263.569 152.639 263.591 152.626C263.617 152.609 263.867 152.968 264.276 153.542C264.684 154.117 265.26 154.902 265.931 155.742C266.602 156.581 267.241 157.314 267.712 157.84C268.182 158.365 268.476 158.688 268.455 158.709Z" fill="#F6F4EE"/>
<path d="M230.941 158.545C232.562 156.546 234.183 154.547 235.802 152.548L230.941 158.545Z" fill="white"/>
<path d="M235.804 152.547C235.847 152.582 234.794 153.953 233.451 155.609C232.11 157.265 230.986 158.58 230.943 158.544C230.9 158.509 231.953 157.139 233.294 155.482C234.637 153.827 235.76 152.512 235.804 152.547Z" fill="#F6F4EE"/>
<path d="M230.949 104.796C230.992 104.762 232.048 106.024 233.308 107.617C234.568 109.209 235.553 110.528 235.509 110.562C235.466 110.597 234.41 109.334 233.15 107.742C231.89 106.15 230.904 104.83 230.949 104.796Z" fill="#F6F4EE"/>
<path d="M254.758 145.693H245.42V119.178H254.758V145.693Z" fill="#F6F4EE"/>
<path d="M196.097 255.317C192.693 256.307 189.942 258.986 188.331 262.144C186.719 265.3 186.153 268.9 186.104 272.445C186.01 279.302 188.985 286.615 192.433 292.542C198.757 288.298 201.169 279.798 202.121 275.41C203.627 268.473 202.136 255.023 196.097 255.317Z" fill="#F6F4EE"/>
<path d="M184.396 302.857C185.793 299.153 184.736 294.759 182.136 291.774C179.535 288.788 175.579 287.161 171.624 286.963C169.796 286.87 167.772 287.149 166.545 288.509C165.399 289.779 165.26 291.739 165.855 293.344C166.451 294.948 167.669 296.245 168.992 297.331C173.53 301.053 178.606 303.822 184.396 302.857Z" fill="#F6F4EE"/>
<path d="M189.144 319.35C189.236 319.338 189.218 317.616 188.94 314.821C188.799 313.421 188.431 311.747 187.81 309.995C187.183 308.254 186.531 306.323 185.542 304.39C183.607 300.519 180.84 297.582 178.497 295.997C177.328 295.192 176.286 294.703 175.563 294.396C174.823 294.12 174.404 294.005 174.386 294.052C174.331 294.18 175.976 294.773 178.176 296.437C180.371 298.088 182.972 300.972 184.856 304.739C185.812 306.6 186.484 308.519 187.143 310.232C187.791 311.948 188.193 313.524 188.401 314.895C188.814 317.638 189.025 319.364 189.144 319.35Z" fill="#F6F4EE"/>
<path d="M196.327 265.661C196.274 265.652 196.094 266.448 195.812 267.896C195.531 269.345 195.151 271.443 194.705 274.042C193.814 279.239 192.664 286.433 191.587 294.408C190.513 302.385 189.743 309.634 189.297 314.889C189.073 317.516 188.917 319.645 188.839 321.118C188.758 322.591 188.738 323.407 188.791 323.411C188.845 323.416 188.965 322.607 189.137 321.144C189.318 319.542 189.554 317.456 189.837 314.943C190.422 309.706 191.276 302.479 192.349 294.51C193.469 286.617 194.483 279.477 195.242 274.126C195.593 271.621 195.884 269.541 196.108 267.944C196.298 266.482 196.379 265.67 196.327 265.661Z" fill="#F6F4EE"/>
<path d="M192.656 306.548C196.071 298.93 203.382 293.187 211.591 291.673C213.681 291.288 216.256 291.363 217.404 293.151C218.555 294.943 217.544 297.326 216.28 299.04C211.02 306.168 201.165 309.539 192.641 307.123" fill="#F6F4EE"/>
<path d="M208.695 297.184C208.679 297.134 208.259 297.227 207.515 297.438C206.767 297.639 205.706 298.001 204.406 298.485C201.851 299.507 198.248 301.076 195.07 303.989C193.492 305.444 192.244 307.097 191.354 308.73C190.455 310.365 189.98 311.984 189.658 313.34C189.384 314.71 189.243 315.83 189.244 316.609C189.22 317.386 189.232 317.814 189.285 317.816C189.439 317.829 189.502 316.108 190.185 313.47C190.566 312.167 191.076 310.622 191.974 309.072C192.862 307.524 194.071 305.956 195.591 304.555C198.647 301.748 202.137 300.125 204.614 298.988C207.13 297.89 208.735 297.301 208.695 297.184Z" fill="#F6F4EE"/>
<path d="M337.136 125.624C337.136 125.624 329.38 123.335 326.241 141.174C323.105 159.013 322.851 168.824 322.851 168.824C322.851 168.824 321.764 172.693 318.895 171.261C316.027 169.828 311.149 164.765 307.705 167.001C304.133 169.319 304.183 174.083 306.896 180.275C309.608 186.466 315.055 200.249 315.543 201.496C316.022 202.722 315.87 204.789 313.759 204.126C311.649 203.463 298.198 195.366 294.737 201.98C291.277 208.592 301.669 224.598 302.772 226.37C303.875 228.141 303.75 229.081 302.98 229.838C302.21 230.596 297.945 227.448 294.025 225.301C290.104 223.155 285.183 221.354 283.506 225.336C281.83 229.319 285.015 242.743 304.092 260.286L313.464 267.836L324.808 263.66C348.54 253.245 355.902 241.579 355.607 237.267C355.312 232.957 350.071 233.066 345.667 233.826C341.263 234.586 336.209 236.182 335.726 235.216C335.243 234.25 335.429 233.321 337.046 232.002C338.663 230.683 353.681 218.909 352.551 211.532C351.42 204.154 336.071 207.456 333.859 207.399C331.648 207.342 332.174 205.337 333.024 204.333C333.89 203.309 343.509 192.036 348.082 187.058C352.655 182.08 354.245 177.588 351.617 174.238C349.084 171.007 342.828 174.216 339.65 174.642C336.473 175.068 336.697 171.055 336.697 171.055C336.697 171.055 339.637 161.691 342.45 143.798C345.262 125.905 336.976 125.589 336.976 125.589" fill="#F6F4EE"/>
<path d="M334.299 141.595C334.299 141.595 334.293 141.724 334.261 141.973C334.224 142.239 334.174 142.605 334.108 143.077C333.961 144.064 333.749 145.488 333.479 147.314C332.927 150.993 332.09 156.309 331.031 162.875C328.917 176.009 325.841 194.126 322.379 214.123C318.915 234.126 315.795 252.236 313.608 265.356C312.523 271.903 311.644 277.208 311.034 280.895C310.729 282.715 310.493 284.136 310.328 285.12C310.246 285.587 310.181 285.952 310.135 286.216C310.089 286.463 310.055 286.588 310.055 286.588C310.055 286.588 310.061 286.458 310.093 286.21C310.131 285.944 310.181 285.578 310.247 285.106C310.394 284.119 310.605 282.695 310.877 280.87C311.427 277.192 312.264 271.875 313.323 265.309C315.438 252.176 318.514 234.058 321.977 214.054C325.439 194.056 328.559 175.949 330.746 162.829C331.831 156.281 332.711 150.976 333.322 147.289C333.625 145.468 333.862 144.048 334.026 143.064C334.109 142.596 334.174 142.231 334.22 141.967C334.266 141.72 334.299 141.595 334.299 141.595Z" fill="#F6F4EE"/>
<path d="M314.245 174.358C314.268 174.343 314.458 174.588 314.78 175.046C315.104 175.502 315.552 176.176 316.098 177.014C317.185 178.693 318.625 181.051 320.167 183.682C321.671 186.277 323.031 188.622 324.082 190.435C324.552 191.237 324.951 191.918 325.278 192.475C325.561 192.956 325.708 193.23 325.684 193.244C325.661 193.261 325.47 193.016 325.144 192.561C324.821 192.103 324.373 191.429 323.836 190.585C322.765 188.895 321.355 186.52 319.815 183.889C318.293 181.306 316.916 178.97 315.853 177.166C315.378 176.367 314.976 175.688 314.646 175.131C314.365 174.648 314.222 174.374 314.245 174.358Z" fill="#F6F4EE"/>
<path d="M326.803 193.126C326.742 193.032 331.471 189.844 337.362 186.008C343.256 182.169 348.083 179.136 348.144 179.231C348.206 179.325 343.478 182.511 337.584 186.35C331.693 190.186 326.865 193.22 326.803 193.126Z" fill="#F6F4EE"/>
<path d="M320.102 223.6C320.094 223.572 320.393 223.464 320.937 223.294C321.566 223.102 322.337 222.867 323.247 222.59C325.197 221.993 327.886 221.162 330.82 220.136C333.758 219.117 336.385 218.105 338.281 217.358C339.166 217.012 339.917 216.716 340.529 216.477C341.062 216.272 341.363 216.171 341.374 216.197C341.386 216.223 341.107 216.372 340.592 216.622C340.079 216.872 339.328 217.218 338.392 217.624C336.52 218.441 333.9 219.5 330.954 220.521C328.011 221.549 325.299 222.341 323.326 222.867C322.338 223.126 321.536 223.326 320.978 223.447C320.421 223.572 320.108 223.626 320.102 223.6Z" fill="#F6F4EE"/>
<path d="M305.005 209.124C305.024 209.104 305.255 209.283 305.657 209.625C306.059 209.968 306.631 210.472 307.333 211.102C308.735 212.363 310.653 214.124 312.754 216.088C314.856 218.052 316.743 219.847 318.095 221.161C318.771 221.818 319.313 222.355 319.682 222.733C320.05 223.11 320.245 223.329 320.225 223.35C320.206 223.37 319.975 223.191 319.574 222.848C319.172 222.506 318.599 222.002 317.898 221.372C316.496 220.112 314.578 218.35 312.476 216.386C310.375 214.422 308.488 212.627 307.136 211.313C306.46 210.656 305.917 210.12 305.548 209.741C305.18 209.363 304.986 209.145 305.005 209.124Z" fill="#F6F4EE"/>
<path d="M295.669 235.276C295.688 235.255 295.982 235.488 296.496 235.927C297.065 236.425 297.787 237.057 298.649 237.812C300.454 239.418 302.931 241.656 305.647 244.147C308.365 246.64 310.81 248.912 312.566 250.572C313.393 251.365 314.085 252.03 314.631 252.554C315.112 253.028 315.369 253.3 315.351 253.321C315.331 253.342 315.038 253.109 314.523 252.671C313.955 252.173 313.233 251.541 312.371 250.785C310.565 249.179 308.089 246.941 305.371 244.448C302.655 241.957 300.21 239.685 298.454 238.024C297.627 237.231 296.934 236.567 296.389 236.043C295.907 235.569 295.65 235.296 295.669 235.276Z" fill="#F6F4EE"/>
<path d="M315 252.757C314.991 252.73 315.366 252.585 316.049 252.345C316.806 252.085 317.779 251.749 318.946 251.348C321.392 250.504 324.765 249.328 328.453 247.928C332.144 246.532 335.453 245.183 337.842 244.19C338.982 243.718 339.933 243.325 340.673 243.019C341.343 242.746 341.719 242.607 341.731 242.632C341.743 242.659 341.389 242.846 340.737 243.164C340.087 243.482 339.138 243.926 337.956 244.455C335.594 245.516 332.296 246.911 328.598 248.309C324.903 249.713 321.507 250.847 319.036 251.621C317.799 252.005 316.795 252.306 316.096 252.496C315.398 252.69 315.008 252.784 315 252.757Z" fill="#F6F4EE"/>
<path d="M76.8427 283.675C93.9263 273.929 99.4763 253.442 100.556 234.667C100.737 231.534 101.382 228.271 100.147 225.394C98.9109 222.517 95.6157 220.327 92.6979 221.386C90.2774 222.266 89.0194 224.872 87.5164 226.985C85.5177 229.797 82.7197 232.018 79.5481 233.312C77.4643 234.162 74.9453 234.568 73.0805 233.305C70.5216 231.571 70.5453 227.819 70.8494 224.713C71.4162 218.924 71.9831 213.137 72.5499 207.349C72.8541 204.244 73.1538 201.073 72.4574 198.036C71.7618 194.997 69.877 192.062 66.997 190.964C64.1169 189.865 60.3059 191.234 59.4031 194.218C59.0272 195.46 59.1641 196.798 58.9598 198.079C58.7556 199.361 58.0237 200.734 56.7657 200.98C55.4922 201.231 54.3296 200.237 53.4846 199.241C50.5645 195.811 48.7589 191.57 47.0924 187.364C45.4274 183.159 43.8298 178.863 41.2339 175.174C38.6372 171.486 34.8602 168.405 30.4336 167.745C26.0061 167.086 21.0141 169.399 19.489 173.663C17.9601 177.941 20.1083 182.619 22.5644 186.42C26.2082 192.059 30.663 197.159 35.7438 201.509C36.6599 202.294 37.653 203.143 37.9216 204.327C38.4071 206.461 36.2559 208.338 34.1484 208.832C31.7611 209.391 29.2703 208.92 26.8216 208.983C24.3722 209.046 21.6498 209.875 20.5235 212.081C18.9599 215.14 21.3108 218.712 23.7247 221.132C28.5577 225.977 34.2179 229.974 40.3792 232.893C42.5881 233.94 44.9265 234.894 46.6225 236.669C48.3186 238.444 49.1748 241.338 47.8606 243.424C46.5456 245.513 43.6233 245.952 41.2701 245.288C38.9177 244.625 36.893 243.128 34.69 242.059C30.5675 240.056 25.0264 239.845 21.9532 243.285C19.9337 245.546 19.4653 248.909 20.1098 251.884C20.7536 254.859 22.369 257.518 24.1169 259.995C30.2249 268.651 38.3937 275.919 47.9849 280.261C57.5753 284.603 66.6684 286.373 76.8427 283.675Z" fill="#F6F4EE"/>
<path d="M75.8181 297.573C75.8189 290.096 74.996 281.192 73.0875 271.5C71.1983 261.802 68.2457 251.343 64.7818 240.511C63.9056 237.806 63.0406 235.133 62.1881 232.5C61.3297 229.873 60.4794 227.267 59.4908 224.77C57.5342 219.766 55.2705 215.105 52.9847 210.747C50.6996 206.386 48.3723 202.332 46.1686 198.557C43.9552 194.785 41.827 191.308 39.7513 188.222C35.6191 182.031 31.7016 177.442 28.8844 174.402C27.4791 172.876 26.3491 171.729 25.5736 170.961C25.1999 170.597 24.9069 170.31 24.6856 170.093C24.4829 169.901 24.3763 169.806 24.3696 169.813C24.3615 169.82 24.4547 169.929 24.6442 170.136C24.8543 170.361 25.1348 170.662 25.4915 171.043C26.2389 171.837 27.3415 173.008 28.7208 174.555C31.4833 177.638 35.3379 182.252 39.4153 188.452C41.4636 191.544 43.5667 195.025 45.7579 198.802C47.9431 202.585 50.2511 206.642 52.5185 210.998C54.7859 215.352 57.0288 220.001 58.9676 224.98C59.9481 227.465 60.788 230.048 61.6456 232.683C62.4981 235.315 63.3617 237.987 64.2364 240.69C67.6966 251.514 70.6574 261.943 72.5703 271.605C74.5002 281.262 75.3623 290.127 75.4126 297.576" fill="#F6F4EE"/>
<path d="M59.3284 224.733C59.3661 224.743 59.5149 224.28 59.7532 223.435C59.9951 222.591 60.3045 221.36 60.6648 219.832C61.3878 216.779 62.2418 212.528 63.166 207.838C64.0903 203.144 65.002 198.918 65.7701 195.885C66.149 194.367 66.4679 193.141 66.7003 192.297C66.9275 191.45 67.0355 190.977 66.997 190.963C66.96 190.952 66.7802 191.402 66.4872 192.23C66.1897 193.055 65.8093 194.269 65.3794 195.779C64.5084 198.796 63.5286 203.027 62.6044 207.724C61.7038 212.355 60.8905 216.544 60.2689 219.745C59.9789 221.189 59.7332 222.405 59.5363 223.383C59.3661 224.242 59.2892 224.723 59.3284 224.733Z" fill="#F6F4EE"/>
<path d="M20.0645 213.606C20.06 213.646 20.6217 213.764 21.6407 213.943C22.6567 214.129 24.13 214.388 25.9379 214.767C29.5609 215.498 34.53 216.682 39.9549 218.228C45.3791 219.785 50.2276 221.401 53.7004 222.673C55.4431 223.296 56.838 223.838 57.8052 224.207C58.7709 224.58 59.3126 224.769 59.3296 224.733C59.3452 224.695 58.8323 224.437 57.8911 223.998C56.9483 223.564 55.5712 222.963 53.8433 222.287C50.3971 220.915 45.5516 219.23 40.1118 217.668C34.6706 216.119 29.6675 214.993 26.0141 214.364C24.19 214.035 22.7018 213.836 21.6718 213.719C20.6417 213.609 20.0704 213.566 20.0645 213.606Z" fill="#F6F4EE"/>
<path d="M72.6627 270.719C72.6797 270.73 72.7885 270.571 72.9809 270.257C73.2022 269.884 73.4708 269.427 73.7964 268.875C74.4994 267.671 75.471 265.903 76.6432 263.703C78.9897 259.302 82.04 253.123 85.3137 246.258C88.5897 239.391 91.5786 233.191 93.8297 228.748C94.9308 226.589 95.838 224.814 96.5114 223.494C96.8 222.92 97.0383 222.448 97.2337 222.06C97.392 221.73 97.4682 221.551 97.4512 221.54C97.4335 221.531 97.3247 221.69 97.1315 222.004C96.9118 222.377 96.6424 222.832 96.3168 223.385C95.6138 224.588 94.6422 226.358 93.47 228.558C91.1235 232.958 88.0732 239.138 84.798 246.005C81.5235 252.87 78.5353 259.069 76.2843 263.512C75.1817 265.67 74.2752 267.447 73.6025 268.766C73.3132 269.339 73.0749 269.813 72.8795 270.201C72.7204 270.531 72.6449 270.71 72.6627 270.719Z" fill="#F6F4EE"/>
<path d="M21.1447 248.746C21.1381 248.765 21.3134 248.856 21.6516 249.012C22.0542 249.189 22.5478 249.406 23.1464 249.67C24.528 250.262 26.3928 251.061 28.6624 252.032C33.3192 254.03 39.7202 256.86 46.7879 259.998C53.8586 263.138 60.2915 265.913 64.9912 267.814C67.3407 268.765 69.2499 269.514 70.5789 270.005C71.1939 270.228 71.7015 270.412 72.1137 270.563C72.4667 270.684 72.6561 270.738 72.6635 270.719C72.6694 270.7 72.4948 270.61 72.1566 270.453C71.7548 270.277 71.2612 270.06 70.6618 269.796C69.2802 269.204 67.4154 268.406 65.1466 267.433C60.489 265.437 54.088 262.605 47.0181 259.466C39.9496 256.328 33.5175 253.553 28.8178 251.653C26.4683 250.702 24.5591 249.951 23.2286 249.46C22.6136 249.237 22.1075 249.052 21.6945 248.903C21.3416 248.782 21.1529 248.728 21.1447 248.746Z" fill="#F6F4EE"/>
<path d="M129.38 60.4612V121.537H41.6586L38.498 60.8882L129.38 60.4612Z" fill="#F6F4EE"/>
<path d="M126.219 121.408H38.498V60.888H126.219V121.408Z" fill="white"/>
<path d="M38.9138 120.992H125.803V61.3048H38.9138V120.992ZM126.636 121.824H38.082V60.4723H126.636V121.824Z" fill="#F6F4EE"/>
<path d="M116.717 113.889H47.998V68.4075H116.717V113.889Z" fill="white"/>
<path d="M116.719 68.4077C116.719 68.4077 116.601 68.4151 116.38 68.4196C116.148 68.4225 115.825 68.4255 115.404 68.4307C114.533 68.4366 113.269 68.4447 111.63 68.4551C108.329 68.4677 103.529 68.4854 97.4675 68.5084C85.3493 68.5321 68.1961 68.5661 48 68.6068L48.1983 68.4077C48.2043 82.3035 48.2102 97.7006 48.2161 113.884V113.889L48 113.673C73.923 113.689 97.8227 113.705 116.719 113.716L116.547 113.889C116.585 100.048 116.616 88.7 116.637 80.7976C116.656 76.8474 116.671 73.7616 116.682 71.6467C116.69 70.6011 116.696 69.7989 116.701 69.2417C116.707 68.6971 116.719 68.4077 116.719 68.4077C116.719 68.4077 116.732 68.6719 116.738 69.2055C116.742 69.7553 116.749 70.5471 116.757 71.5779C116.767 73.6839 116.782 76.7572 116.801 80.6903C116.823 88.6186 116.854 100.004 116.892 113.889L116.893 114.062H116.719C97.8227 114.074 73.923 114.089 48 114.106L47.7832 114.106V113.889V113.884C47.7899 97.7006 47.795 82.3035 47.801 68.4077V68.2079L48 68.2087C68.2494 68.2486 85.4477 68.2827 97.5985 68.3064C103.641 68.3293 108.425 68.3471 111.715 68.3604C113.337 68.3707 114.587 68.3781 115.449 68.3841C115.86 68.3892 116.176 68.3929 116.403 68.3959C116.617 68.3996 116.719 68.4077 116.719 68.4077Z" fill="#F6F4EE"/>
<path d="M38.4981 60.7183C38.5351 60.6717 39.1086 61.0476 40.007 61.6951C40.9039 62.3434 42.1256 63.2624 43.4458 64.3184C44.7652 65.3744 45.9255 66.3741 46.7425 67.1215C47.5602 67.8704 48.0375 68.3633 47.999 68.4077C47.9176 68.4994 45.8086 66.7604 43.1742 64.6566C40.5383 62.5557 38.4212 60.8175 38.4981 60.7183Z" fill="#F6F4EE"/>
<path d="M126.22 60.8881C126.294 60.9821 124.227 62.741 121.604 64.8175C118.979 66.8939 116.793 68.5012 116.719 68.4072C116.645 68.3132 118.711 66.5543 121.335 64.4778C123.958 62.4014 126.146 60.7941 126.22 60.8881Z" fill="#F6F4EE"/>
<path d="M126.15 121.417L116.369 113.49L126.15 121.417Z" fill="white"/>
<path d="M116.369 113.489C116.445 113.397 118.696 115.096 121.396 117.284C124.097 119.474 126.225 121.324 126.15 121.416C126.074 121.51 123.825 119.81 121.123 117.621C118.423 115.433 116.294 113.582 116.369 113.489Z" fill="#F6F4EE"/>
<path d="M38.498 121.408C38.424 121.314 40.4694 119.573 43.0653 117.519C45.6627 115.465 47.828 113.877 47.902 113.971C47.9767 114.064 45.9313 115.806 43.3347 117.86C40.738 119.913 38.5728 121.502 38.498 121.408Z" fill="#F6F4EE"/>
<path d="M105.191 97.8066H61.9512V82.5775H105.191V97.8066Z" fill="#F6F4EE"/>
<path d="M331.939 114.249H285.037V46.266H331.939V114.249Z" fill="#F6F4EE"/>
<path d="M329.588 114.249H282.686V46.266H329.588V114.249Z" fill="#F6F4EE"/>
<path d="M323.761 106.886H288.514V53.6287H323.761V106.886Z" fill="white"/>
<path d="M323.762 106.886C323.762 106.886 323.758 106.796 323.756 106.626C323.754 106.45 323.752 106.199 323.748 105.87C323.746 105.201 323.741 104.221 323.735 102.949C323.728 100.396 323.717 96.6771 323.703 91.9781C323.689 82.5875 323.669 69.289 323.646 53.6291L323.762 53.746C312.994 53.749 301.061 53.7527 288.519 53.7564H288.515L288.642 53.6291C288.632 73.7201 288.624 92.2438 288.617 106.886L288.515 106.784C299.249 106.807 308.049 106.825 314.171 106.838C317.233 106.849 319.625 106.857 321.259 106.864C322.071 106.869 322.693 106.872 323.119 106.875C323.54 106.879 323.762 106.886 323.762 106.886C323.762 106.886 323.555 106.894 323.141 106.897C322.719 106.899 322.103 106.903 321.3 106.908C319.671 106.914 317.287 106.923 314.234 106.934C308.096 106.947 299.276 106.965 288.515 106.988L288.413 106.988V106.886C288.406 92.2438 288.397 73.7201 288.387 53.6291V53.5011H288.515H288.519C301.061 53.5048 312.994 53.5085 323.762 53.5122H323.88L323.879 53.6291C323.856 69.3208 323.836 82.6452 323.822 92.0551C323.808 96.7422 323.798 100.453 323.791 103C323.785 104.261 323.779 105.234 323.777 105.898C323.774 106.22 323.771 106.467 323.77 106.64C323.768 106.806 323.762 106.886 323.762 106.886Z" fill="#F6F4EE"/>
<path d="M329.72 46.2661C329.748 46.2876 329.43 46.7523 328.885 47.4812C328.34 48.2093 327.566 49.2002 326.683 50.2725C325.801 51.344 324.976 52.2934 324.366 52.9675C323.755 53.6417 323.359 54.0435 323.333 54.0206C323.307 53.9969 323.654 53.5536 324.229 52.8499C324.858 52.0869 325.632 51.1486 326.487 50.1097C327.342 49.0714 328.115 48.1324 328.744 47.3694C329.324 46.6694 329.692 46.2446 329.72 46.2661Z" fill="#F6F4EE"/>
<path d="M323.941 106.715C325.692 109.499 327.758 112.083 330.089 114.403L323.941 106.715Z" fill="white"/>
<path d="M330.089 114.403C330.066 114.427 329.648 114.064 329.018 113.428C328.387 112.793 327.552 111.879 326.699 110.813C325.846 109.745 325.138 108.729 324.657 107.974C324.176 107.22 323.913 106.732 323.942 106.715C323.973 106.695 324.289 107.148 324.807 107.873C325.324 108.599 326.05 109.592 326.899 110.654C327.747 111.713 328.555 112.641 329.149 113.304C329.743 113.969 330.116 114.377 330.089 114.403Z" fill="#F6F4EE"/>
<path d="M282.68 114.195C284.728 111.669 286.775 109.142 288.823 106.615L282.68 114.195Z" fill="white"/>
<path d="M288.823 106.616C288.878 106.66 287.546 108.392 285.85 110.485C284.153 112.579 282.734 114.24 282.679 114.195C282.625 114.151 283.956 112.419 285.653 110.325C287.349 108.232 288.768 106.571 288.823 106.616Z" fill="#F6F4EE"/>
<path d="M282.687 46.2656C282.743 46.2219 284.078 47.8181 285.669 49.8301C287.261 51.8429 288.507 53.5102 288.451 53.5538C288.396 53.5975 287.061 52.0013 285.47 49.9885C283.877 47.9764 282.633 46.3092 282.687 46.2656Z" fill="#F6F4EE"/>
<path d="M312.781 97.9531H300.979V64.443H312.781V97.9531Z" fill="#F6F4EE"/>
</g>
<mask id="mask1_70_1621" style="mask-type:luminance" maskUnits="userSpaceOnUse" x="0" y="0" width="370" height="370">
<path d="M0 3.05176e-05H370V370H0V3.05176e-05Z" fill="white"/>
</mask>
<g mask="url(#mask1_70_1621)">
<path d="M324.426 101.537C316.901 86.1682 305.18 72.3295 289.658 65.1293C262.992 52.7602 229.986 62.7243 208.41 82.6858C196.95 93.2885 187.721 106.593 174.311 114.586C151.593 128.129 122.128 123.529 97.8502 134.022C75.8766 143.519 60.2404 165.425 56.6115 189.087C52.9832 212.75 60.8102 237.548 75.958 256.084C91.1058 274.62 113.108 287.014 136.46 292.278L164.165 293.086C190.83 293.862 217.44 289.225 242.042 278.912C266.385 268.706 288.377 253.461 305.092 233.098C334.807 196.897 345.021 143.6 324.426 101.537Z" fill="#F6F4EE"/>
</g>
<mask id="mask2_70_1621" style="mask-type:luminance" maskUnits="userSpaceOnUse" x="0" y="0" width="370" height="370">
<path d="M0 3.05176e-05H370V370H0V3.05176e-05Z" fill="white"/>
</mask>
<g mask="url(#mask2_70_1621)">
<path d="M341.825 323.411C341.825 323.518 269.741 323.604 180.841 323.604C91.9104 323.604 19.8418 323.518 19.8418 323.411C19.8418 323.305 91.9104 323.218 180.841 323.218C269.741 323.218 341.825 323.305 341.825 323.411Z" fill="#1A2E35"/>
</g>
<mask id="mask3_70_1621" style="mask-type:luminance" maskUnits="userSpaceOnUse" x="0" y="0" width="370" height="370">
<path d="M0 3.05176e-05H370V370H0V3.05176e-05Z" fill="white"/>
</mask>
<g mask="url(#mask3_70_1621)">
<path d="M251.38 195.362C252.531 199.8 250.997 204.826 247.565 207.865C245.31 209.861 242.369 211.017 240.312 213.216C237.666 216.047 236.904 220.381 238.062 224.079C239.219 227.777 242.133 230.8 245.629 232.47C250.396 234.751 256.269 234.551 260.869 231.951C266.593 228.717 269.925 222.233 270.768 215.713C271.612 209.193 270.286 202.592 268.565 196.247" fill="#1A2E35"/>
<path d="M323.521 310.316C329.444 309.347 334.994 311.155 340.854 312.453C342.433 312.803 344.085 313.108 345.653 312.709C348.193 312.061 349.999 309.59 350.392 306.998C350.732 304.753 350.147 302.404 348.895 300.511C348.364 299.709 347.704 298.973 346.868 298.497C346.011 298.01 345.017 297.823 344.036 297.728C340.468 297.383 336.842 298.177 333.597 299.697C330.351 301.216 327.471 303.441 324.938 305.975C323.698 307.216 324.07 308.651 323.521 310.316Z" fill="#1A2E35"/>
<path d="M203.468 214.772C202.524 209.154 202.642 203.358 203.812 197.783C204.382 195.069 205.218 192.367 206.738 190.048C207.29 189.203 207.973 188.383 208.91 188.01C210.205 187.493 211.745 187.97 212.766 188.918C214.1 190.156 214.651 192.069 214.594 193.887C214.538 195.706 213.94 197.463 213.277 199.158C210.985 205.005 207.379 209.857 203.468 214.772Z" fill="#1A2E35"/>
<path d="M318.187 236.161C319.536 237.116 349.308 301.197 349.308 301.197C346.918 300.17 344.269 299.909 341.726 300.448L340.112 300.879C337.223 301.651 334.483 302.9 332.005 304.576L323.521 310.315C322.837 309.928 322.386 309.229 322.312 308.446L322.289 308.201L299.225 268.613L318.187 236.161Z" fill="#7B1FA2"/>
<path d="M206.526 134.176L214.455 179.266C217.011 185.331 246.785 222.097 246.785 222.097L236.938 253.727L197.839 200.262C194.208 196.378 192.233 191.233 192.332 185.917L193.86 137.743L206.526 134.176Z" fill="#FFBF9D"/>
<path d="M248.74 215.031L269.158 216.574L286.963 219.337C286.963 219.337 318.188 227.543 318.188 230.962C318.188 232.1 309.658 259.252 304.904 275.518C302.853 282.539 302.031 287.533 302.031 287.533L318.188 323.411H241.365V290.513C241.365 290.513 236.208 247.352 237.097 241.458C237.985 235.563 248.74 215.031 248.74 215.031Z" fill="#7B1FA2"/>
<path d="M196.865 115.959C196.983 111.367 197.452 106.785 198.268 102.265C198.383 101.623 198.643 100.845 199.289 100.759C200.088 100.654 200.495 101.681 200.599 102.48C201.307 107.918 201.079 113.478 199.928 118.84" fill="#FF9A6C"/>
<path d="M205.944 211.433C214.704 203.601 215.002 190.037 214.254 179.245C214.198 178.449 214.138 177.58 214.595 176.926C215.43 175.732 217.465 176.174 218.281 177.381C219.096 178.589 219.05 180.159 218.974 181.614C219.423 180.381 221.349 180.388 222.252 181.34C223.155 182.293 223.308 183.711 223.413 185.019C223.51 186.224 223.607 187.429 223.705 188.635L249.296 213.025C249.296 213.025 249.999 210.835 251.879 212.087C253.759 213.337 254.973 216.063 254.973 216.063L236.938 255.428L203.467 214.706C203.467 214.706 204.518 212.708 205.944 211.433Z" fill="#7B1FA2"/>
<path d="M240.674 238.67C238.082 242.126 235.922 245.962 234.8 250.132C233.679 254.304 233.645 258.837 235.182 262.873C237.347 268.563 242.721 272.904 248.739 273.823" fill="#7B1FA2"/>
<path d="M323.52 310.316L322.549 323.411H341.518L345.966 300.283C340.188 299.961 334.489 301.747 329.93 305.309L323.52 310.316Z" fill="#FFBF9D"/>
<path d="M214.858 208.536C214.835 208.523 214.984 208.154 215.274 207.498C215.571 206.844 215.969 205.884 216.421 204.685C216.879 203.488 217.352 202.036 217.802 200.405C218.234 198.767 218.633 196.947 218.921 195.015C219.196 193.08 219.334 191.223 219.387 189.53C219.422 187.837 219.384 186.311 219.285 185.033C219.194 183.755 219.088 182.721 218.99 182.01C218.9 181.298 218.861 180.901 218.888 180.896C218.914 180.892 219.002 181.279 219.138 181.988C219.282 182.694 219.431 183.727 219.558 185.01C219.691 186.293 219.757 187.831 219.743 189.537C219.708 191.243 219.58 193.119 219.303 195.072C219.011 197.02 218.598 198.854 218.144 200.499C217.672 202.138 217.169 203.592 216.674 204.784C216.187 205.978 215.749 206.926 215.409 207.562C215.077 208.201 214.881 208.548 214.858 208.536Z" fill="#1A2E35"/>
<path d="M220.433 201.668C220.38 201.639 220.735 200.945 221.223 199.79C221.712 198.637 222.304 197.008 222.736 195.149C223.163 193.288 223.347 191.564 223.412 190.313C223.48 189.062 223.465 188.283 223.526 188.279C223.571 188.276 223.684 189.053 223.685 190.321C223.688 191.587 223.546 193.346 223.111 195.236C222.672 197.124 222.03 198.766 221.471 199.903C220.913 201.042 220.472 201.691 220.433 201.668Z" fill="#1A2E35"/>
<path d="M250.491 222.13C250.433 222.096 250.741 221.615 250.92 220.745C251.11 219.88 251.098 218.627 250.728 217.318C250.355 216.006 249.801 214.878 249.442 214.044C249.074 213.212 248.882 212.679 248.932 212.657C248.98 212.636 249.256 213.124 249.687 213.925C250.107 214.728 250.711 215.851 251.099 217.213C251.487 218.579 251.456 219.914 251.185 220.809C250.924 221.714 250.52 222.156 250.491 222.13Z" fill="#1A2E35"/>
<path d="M246.04 274.257C246.032 274.268 245.923 274.205 245.719 274.077C245.481 273.92 245.192 273.729 244.842 273.499C244.088 272.985 243.001 272.235 241.715 271.224C240.436 270.212 238.947 268.931 237.562 267.251C236.186 265.579 234.949 263.449 234.348 260.997C233.728 258.554 233.68 256.123 233.924 253.969C234.166 251.809 234.677 249.914 235.189 248.363C235.708 246.811 236.227 245.593 236.6 244.761C236.79 244.345 236.941 244.025 237.052 243.811C237.16 243.597 237.223 243.487 237.235 243.493C237.261 243.504 237.072 243.972 236.739 244.819C236.408 245.667 235.93 246.894 235.449 248.446C234.973 249.996 234.495 251.878 234.277 254.007C234.057 256.13 234.116 258.515 234.721 260.902C235.308 263.296 236.5 265.369 237.838 267.027C239.182 268.69 240.636 269.979 241.887 271.012C243.142 272.044 244.204 272.826 244.93 273.377C245.262 273.631 245.537 273.841 245.764 274.014C245.952 274.163 246.048 274.245 246.04 274.257Z" fill="#1A2E35"/>
<path d="M287.962 281.577C287.966 281.591 287.853 281.631 287.636 281.695C287.417 281.753 287.098 281.863 286.675 281.945C285.834 282.141 284.593 282.334 283.047 282.38C279.98 282.493 275.565 281.785 271.532 279.238C267.501 276.685 264.969 272.997 263.757 270.178C263.136 268.761 262.779 267.557 262.596 266.715C262.489 266.297 262.451 265.962 262.41 265.739C262.375 265.515 262.363 265.397 262.376 265.394C262.409 265.388 262.512 265.852 262.741 266.677C262.968 267.502 263.361 268.681 264.004 270.065C265.265 272.82 267.787 276.409 271.737 278.912C275.691 281.408 280.014 282.149 283.044 282.108C284.57 282.097 285.803 281.947 286.646 281.798C287.489 281.651 287.954 281.546 287.962 281.577Z" fill="#1A2E35"/>
<path d="M299.736 295.96C299.633 295.932 300.613 291.842 301.923 286.825C303.234 281.805 304.379 277.759 304.482 277.785C304.585 277.813 303.606 281.902 302.296 286.921C300.985 291.939 299.84 295.986 299.736 295.96Z" fill="#1A2E35"/>
<path d="M310.093 287.273C310.001 287.327 307.026 282.464 303.449 276.412C299.871 270.358 297.046 265.408 297.137 265.354C297.229 265.3 300.203 270.162 303.781 276.217C307.359 282.268 310.184 287.219 310.093 287.273Z" fill="#1A2E35"/>
<path d="M338.466 299.256C338.473 299.328 337.389 299.419 335.701 299.846C334.855 300.053 333.87 300.377 332.805 300.805C331.747 301.252 330.615 301.816 329.491 302.518C328.374 303.232 327.38 304.014 326.522 304.778C325.677 305.555 324.962 306.306 324.413 306.981C323.304 308.324 322.756 309.263 322.694 309.226C322.671 309.212 322.793 308.97 323.035 308.541C323.27 308.108 323.665 307.513 324.2 306.811C324.73 306.106 325.436 305.322 326.281 304.516C327.14 303.725 328.148 302.919 329.285 302.192C330.43 301.477 331.589 300.913 332.672 300.476C333.763 300.058 334.773 299.757 335.638 299.58C336.501 299.398 337.209 299.297 337.701 299.271C338.192 299.236 338.464 299.229 338.466 299.256Z" fill="#1A2E35"/>
<path d="M342.09 294.8C342.084 294.878 340.899 294.736 339.001 294.898C338.053 294.97 336.933 295.164 335.717 295.474C334.507 295.809 333.204 296.276 331.904 296.917C330.611 297.575 329.458 298.339 328.465 299.108C327.489 299.898 326.663 300.678 326.037 301.395C324.773 302.818 324.176 303.852 324.11 303.81C324.088 303.796 324.227 303.535 324.5 303.07C324.634 302.835 324.807 302.554 325.038 302.249C325.266 301.941 325.507 301.574 325.831 301.217C326.441 300.466 327.26 299.651 328.243 298.832C329.242 298.033 330.414 297.244 331.732 296.573C333.057 295.919 334.391 295.453 335.629 295.13C336.873 294.833 338.016 294.665 338.982 294.627C339.463 294.58 339.901 294.607 340.284 294.609C340.667 294.606 340.996 294.636 341.264 294.67C341.799 294.728 342.093 294.773 342.09 294.8Z" fill="#1A2E35"/>
<mask id="mask4_70_1621" style="mask-type:luminance" maskUnits="userSpaceOnUse" x="262" y="266" width="23" height="22">
<path d="M262.377 266.97H284.39V287.103H262.377V266.97Z" fill="white"/>
</mask>
<g mask="url(#mask4_70_1621)">
<g opacity="0.300003">
<path d="M263.169 266.97C261.425 270.271 262.879 274.298 264.472 277.677C265.707 280.294 267.082 282.957 269.329 284.782C271.537 286.577 274.505 287.401 277.323 287.004C280.14 286.606 282.764 284.992 284.39 282.656C274.988 282.696 265.902 276.268 262.81 267.388" fill="black"/>
</g>
</g>
<mask id="mask5_70_1621" style="mask-type:luminance" maskUnits="userSpaceOnUse" x="296" y="265" width="9" height="24">
<path d="M296.514 265.354H304.617V288.837H296.514V265.354Z" fill="white"/>
</mask>
<g mask="url(#mask5_70_1621)">
<g opacity="0.300003">
<path d="M297.136 265.354C295.81 268.531 296.81 272.876 298.205 276.024C299.6 279.171 301.072 282.688 299.955 285.944C299.745 286.553 299.443 287.168 299.521 287.807C299.599 288.447 300.29 289.056 300.862 288.76C301.193 288.588 301.339 288.2 301.458 287.846C302.511 284.68 303.564 281.515 304.617 278.349" fill="black"/>
</g>
</g>
<path d="M227.138 223.553C227.033 223.536 227.372 220.899 227.895 217.664C228.418 214.428 228.928 211.818 229.033 211.835C229.138 211.853 228.799 214.489 228.276 217.725C227.752 220.96 227.243 223.57 227.138 223.553Z" fill="#FAFAFA"/>
<path d="M219.341 221.915C219.247 221.978 217.971 220.199 216.214 218.16C214.464 216.113 212.898 214.584 212.975 214.501C213.04 214.426 214.738 215.841 216.507 217.908C218.281 219.969 219.424 221.862 219.341 221.915Z" fill="#FAFAFA"/>
<path d="M226.029 202.857C226.071 202.888 225.757 203.399 225.194 204.188C224.631 204.976 223.815 206.037 222.858 207.163C221.9 208.29 220.986 209.268 220.298 209.951C219.611 210.634 219.157 211.026 219.12 210.99C219.041 210.912 220.661 209.159 222.564 206.914C224.471 204.675 225.939 202.791 226.029 202.857Z" fill="#FAFAFA"/>
<path d="M223.416 193.544C223.31 193.586 222.89 192.644 222.07 191.707C221.261 190.76 220.389 190.209 220.446 190.109C220.484 190.018 221.497 190.447 222.362 191.455C223.234 192.454 223.512 193.519 223.416 193.544Z" fill="#FAFAFA"/>
<path d="M216.671 199.28C216.687 199.385 215.827 199.609 214.748 199.78C213.668 199.95 212.78 200.004 212.764 199.899C212.747 199.794 213.608 199.57 214.687 199.399C215.766 199.228 216.655 199.174 216.671 199.28Z" fill="#FAFAFA"/>
<path d="M233.696 207.503C233.578 207.488 233.868 205.924 233.451 204.061C233.059 202.191 232.147 200.889 232.248 200.825C232.311 200.753 233.411 202.014 233.828 203.979C234.263 205.939 233.783 207.542 233.696 207.503Z" fill="#FAFAFA"/>
<path d="M242.794 217.286C242.687 217.342 241.913 215.775 240.413 214.28C238.929 212.769 237.368 211.981 237.425 211.876C237.451 211.785 239.144 212.441 240.687 214.007C242.241 215.561 242.884 217.26 242.794 217.286Z" fill="#FAFAFA"/>
<path d="M228.193 234.264C228.229 234.352 226.723 234.899 224.777 234.825C222.831 234.765 221.365 234.116 221.407 234.031C221.443 233.918 222.915 234.384 224.79 234.44C226.665 234.513 228.165 234.15 228.193 234.264Z" fill="#FAFAFA"/>
<path d="M235.048 237.774C234.941 237.734 235.519 236.028 236 233.868C236.49 231.71 236.697 229.922 236.81 229.93C236.91 229.935 236.872 231.762 236.376 233.952C235.888 236.144 235.14 237.812 235.048 237.774Z" fill="#FAFAFA"/>
<path d="M250.012 238.349C249.934 238.421 248.487 236.96 246.782 235.088C245.076 233.215 243.757 231.639 243.835 231.567C243.915 231.495 245.36 232.955 247.067 234.828C248.772 236.7 250.091 238.277 250.012 238.349Z" fill="#FAFAFA"/>
<path d="M256.99 255.641C256.913 255.715 255.833 254.72 254.577 253.42C253.322 252.12 252.366 251.005 252.442 250.932C252.519 250.858 253.598 251.852 254.854 253.153C256.111 254.453 257.067 255.567 256.99 255.641Z" fill="#FAFAFA"/>
<path d="M244.028 257.289C244.094 257.364 242.859 258.507 241.072 259.539C239.288 260.58 237.684 261.086 237.651 260.992C237.61 260.886 239.126 260.229 240.878 259.206C242.634 258.192 243.957 257.201 244.028 257.289Z" fill="#FAFAFA"/>
<path d="M249.994 273.745C249.883 273.717 250.326 271.773 250.547 269.336C250.779 266.899 250.702 264.907 250.817 264.9C250.914 264.888 251.166 266.897 250.931 269.371C250.705 271.846 250.088 273.774 249.994 273.745Z" fill="#FAFAFA"/>
<path d="M272.421 260.365C272.365 260.445 270.778 259.338 269.221 257.549C267.654 255.766 266.768 254.046 266.856 254.001C266.953 253.941 267.971 255.545 269.51 257.296C271.039 259.053 272.494 260.276 272.421 260.365Z" fill="#FAFAFA"/>
<path d="M280.616 267.349C280.528 267.279 281.649 265.741 282.905 263.766C284.167 261.794 285.089 260.13 285.189 260.179C285.28 260.224 284.504 261.981 283.23 263.973C281.961 265.968 280.694 267.413 280.616 267.349Z" fill="#FAFAFA"/>
<path d="M279.414 250.266C279.387 250.369 277.702 250.005 275.653 249.455C273.603 248.905 271.964 248.376 271.993 248.273C272.02 248.17 273.703 248.533 275.753 249.083C277.802 249.634 279.441 250.162 279.414 250.266Z" fill="#FAFAFA"/>
<path d="M273.441 280.326C273.335 280.319 273.341 278.749 273.455 276.819C273.568 274.886 273.746 273.326 273.853 273.332C273.959 273.339 273.953 274.909 273.84 276.841C273.726 278.771 273.548 280.332 273.441 280.326Z" fill="#FAFAFA"/>
<path d="M278.608 290.622C278.5 290.572 279.276 289.037 279.543 286.974C279.831 284.913 279.486 283.228 279.605 283.208C279.692 283.172 280.223 284.881 279.924 287.026C279.645 289.171 278.683 290.681 278.608 290.622Z" fill="#FAFAFA"/>
<path d="M265.22 288.348C265.125 288.362 264.893 286.623 265.303 284.523C265.701 282.418 266.56 280.889 266.643 280.938C266.749 280.986 266.068 282.549 265.682 284.595C265.282 286.637 265.337 288.342 265.22 288.348Z" fill="#FAFAFA"/>
<path d="M253.013 293.564C252.937 293.645 251.44 292.368 249.539 290.866C247.638 289.359 246.052 288.195 246.113 288.104C246.169 288.018 247.864 289.047 249.778 290.563C251.693 292.076 253.083 293.49 253.013 293.564Z" fill="#FAFAFA"/>
<path d="M261.283 279.047C261.332 279.141 259.389 280.269 256.943 281.568C254.496 282.867 252.473 283.843 252.423 283.749C252.373 283.655 254.316 282.526 256.763 281.227C259.209 279.929 261.233 278.953 261.283 279.047Z" fill="#FAFAFA"/>
<path d="M286.963 311.625C286.966 311.639 286.8 311.68 286.484 311.747C286.166 311.806 285.701 311.926 285.091 312.006C283.876 312.203 282.095 312.376 279.889 312.339C277.686 312.305 275.057 312.004 272.233 311.257C269.411 310.514 266.41 309.285 263.54 307.511C260.685 305.711 258.263 303.553 256.357 301.342C254.447 299.133 253.022 296.903 252.025 294.937C251.024 292.972 250.397 291.295 250.041 290.118C249.845 289.534 249.749 289.064 249.662 288.753C249.584 288.438 249.548 288.272 249.561 288.269C249.575 288.266 249.635 288.425 249.737 288.732C249.847 289.036 249.966 289.498 250.184 290.07C250.581 291.229 251.243 292.878 252.266 294.81C253.286 296.745 254.72 298.936 256.625 301.109C258.524 303.282 260.925 305.406 263.744 307.184C266.578 308.936 269.539 310.161 272.326 310.913C275.114 311.671 277.712 311.999 279.897 312.066C282.082 312.137 283.856 312.009 285.07 311.856C285.682 311.801 286.148 311.705 286.47 311.671C286.791 311.628 286.96 311.612 286.963 311.625Z" fill="#1A2E35"/>
<path d="M264.856 307.796C264.765 307.827 264.489 306.173 265.202 304.298C265.896 302.416 267.191 301.352 267.24 301.433C267.33 301.513 266.219 302.646 265.563 304.434C264.882 306.211 264.976 307.796 264.856 307.796Z" fill="#FAFAFA"/>
<path d="M258.761 305.252C258.816 305.355 257.705 305.897 256.836 307.082C255.946 308.251 255.74 309.47 255.626 309.446C255.528 309.458 255.571 308.117 256.527 306.851C257.471 305.574 258.745 305.154 258.761 305.252Z" fill="#FAFAFA"/>
<path d="M282.182 319.19C282.186 319.286 280.498 319.153 278.775 318.066C277.041 316.997 276.179 315.54 276.266 315.502C276.359 315.427 277.322 316.722 278.979 317.74C280.622 318.778 282.209 319.074 282.182 319.19Z" fill="#FAFAFA"/>
<path d="M285.825 298.691C285.922 298.689 285.708 300.233 284.499 301.641C283.305 303.062 281.816 303.523 281.802 303.427C281.748 303.321 283.086 302.731 284.206 301.392C285.345 300.071 285.712 298.655 285.825 298.691Z" fill="#FAFAFA"/>
<path d="M296.178 313.977C296.089 313.903 297.066 312.667 297.965 310.963C298.876 309.264 299.353 307.762 299.463 307.795C299.559 307.814 299.239 309.399 298.306 311.144C297.382 312.892 296.248 314.045 296.178 313.977Z" fill="#FAFAFA"/>
<path d="M309.86 315.995C309.904 316.104 308.555 316.637 307.2 317.754C305.834 318.856 305.039 320.068 304.941 320.003C304.853 319.965 305.53 318.608 306.957 317.456C308.375 316.29 309.841 315.901 309.86 315.995Z" fill="#FAFAFA"/>
<path d="M299.425 298.466C299.311 298.503 298.666 296.339 297.304 293.941C295.958 291.533 294.443 289.86 294.533 289.781C294.569 289.748 294.993 290.124 295.593 290.817C296.193 291.509 296.951 292.531 297.64 293.752C298.326 294.973 298.807 296.151 299.089 297.023C299.371 297.894 299.471 298.452 299.425 298.466Z" fill="#FAFAFA"/>
<path d="M301.472 276.431C301.495 276.535 299.924 276.986 297.963 277.438C295.999 277.891 294.39 278.174 294.365 278.07C294.342 277.967 295.913 277.516 297.876 277.063C299.837 276.61 301.447 276.327 301.472 276.431Z" fill="#FAFAFA"/>
<path d="M295.174 269.846C295.089 269.911 294.076 268.747 292.908 267.245C291.741 265.743 290.863 264.474 290.947 264.408C291.031 264.343 292.045 265.507 293.213 267.009C294.38 268.51 295.257 269.78 295.174 269.846Z" fill="#FAFAFA"/>
<path d="M310.77 265.894C310.759 265.995 309.151 265.894 307.222 265.436C305.293 264.981 303.811 264.349 303.846 264.254C303.883 264.15 305.406 264.613 307.311 265.06C309.214 265.514 310.783 265.783 310.77 265.894Z" fill="#FAFAFA"/>
<path d="M321.862 265.701C321.763 265.649 322.376 264.313 322.994 262.616C323.62 260.921 324.016 259.506 324.125 259.53C324.224 259.55 323.991 261.026 323.357 262.748C322.727 264.472 321.951 265.749 321.862 265.701Z" fill="#FAFAFA"/>
<path d="M319.368 280.734C319.344 280.829 317.806 280.442 316.142 279.446C314.472 278.459 313.399 277.293 313.47 277.226C313.549 277.141 314.713 278.155 316.338 279.115C317.958 280.086 319.406 280.626 319.368 280.734Z" fill="#FAFAFA"/>
<path d="M326.58 280.276C326.476 280.252 326.841 278.285 327.394 275.882C327.946 273.477 328.478 271.549 328.581 271.572C328.686 271.597 328.322 273.564 327.768 275.968C327.216 278.371 326.684 280.3 326.58 280.276Z" fill="#FAFAFA"/>
<path d="M320.556 297.086C320.47 297.149 319.298 295.691 317.939 293.831C316.58 291.969 315.547 290.41 315.634 290.347C315.72 290.285 316.891 291.742 318.251 293.603C319.609 295.464 320.642 297.023 320.556 297.086Z" fill="#FAFAFA"/>
<path d="M330.835 290.66C330.732 290.707 330.055 289.371 328.991 287.877C327.934 286.377 326.898 285.296 326.977 285.214C327.041 285.14 328.223 286.118 329.306 287.654C330.395 289.185 330.927 290.624 330.835 290.66Z" fill="#FAFAFA"/>
<path d="M340.467 289.213C340.372 289.271 339.404 287.819 338.099 286.116C336.797 284.41 335.649 283.095 335.731 283.019C335.802 282.947 337.089 284.156 338.404 285.882C339.725 287.604 340.555 289.162 340.467 289.213Z" fill="#FAFAFA"/>
<path d="M338.203 295.598C338.088 295.603 338.162 294.317 337.321 293.073C336.509 291.81 335.297 291.374 335.347 291.269C335.359 291.226 335.684 291.266 336.15 291.5C336.615 291.731 337.199 292.191 337.643 292.861C338.083 293.532 338.277 294.251 338.306 294.769C338.34 295.29 338.248 295.603 338.203 295.598Z" fill="#FAFAFA"/>
<path d="M330.689 304.352C330.633 304.336 330.65 304.153 330.592 303.892C330.538 303.632 330.386 303.282 330.084 303.044C329.779 302.809 329.403 302.747 329.138 302.758C328.87 302.764 328.698 302.826 328.669 302.775C328.642 302.736 328.78 302.577 329.096 302.488C329.402 302.399 329.904 302.419 330.321 302.741C330.735 303.067 330.875 303.549 330.863 303.868C330.855 304.195 330.733 304.367 330.689 304.352Z" fill="#FAFAFA"/>
<path d="M253.701 318.346C253.68 318.436 251.756 317.71 250.006 315.944C248.239 314.193 247.513 312.269 247.603 312.248C247.71 312.189 248.569 313.981 250.278 315.671C251.968 317.38 253.76 318.239 253.701 318.346Z" fill="#FAFAFA"/>
<path d="M206.598 134.678C205.411 123.426 203.257 112.838 202.673 101.799C202.644 101.245 202.58 100.623 202.148 100.276C201.559 99.8043 200.616 100.183 200.231 100.831C199.845 101.48 199.854 102.28 199.857 103.034C199.88 108.888 198.883 114.744 196.924 120.26C195.651 123.843 193.975 127.289 193.016 130.968C192.054 134.647 193.848 135.895 195.504 139.317" fill="#FFBF9D"/>
<path d="M168.81 90.105C168.741 90.1864 164.579 86.8002 159.515 82.5429C154.449 78.2842 150.399 74.767 150.468 74.6856C150.536 74.6042 154.697 77.989 159.763 82.2477C164.827 86.5056 168.878 90.0236 168.81 90.105Z" fill="#1A2E35"/>
<path d="M189.913 85.0361C189.806 85.0413 189.388 78.4642 188.978 70.3464C188.569 62.2264 188.323 55.6419 188.429 55.6367C188.535 55.6308 188.954 62.2071 189.363 70.3272C189.773 78.4442 190.019 85.0309 189.913 85.0361Z" fill="#1A2E35"/>
<path d="M176.473 80.3348C176.371 80.3673 175.074 76.614 173.575 71.9528C172.076 67.29 170.942 63.4842 171.043 63.4524C171.145 63.4198 172.442 67.1716 173.942 71.8351C175.44 76.4964 176.574 80.3022 176.473 80.3348Z" fill="#1A2E35"/>
<path d="M164.494 97.0428C164.45 97.1397 161.893 96.0623 158.784 94.637C155.675 93.211 153.191 91.9775 153.235 91.8805C153.279 91.7836 155.835 92.861 158.945 94.2863C162.054 95.7122 164.538 96.9466 164.494 97.0428Z" fill="#1A2E35"/>
<path d="M145.023 88.5417C145.01 88.6475 144.394 88.6571 143.648 88.5639C142.901 88.4707 142.307 88.3101 142.321 88.2035C142.334 88.0984 142.95 88.0888 143.696 88.1821C144.442 88.2753 145.036 88.4359 145.023 88.5417Z" fill="#1A2E35"/>
<path d="M171.522 58.6777C171.416 58.6777 171.33 58.0724 171.33 57.3265C171.33 56.5798 171.416 55.9753 171.522 55.9753C171.629 55.9753 171.716 56.5798 171.716 57.3265C171.716 58.0724 171.629 58.6777 171.522 58.6777Z" fill="#1A2E35"/>
<path d="M216.086 69.126C216.165 69.197 212.752 73.1131 208.463 77.872C204.173 82.6317 200.633 86.4324 200.554 86.3613C200.475 86.2895 203.888 82.3742 208.177 77.6138C212.466 72.8556 216.008 69.0549 216.086 69.126Z" fill="#1A2E35"/>
<path d="M221.518 63.7441C221.593 63.8196 221.201 64.3339 220.641 64.8941C220.082 65.4535 219.567 65.8465 219.492 65.771C219.416 65.6962 219.809 65.1812 220.368 64.6218C220.928 64.0616 221.443 63.6686 221.518 63.7441Z" fill="#1A2E35"/>
<path d="M234.707 82.689C234.719 82.7126 234.36 82.9243 233.702 83.2869C233.043 83.6517 232.079 84.1564 230.877 84.7617C228.476 85.9723 225.11 87.5559 221.319 89.1299C217.524 90.7024 214.027 91.9663 211.473 92.8107C210.196 93.234 209.158 93.5596 208.435 93.7682C207.712 93.9784 207.31 94.082 207.301 94.0568C207.293 94.0317 207.681 93.8792 208.388 93.6254C209.16 93.3494 210.168 92.9883 211.383 92.5539C213.91 91.6444 217.386 90.3428 221.171 88.774C224.954 87.203 228.329 85.6638 230.758 84.5168C231.924 83.9632 232.892 83.5044 233.633 83.1529C234.313 82.8318 234.694 82.6653 234.707 82.689Z" fill="#1A2E35"/>
<path d="M223.884 100.904C223.897 100.952 223.152 101.216 221.921 101.554C220.691 101.892 218.97 102.293 217.051 102.622C215.129 102.949 213.374 103.141 212.1 103.231C210.827 103.32 210.036 103.319 210.033 103.268C210.029 103.213 210.812 103.117 212.073 102.959C213.335 102.801 215.075 102.567 216.986 102.242C218.895 101.916 220.614 101.558 221.856 101.289C223.098 101.02 223.868 100.85 223.884 100.904Z" fill="#1A2E35"/>
<path d="M233.717 99.084C233.717 99.1905 232.764 99.2764 231.586 99.2764C230.409 99.2764 229.455 99.1905 229.455 99.084C229.455 98.9774 230.409 98.8908 231.586 98.8908C232.764 98.8908 233.717 98.9774 233.717 99.084Z" fill="#1A2E35"/>
<path d="M195.505 139.317C192.556 137.117 190.987 133.205 191.597 129.576C191.971 127.357 193.069 125.339 193.947 123.267C194.824 121.194 195.495 118.897 194.961 116.712C194.756 115.875 194.377 115.067 194.372 114.205C194.368 113.344 194.921 112.382 195.782 112.343C196.432 112.313 196.982 112.807 197.39 113.314C198.827 115.097 199.989 120.312 199.261 124.198" fill="#FFBF9D"/>
<path d="M199.261 124.198C199.223 124.191 199.337 123.6 199.38 122.52C199.417 121.443 199.369 119.87 199 117.977C198.812 117.033 198.544 116.006 198.116 114.965C197.899 114.45 197.646 113.918 197.288 113.462C196.932 113.01 196.459 112.558 195.899 112.521C195.337 112.478 194.848 112.972 194.664 113.557C194.457 114.143 194.59 114.807 194.786 115.461C194.99 116.112 195.232 116.817 195.301 117.558C195.375 118.295 195.346 119.05 195.219 119.793C194.704 122.795 193.101 125.226 192.293 127.625C191.874 128.823 191.623 130.009 191.631 131.133C191.625 132.256 191.806 133.3 192.088 134.214C192.657 136.052 193.596 137.345 194.31 138.139C195.036 138.936 195.531 139.286 195.506 139.317C195.497 139.328 195.372 139.244 195.142 139.075C194.908 138.907 194.583 138.633 194.201 138.242C193.442 137.467 192.446 136.172 191.828 134.296C191.522 133.364 191.319 132.293 191.312 131.132C191.289 129.97 191.538 128.733 191.957 127.509C192.771 125.051 194.348 122.623 194.838 119.731C194.961 119.015 194.988 118.296 194.92 117.599C194.855 116.898 194.633 116.247 194.424 115.568C194.227 114.903 194.066 114.143 194.316 113.439C194.433 113.098 194.621 112.774 194.899 112.532C195.169 112.282 195.553 112.142 195.92 112.167C196.678 112.236 197.177 112.777 197.554 113.252C197.943 113.759 198.194 114.309 198.412 114.844C198.839 115.92 199.094 116.966 199.268 117.926C199.608 119.852 199.614 121.443 199.53 122.529C199.482 123.072 199.429 123.492 199.366 123.773C199.309 124.054 199.274 124.2 199.261 124.198Z" fill="#FF9A6C"/>
<path d="M296.006 184.3C296.396 186.429 298.42 188.07 300.577 188.249C302.734 188.428 304.89 187.272 306.15 185.512C307.409 183.752 307.824 181.47 307.531 179.325C307.107 176.21 305.035 173.215 302.032 172.285C299.028 171.354 295.29 173.01 294.459 176.042L290.996 180.879L296.006 184.3Z" fill="#1A2E35"/>
<path d="M291.909 174.803C293.315 163.579 285.197 153.322 273.799 152.236C263.058 151.212 253.51 159.211 251.901 169.88C250.489 179.234 249.277 188.676 249.319 192.105C249.452 202.446 255.502 206.471 257.955 207.68C258.515 207.956 260.058 208.269 260.676 208.357C260.715 208.363 260.741 208.4 260.733 208.438L258.437 220.308C257.396 228.085 261.738 235.022 269.502 236.154C277.293 237.29 283.383 231.316 284.572 223.533L291.909 174.803Z" fill="#FFBF9D"/>
<path d="M253.685 175.928C253.856 176.17 255.221 175.437 256.97 175.697C258.723 175.932 259.876 177.02 260.097 176.833C260.204 176.752 260.054 176.339 259.554 175.85C259.063 175.364 258.181 174.833 257.091 174.678C255.999 174.525 255.023 174.793 254.437 175.127C253.838 175.462 253.6 175.819 253.685 175.928Z" fill="#1A2E35"/>
<path d="M269.259 179.303C269.43 179.545 270.797 178.812 272.544 179.072C274.297 179.306 275.45 180.394 275.671 180.207C275.778 180.126 275.63 179.713 275.129 179.224C274.637 178.739 273.755 178.207 272.665 178.053C271.574 177.9 270.598 178.168 270.011 178.501C269.413 178.836 269.174 179.193 269.259 179.303Z" fill="#1A2E35"/>
<path d="M263.202 187.575C263.224 187.477 262.164 187.131 260.434 186.648C259.993 186.537 259.583 186.387 259.552 186.071C259.494 185.732 259.751 185.278 260.044 184.789C260.622 183.769 261.227 182.7 261.861 181.578C264.404 177 266.314 173.209 266.128 173.108C265.943 173.008 263.732 176.637 261.19 181.215C260.574 182.346 259.985 183.423 259.425 184.455C259.182 184.938 258.807 185.472 258.937 186.175C259.008 186.527 259.301 186.817 259.577 186.936C259.851 187.066 260.101 187.106 260.32 187.152C262.081 187.506 263.181 187.675 263.202 187.575Z" fill="#1A2E35"/>
<path d="M260.748 208.368C260.748 208.368 267.425 209.908 276.62 206.059C276.62 206.059 272.65 214.604 260.129 211.567L260.748 208.368Z" fill="#FF9A6C"/>
<path d="M263.327 191.903C264.078 191.162 265.247 190.866 266.325 191.144C267.073 191.335 267.787 191.814 268.158 192.5C268.53 193.185 268.498 194.078 267.993 194.606C267.424 195.202 266.414 195.212 265.614 194.852C264.813 194.493 264.174 193.838 263.571 193.191C263.404 193.011 263.234 192.825 263.146 192.6C263.059 192.376 263.073 192.101 263.244 191.949" fill="#FF9A6C"/>
<path d="M268.175 189.537C267.893 189.48 267.612 191.379 265.789 192.491C263.969 193.607 261.974 193.098 261.921 193.362C261.877 193.477 262.318 193.797 263.169 193.944C264.004 194.095 265.268 194.005 266.383 193.325C267.496 192.642 268.084 191.601 268.261 190.831C268.45 190.047 268.307 189.546 268.175 189.537Z" fill="#1A2E35"/>
<path d="M270.464 173.607C270.567 174.108 272.348 174.137 274.365 174.684C276.394 175.19 277.962 176.032 278.297 175.645C278.448 175.459 278.225 174.969 277.622 174.41C277.026 173.854 276.03 173.263 274.818 172.945C273.604 172.631 272.448 172.663 271.654 172.857C270.857 173.051 270.422 173.37 270.464 173.607Z" fill="#1A2E35"/>
<path d="M255.452 170.531C255.702 170.974 256.968 170.737 258.421 170.929C259.88 171.07 261.059 171.586 261.403 171.212C261.556 171.028 261.421 170.602 260.94 170.147C260.465 169.695 259.626 169.259 258.625 169.144C257.624 169.031 256.708 169.265 256.144 169.599C255.572 169.933 255.344 170.317 255.452 170.531Z" fill="#1A2E35"/>
<path d="M249.87 167.563C252.011 170.83 258.802 168.812 262.905 166.568C267.225 169.431 273.228 168.189 276.22 163.811C278.566 166.8 283.334 165.812 285.071 162.444C286.81 159.075 285.831 154.439 283.444 151.493C281.058 148.546 277.565 147.059 274.117 146.421C265.941 144.911 257.036 148.081 252.143 155.474C249.887 158.884 248.532 163.478 249.87 167.563Z" fill="#1A2E35"/>
<path d="M272.472 147.588C272.463 147.731 270.54 147.362 267.511 147.866C264.538 148.365 260.352 149.916 257.235 153.395C254.189 156.924 252.805 161.107 252.299 164.092C251.789 167.123 252.178 169.038 252.045 169.05C252.007 169.057 251.88 168.59 251.767 167.722C251.666 166.855 251.631 165.579 251.827 164.022C252.228 160.942 253.558 156.627 256.73 152.947C259.995 149.306 264.37 147.785 267.439 147.394C268.998 147.19 270.273 147.235 271.14 147.333C272.009 147.426 272.478 147.551 272.472 147.588Z" fill="#375A64"/>
<path d="M261.416 162.787C261.378 162.791 261.29 162.38 261.253 161.623C261.213 160.868 261.276 159.759 261.586 158.431C262.168 155.81 264.068 152.187 267.729 150.01C271.41 147.862 275.5 147.956 278.075 148.719C279.387 149.092 280.386 149.574 281.028 149.975C281.672 150.375 281.989 150.651 281.967 150.683C281.9 150.805 280.533 149.788 277.958 149.182C275.439 148.561 271.549 148.561 268.072 150.592C264.613 152.648 262.726 156.049 262.048 158.553C261.328 161.099 261.556 162.789 261.416 162.787Z" fill="#375A64"/>
<path d="M281.037 159.244C280.35 162.158 279.66 165.104 279.658 168.098C279.656 171.092 280.406 174.183 282.318 176.488C285.175 179.934 289.938 180.979 294.336 181.816C296.69 175.982 297.407 169.498 296.384 163.29C295.884 160.259 294.909 157.174 292.771 154.968C289.686 151.784 284.314 151.143 280.565 153.511" fill="#1A2E35"/>
<path d="M283.481 173.573C282.321 176.074 282.408 178.969 282.809 181.696C283.21 184.424 283.901 187.129 283.874 189.885C283.848 192.642 282.971 195.559 280.81 197.27C280.196 197.757 279.488 198.139 278.973 198.73C278.457 199.321 278.179 200.224 278.591 200.892C279.002 201.559 280.25 201.544 280.431 200.782L280.319 200.975C279.846 201.784 280.419 202.838 281.357 202.821C282.822 202.794 284.323 202.018 285.305 200.882C286.72 199.245 287.281 197.051 287.652 194.92C288.792 188.386 288.569 181.615 290.373 175.232" fill="#1A2E35"/>
<path d="M258.388 216.484C259.401 220.92 262.417 224.857 266.436 226.993C270.454 229.129 275.404 229.424 279.648 227.782C283.479 226.3 286.57 223.414 289.557 220.596C290.62 226.992 288.847 233.807 284.804 238.877C280.761 243.946 274.511 247.19 268.039 247.578C263.137 247.871 257.865 246.374 254.783 242.552C252.632 239.883 251.759 236.354 251.794 232.927C251.829 229.5 252.703 226.138 253.729 222.868C254.607 220.071 255.987 216.933 258.817 216.168" fill="#7B1FA2"/>
<path d="M293.493 182.054C296.424 183.648 298.034 186.974 298.603 190.259C299.173 193.547 298.887 196.914 299.026 200.246C299.165 203.579 299.804 207.059 301.909 209.646C304.146 212.394 307.644 213.695 310.763 215.377C317.662 219.097 323.334 225.393 325.412 232.951C327.49 240.508 325.606 249.248 319.945 254.668C314.793 259.601 307.293 261.337 300.161 261.317C295.072 261.302 289.486 260.222 286.313 256.244C283.179 252.316 283.32 246.699 284.466 241.806C285.612 236.912 287.61 232.146 287.687 227.121C286.934 230.222 285.602 233.183 283.781 235.806C283.26 236.555 282.364 237.364 281.559 236.934C280.665 236.458 281.005 235.12 281.421 234.195C287.552 220.557 285.417 193.067 289.05 178.009" fill="#1A2E35"/>
<path d="M288.445 180.496C288.63 180.437 295.783 179.082 294.864 186.156C293.946 193.229 287.034 190.848 287.047 190.644C287.062 190.44 288.445 180.496 288.445 180.496Z" fill="#FFBF9D"/>
<path d="M289.554 188.245C289.588 188.226 289.666 188.348 289.862 188.47C290.053 188.589 290.394 188.698 290.781 188.608C291.564 188.431 292.347 187.326 292.547 186.056C292.649 185.414 292.593 184.784 292.432 184.247C292.283 183.701 291.995 183.296 291.627 183.18C291.265 183.046 290.969 183.236 290.856 183.424C290.735 183.609 290.762 183.757 290.723 183.763C290.701 183.779 290.587 183.626 290.681 183.341C290.729 183.204 290.834 183.048 291.017 182.933C291.205 182.818 291.464 182.78 291.723 182.842C292.263 182.95 292.688 183.516 292.867 184.106C293.075 184.702 293.152 185.412 293.038 186.133C292.807 187.552 291.905 188.791 290.844 188.954C290.33 189.02 289.934 188.815 289.742 188.621C289.545 188.417 289.529 188.255 289.554 188.245Z" fill="#FF9A6C"/>
<path d="M251.072 231.734C251.024 231.704 251.505 230.879 252.275 229.547C253.033 228.213 254.093 226.362 254.828 224.152C255.56 221.943 255.685 219.798 255.466 218.296C255.262 216.784 254.83 215.917 254.9 215.889C254.92 215.88 255.047 216.086 255.22 216.484C255.396 216.883 255.594 217.485 255.736 218.254C256.031 219.786 255.947 222.007 255.193 224.271C254.442 226.534 253.329 228.386 252.508 229.687C252.094 230.339 251.743 230.856 251.493 231.208C251.243 231.56 251.094 231.748 251.072 231.734Z" fill="#1A2E35"/>
<path d="M254.68 223.567C254.573 223.592 254.372 222.964 253.74 222.537C253.12 222.091 252.461 222.119 252.447 222.01C252.441 221.963 252.604 221.88 252.896 221.875C253.185 221.868 253.592 221.966 253.959 222.222C254.326 222.477 254.559 222.827 254.652 223.099C254.748 223.374 254.727 223.557 254.68 223.567Z" fill="#FAFAFA"/>
<path d="M259.249 223.557C259.148 223.616 258.587 222.597 257.428 221.848C256.281 221.078 255.124 220.965 255.139 220.85C255.12 220.752 256.391 220.693 257.639 221.527C258.898 222.345 259.347 223.536 259.249 223.557Z" fill="#FAFAFA"/>
<path d="M262.124 238.571C262.02 238.55 262.211 237.197 262.551 235.55C262.892 233.902 263.252 232.584 263.356 232.605C263.461 232.627 263.27 233.98 262.929 235.627C262.589 237.275 262.228 238.592 262.124 238.571Z" fill="#FAFAFA"/>
<path d="M273.67 240.835C273.564 240.832 273.522 239.402 273.577 237.641C273.632 235.88 273.763 234.455 273.869 234.458C273.975 234.462 274.017 235.892 273.962 237.653C273.907 239.413 273.777 240.839 273.67 240.835Z" fill="#FAFAFA"/>
</g>
<path d="M37.9679 273.717L26.5586 323.411L50.69 323.485L61.8388 279.785L37.9679 273.717Z" fill="#C78976"/>
<mask id="mask6_70_1621" style="mask-type:luminance" maskUnits="userSpaceOnUse" x="0" y="0" width="370" height="370">
<path d="M0 3.05176e-05H370V370H0V3.05176e-05Z" fill="white"/>
</mask>
<g mask="url(#mask6_70_1621)">
<path d="M156.475 212.672C154.182 209.596 151.546 206.643 150.337 203.001C149.753 201.242 149.524 199.378 148.902 197.632C148.28 195.886 147.15 194.184 145.417 193.525C143.685 192.866 142.37 193.535 141.242 194.766L132.961 218.986L137.736 237.593C142.498 236.518 148.468 235.247 152.919 233.241C157.369 231.234 160.351 228.024 160.628 223.149C160.846 219.318 158.769 215.748 156.475 212.672Z" fill="#1A2E35"/>
<path d="M81.1182 208.389C81.1182 208.389 52.3307 220.921 48.7328 226.574C45.1357 232.227 33.3164 272.535 33.3164 272.535L63.6224 281.452L63.1236 323.412H137.495L136.881 249.433L127.551 208.538C127.551 208.538 111.13 207.481 109.61 206.732C108.09 205.982 81.1182 208.389 81.1182 208.389Z" fill="#7B1FA2"/>
<path d="M183.414 105.815C183.651 104.117 182.464 102.253 183.317 100.766C183.788 99.9441 184.738 99.5482 185.622 99.207C186.079 99.0309 186.55 98.8526 187.038 98.8689C187.527 98.8851 188.043 99.1464 188.203 99.6081C188.392 100.15 188.043 100.731 187.636 101.135C187.231 101.54 186.736 101.894 186.519 102.424C186.229 103.134 186.494 105.359 186.79 106.068C187.296 107.283 189.081 112.679 189.237 113.986" fill="#C78976"/>
<path d="M177.34 106.4C177.446 103.832 179.528 93.7123 179.634 91.143C181.371 91.6788 182.378 93.5288 182.705 95.3166C183.032 97.1045 182.863 98.9537 183.173 100.744C183.588 103.149 184.838 105.318 186.098 107.407C187.359 109.497 188.671 111.612 189.238 113.986C189.803 116.36 191.953 122.509 190.281 124.286" fill="#C78976"/>
<path d="M176.857 123.716L166.568 172.616C166.205 174.825 127.551 208.538 127.551 208.538L135.185 239.035L185.544 189.801C189.175 185.918 191.149 180.773 191.052 175.457L190.197 129.574L176.857 123.716Z" fill="#C78976"/>
<path d="M175.101 106.709L176.858 123.716L190.198 129.574C190.198 129.574 190.361 128.367 190.934 122.474C191.567 115.972 184.578 113.182 181.465 108.384C180.132 106.33 180.481 102.555 179.452 97.8785C179.334 97.3398 178.59 94.072 178.19 92.316C177.968 91.3443 177.419 90.4682 176.592 89.9124C175.991 89.5091 175.308 89.3079 174.808 89.9102C174.299 90.5237 175.101 106.709 175.101 106.709Z" fill="#C78976"/>
<path d="M183.415 126.569C184.931 125.288 185.255 122.994 184.694 121.091C184.133 119.187 182.851 117.59 181.55 116.091C180.25 114.592 178.879 113.1 178.079 111.285C177.515 110.006 177.254 108.605 176.632 107.354C176.011 106.102 174.88 104.955 173.484 104.9C174.6 111.937 174.573 115.986 176.857 123.716" fill="#C78976"/>
<path d="M174.844 112.911C174.848 112.938 174.791 112.718 174.707 112.348C174.608 111.898 174.489 111.363 174.35 110.736C174.039 109.265 173.635 107.364 173.176 105.199L173.133 104.992L173.348 104.975C174.227 104.906 175.14 105.295 175.835 105.906C177 106.897 177.531 108.29 177.918 109.469C178.305 110.668 178.638 111.735 179.089 112.557C179.5 113.403 180.067 113.915 180.391 114.351C180.713 114.779 180.853 115.04 180.834 115.054C180.81 115.071 180.628 114.839 180.275 114.448C179.936 114.064 179.31 113.549 178.851 112.689C178.354 111.858 177.984 110.763 177.582 109.584C177.178 108.413 176.66 107.113 175.584 106.198C174.939 105.634 174.136 105.295 173.371 105.348L173.543 105.124C174.425 109.582 175.005 112.917 174.844 112.911Z" fill="#8A503F"/>
<path d="M180.825 108.584C180.72 108.599 180.17 105.491 179.596 101.641C179.024 97.7895 178.645 94.6556 178.75 94.6401C178.855 94.6246 179.405 97.7326 179.978 101.584C180.551 105.434 180.93 108.568 180.825 108.584Z" fill="#8A503F"/>
<path d="M185.067 109.155C185.087 109.152 185.12 109.234 185.165 109.416L185.05 109.439C184.801 108.827 184.219 106.909 183.707 104.602C183.389 103.174 183.156 101.87 183.018 100.922C182.879 99.9734 182.832 99.3806 182.884 99.3725C182.993 99.3547 183.448 101.675 184.084 104.518C184.593 106.816 185.064 108.755 185.164 109.408L185.049 109.432C185.041 109.247 185.047 109.158 185.067 109.155Z" fill="#8A503F"/>
<path d="M187.693 118.531C187.638 118.564 187.369 118.148 186.834 117.577C186.3 117.005 185.462 116.306 184.392 115.786C183.317 115.271 182.249 115.05 181.469 114.989C180.689 114.925 180.196 114.973 180.188 114.91C180.18 114.869 180.666 114.722 181.481 114.717C182.292 114.709 183.431 114.897 184.559 115.439C185.684 115.985 186.54 116.758 187.039 117.398C187.543 118.039 187.73 118.512 187.693 118.531Z" fill="#8A503F"/>
<path d="M178.064 125.057C178.018 125.075 177.662 124.316 177.188 123.045C176.714 121.775 176.141 119.988 175.658 117.974C175.177 115.96 174.88 114.106 174.728 112.759C174.575 111.412 174.55 110.573 174.599 110.568C174.656 110.563 174.777 111.391 174.998 112.722C175.218 114.052 175.556 115.884 176.033 117.884C176.512 119.884 177.04 121.67 177.446 122.956C177.851 124.243 178.117 125.037 178.064 125.057Z" fill="#8A503F"/>
<path d="M118.521 209.405C119.761 207.342 122.799 206.632 124.825 207.931C130.256 203.514 135.811 199.183 141.244 194.766C139.471 203.621 138.302 216.031 142.256 224.151C142.256 224.151 147.265 233.464 155.242 232.039L148.13 239.035L136.882 249.433" fill="#7B1FA2"/>
<path d="M116.756 213.563C116.662 213.569 116.762 211.917 117.803 210.224C118.828 208.519 120.248 207.67 120.287 207.756C120.362 207.849 119.107 208.798 118.133 210.424C117.138 212.037 116.873 213.588 116.756 213.563Z" fill="#1A2E35"/>
<path d="M122.623 219.005C122.587 219.021 122.264 218.433 122.005 217.386C121.742 216.346 121.606 214.832 121.892 213.204C122.183 211.576 122.831 210.202 123.435 209.314C124.039 208.42 124.545 207.98 124.572 208.007C124.622 208.051 124.195 208.553 123.667 209.459C123.136 210.36 122.553 211.7 122.271 213.271C121.996 214.843 122.083 216.302 122.271 217.331C122.456 218.363 122.685 218.981 122.623 219.005Z" fill="#1A2E35"/>
<path d="M149.815 238.047C149.815 238.047 149.245 238.445 148.044 238.758C146.857 239.079 145.001 239.226 142.86 238.602C140.719 238.002 138.413 236.461 136.627 234.133C134.813 231.818 133.583 228.756 132.911 225.468C131.637 218.857 131.688 212.734 132.023 208.364C132.195 206.174 132.441 204.413 132.642 203.203C132.738 202.597 132.831 202.13 132.896 201.813C132.96 201.496 133.001 201.332 133.013 201.334C133.027 201.336 133.012 201.506 132.972 201.826C132.925 202.185 132.865 202.649 132.791 203.224C132.636 204.439 132.432 206.2 132.295 208.383C132.03 212.737 132.026 218.84 133.287 225.389C133.954 228.64 135.151 231.642 136.909 233.917C138.64 236.205 140.863 237.724 142.939 238.341C145.017 238.982 146.833 238.883 148.01 238.612C149.199 238.35 149.797 238.003 149.815 238.047Z" fill="#FAFAFA"/>
<path d="M63.7822 293.904C63.6757 293.904 63.5898 283.385 63.5898 270.412C63.5898 257.435 63.6757 246.918 63.7822 246.918C63.8888 246.918 63.9746 257.435 63.9746 270.412C63.9746 283.385 63.8888 293.904 63.7822 293.904Z" fill="#1A2E35"/>
<path d="M63.1862 238.802C63.107 238.804 63.1292 237.749 62.7666 236.113C62.5942 235.295 62.2811 234.345 61.8438 233.332C61.382 232.33 60.7812 231.27 60.0145 230.251C59.2338 229.243 58.3695 228.385 57.5244 227.675C56.6623 226.985 55.8291 226.433 55.0846 226.052C53.6017 225.27 52.579 225.014 52.6019 224.939C52.6086 224.912 52.8646 224.967 53.3249 225.09C53.5565 225.146 53.837 225.226 54.1493 225.357C54.463 225.483 54.8323 225.604 55.2075 225.807C55.983 226.167 56.8518 226.707 57.7472 227.398C58.6255 228.109 59.5202 228.983 60.3209 230.017C61.1068 231.062 61.7143 232.156 62.1687 233.19C62.5993 234.236 62.8924 235.216 63.0337 236.059C63.1314 236.474 63.1506 236.862 63.1891 237.198C63.2328 237.534 63.2372 237.826 63.2306 238.065C63.2276 238.541 63.2128 238.802 63.1862 238.802Z" fill="#1A2E35"/>
<path d="M113.875 208.07C113.888 208.068 113.93 208.282 113.997 208.693C114.08 209.103 114.141 209.714 114.189 210.505C114.272 212.084 114.128 214.414 113.265 217.13C112.379 219.814 110.714 222.899 107.902 225.433C105.125 227.989 101.131 229.737 96.7906 230.075C92.4476 230.389 88.2362 229.255 85.1082 227.141C81.9492 225.054 79.8446 222.252 78.5674 219.729C77.3094 217.173 76.8202 214.891 76.6671 213.317C76.5968 212.527 76.5657 211.914 76.5864 211.497C76.5916 211.08 76.6012 210.862 76.6145 210.862C76.6278 210.863 76.6441 211.081 76.6641 211.495C76.6685 211.911 76.7233 212.52 76.8158 213.3C77.0134 214.854 77.5388 217.101 78.8101 219.606C80.0999 222.079 82.1956 224.815 85.3029 226.844C88.3768 228.899 92.5023 229.998 96.7625 229.692C101.018 229.359 104.933 227.658 107.666 225.168C110.435 222.699 112.1 219.681 113.007 217.043C113.891 214.376 114.076 212.077 114.039 210.51C114.013 209.724 113.978 209.114 113.92 208.703C113.878 208.29 113.862 208.072 113.875 208.07Z" fill="#1A2E35"/>
<path d="M63.1444 272.269C63.1111 272.37 56.9995 270.441 49.4951 267.962C41.9878 265.481 35.9317 263.389 35.965 263.288C35.9983 263.187 42.1092 265.115 49.6158 267.596C57.1201 270.075 63.1777 272.167 63.1444 272.269Z" fill="#FAFAFA"/>
<path d="M136.161 262C136.161 262.106 119.841 262.262 99.7129 262.346C79.5782 262.431 63.2605 262.413 63.2598 262.306C63.2598 262.2 79.5768 262.045 99.7114 261.96C119.839 261.876 136.161 261.893 136.161 262Z" fill="#FAFAFA"/>
<path d="M136.531 268.441C136.531 268.548 120.128 268.634 99.8984 268.634C79.6616 268.634 63.2617 268.548 63.2617 268.441C63.2617 268.334 79.6616 268.248 99.8984 268.248C120.128 268.248 136.531 268.334 136.531 268.441Z" fill="#FAFAFA"/>
<path d="M126.484 276.273C126.496 276.278 126.424 276.483 126.276 276.871C126.112 277.289 125.891 277.851 125.613 278.559C125.465 278.928 125.302 279.334 125.124 279.775C124.934 280.216 124.702 280.683 124.466 281.19C123.98 282.198 123.475 283.371 122.772 284.594C122.434 285.214 122.081 285.862 121.712 286.537C121.339 287.21 120.895 287.878 120.466 288.587C119.625 290.017 118.585 291.453 117.52 292.984C115.302 295.98 112.661 299.13 109.601 302.159C106.51 305.161 103.309 307.74 100.269 309.899C98.7181 310.935 97.2625 311.947 95.8151 312.759C95.0973 313.174 94.4217 313.605 93.7416 313.966C93.0593 314.32 92.4044 314.661 91.7784 314.986C90.5419 315.665 89.3586 316.147 88.3418 316.614C87.8298 316.84 87.3584 317.063 86.9151 317.244C86.4696 317.413 86.0604 317.568 85.6889 317.709C84.9756 317.973 84.4095 318.183 83.9884 318.339C83.5984 318.479 83.3912 318.546 83.3868 318.534C83.3824 318.522 83.5799 318.429 83.961 318.266C84.3747 318.094 84.9319 317.861 85.6327 317.569C85.9997 317.42 86.4038 317.254 86.8433 317.075C87.2814 316.884 87.7469 316.652 88.253 316.418C89.2587 315.933 90.4294 315.436 91.6533 314.744C92.2735 314.413 92.9217 314.066 93.5973 313.705C94.2707 313.34 94.9397 312.904 95.6501 312.485C97.0842 311.664 98.5272 310.647 100.065 309.609C103.079 307.444 106.256 304.871 109.331 301.884C112.376 298.87 115.01 295.744 117.234 292.774C118.301 291.256 119.346 289.834 120.195 288.416C120.628 287.714 121.077 287.053 121.455 286.387C121.829 285.72 122.189 285.078 122.532 284.464C123.248 283.255 123.769 282.093 124.272 281.099C124.517 280.597 124.757 280.136 124.957 279.701C125.145 279.265 125.317 278.864 125.475 278.5C125.781 277.805 126.023 277.253 126.205 276.843C126.376 276.465 126.471 276.269 126.484 276.273Z" fill="#1A2E35"/>
<mask id="mask7_70_1621" style="mask-type:luminance" maskUnits="userSpaceOnUse" x="86" y="282" width="38" height="33">
<path d="M86.7598 282.71H123.476V314.615H86.7598V282.71Z" fill="white"/>
</mask>
<g mask="url(#mask7_70_1621)">
<g opacity="0.300003">
<path d="M123.476 282.71C118.502 288.761 113.294 293.154 105.988 295.978C102.491 297.329 98.8249 298.251 95.4357 299.854C92.0465 301.457 88.8557 303.88 87.335 307.307C86.1591 309.956 86.7304 313.943 89.5653 314.543C90.642 314.77 91.7491 314.423 92.7836 314.049C107.25 308.804 116.756 295.576 123.476 282.71Z" fill="black"/>
</g>
</g>
<path d="M71.7308 151.019C68.608 153.471 68.3978 158.05 68.554 162.018C68.7094 165.985 68.7552 170.496 65.8811 173.234C63.5116 175.491 59.3683 176.33 58.6868 179.53C58.3686 181.024 59.0797 182.681 60.3821 183.478C61.6831 184.276 63.4827 184.158 64.669 183.197C63.6648 185.702 64.1206 188.919 66.2563 190.567C68.3919 192.216 72.1356 191.446 72.9473 188.873C72.4471 190.578 73.6178 192.582 75.3486 192.984C77.0802 193.385 79.0131 192.102 79.3158 190.351" fill="#1A2E35"/>
<path d="M117.049 179.742C117.7 181.746 120.16 182.947 122.14 182.229C124.122 181.511 125.24 179.014 124.456 177.058C123.841 175.522 122.269 174.361 122.194 172.709C122.102 170.709 124.199 169.389 126.043 168.608C127.887 167.826 130.048 166.8 130.339 164.819C130.62 162.907 128.974 161.329 127.596 159.974C126.218 158.62 124.896 156.564 125.867 154.893C126.364 154.038 127.333 153.579 127.981 152.832C129.416 151.179 128.841 148.409 127.184 146.978C125.528 145.547 123.151 145.243 120.98 145.527C118.81 145.81 116.743 146.603 114.618 147.126C107.608 148.848 99.8917 147.457 93.9258 143.393" fill="#1A2E35"/>
<path d="M73.8493 166.278L81.4676 210.413C82.8077 218.175 90.2085 223.364 97.9629 221.978C105.208 220.683 110.263 214.063 109.611 206.732C109.262 202.82 108.963 199.578 108.963 199.578C108.963 199.578 120.019 196.739 119.063 185.502C118.602 180.071 116.74 168.963 114.939 158.934C113.006 148.163 103.112 140.69 92.2205 141.752L91.1379 141.858C79.5273 143.677 71.7085 154.722 73.8493 166.278Z" fill="#C78976"/>
<path d="M112.579 166.214C112.691 167.058 112.069 167.848 111.191 167.982C110.313 168.114 109.511 167.541 109.398 166.697C109.285 165.854 109.906 165.063 110.783 164.929C111.662 164.796 112.466 165.371 112.579 166.214Z" fill="#1A2E35"/>
<path d="M113.065 164.678C112.887 164.906 111.585 164.126 109.86 164.299C108.136 164.446 106.957 165.457 106.749 165.264C106.648 165.179 106.814 164.783 107.326 164.328C107.829 163.875 108.717 163.396 109.792 163.296C110.867 163.197 111.809 163.505 112.368 163.858C112.938 164.214 113.154 164.574 113.065 164.678Z" fill="#1A2E35"/>
<path d="M95.7034 168.184C95.8159 169.027 95.1943 169.818 94.3159 169.952C93.4383 170.085 92.6354 169.51 92.5229 168.667C92.4104 167.824 93.032 167.032 93.9089 166.898C94.7873 166.765 95.591 167.34 95.7034 168.184Z" fill="#1A2E35"/>
<path d="M96.1424 166.652C95.9641 166.881 94.6602 166.1 92.9375 166.273C91.2126 166.421 90.033 167.431 89.8251 167.238C89.7244 167.154 89.888 166.757 90.4023 166.302C90.9062 165.849 91.7935 165.371 92.8679 165.271C93.9432 165.172 94.8852 165.479 95.4446 165.834C96.0129 166.189 96.2305 166.549 96.1424 166.652Z" fill="#1A2E35"/>
<path d="M103.649 178.833C103.631 178.736 104.685 178.446 106.401 178.054C106.837 177.966 107.245 177.837 107.29 177.529C107.363 177.202 107.132 176.744 106.869 176.253C106.351 175.227 105.808 174.153 105.239 173.026C102.965 168.427 101.274 164.629 101.459 164.539C101.645 164.449 103.639 168.103 105.914 172.702C106.464 173.837 106.989 174.919 107.49 175.954C107.706 176.439 108.047 176.978 107.887 177.66C107.8 178.001 107.501 178.272 107.225 178.375C106.952 178.488 106.704 178.517 106.488 178.552C104.749 178.816 103.664 178.93 103.649 178.833Z" fill="#1A2E35"/>
<path d="M95.9294 159.849C95.8051 160.335 94.0609 160.281 92.0615 160.722C90.0531 161.123 88.4791 161.874 88.1691 161.48C88.0299 161.29 88.2712 160.821 88.8869 160.303C89.4966 159.786 90.4986 159.253 91.6996 159C92.9014 158.748 94.0328 158.833 94.7987 159.061C95.5713 159.288 95.9812 159.619 95.9294 159.849Z" fill="#1A2E35"/>
<path d="M111.945 159.747C111.68 160.168 110.451 159.878 109.021 159.998C107.586 160.068 106.408 160.518 106.09 160.136C105.948 159.949 106.1 159.538 106.593 159.115C107.078 158.695 107.92 158.308 108.904 158.242C109.889 158.177 110.774 158.449 111.311 158.802C111.854 159.156 112.06 159.543 111.945 159.747Z" fill="#1A2E35"/>
<path d="M84.836 152.782C84.8168 152.8 84.7983 152.818 84.779 152.837C83.1296 154.422 82.1476 156.58 82.0536 158.866C82.0506 158.946 82.0477 159.023 82.0447 159.096C81.9182 162.339 82.3148 165.588 82.1565 168.831C81.9981 172.074 81.207 175.434 79.0581 177.867C78.1745 178.868 76.5154 179.66 75.6126 178.675C75.2626 178.295 75.159 177.756 75.0695 177.248C73.7182 169.576 70.9381 162.924 70.1648 154.84C69.9546 152.639 70.7886 150.473 72.4521 149.018C74.0261 147.64 75.9701 146.181 77.937 146.888C79.9098 147.597 82.6841 150.878 84.2877 152.228" fill="#1A2E35"/>
<path d="M78.1269 170.987C77.9271 170.922 70.1926 169.458 71.1857 177.107C72.1787 184.756 79.6535 182.182 79.6387 181.96C79.6231 181.739 78.1269 170.987 78.1269 170.987Z" fill="#C78976"/>
<path d="M76.9257 179.366C76.8895 179.346 76.8044 179.476 76.5927 179.609C76.3863 179.738 76.0177 179.856 75.5996 179.759C74.7531 179.567 73.9058 178.373 73.6897 176.999C73.5802 176.305 73.6401 175.623 73.8148 175.042C73.9761 174.452 74.2876 174.014 74.685 173.89C75.0772 173.743 75.3969 173.949 75.5182 174.152C75.6485 174.353 75.6196 174.511 75.6618 174.52C75.6862 174.537 75.8098 174.371 75.7077 174.062C75.6559 173.915 75.5427 173.745 75.3443 173.622C75.1408 173.497 74.8611 173.456 74.5821 173.523C73.9968 173.64 73.5365 174.252 73.3441 174.89C73.1184 175.535 73.0355 176.303 73.1584 177.082C73.4078 178.617 74.3838 179.957 75.5316 180.133C76.0873 180.203 76.515 179.983 76.7237 179.772C76.9361 179.552 76.9546 179.376 76.9257 179.366Z" fill="#8A503F"/>
<path d="M77.7929 148.101C75.6047 145.216 80.3511 140.302 84.0215 138.74C87.6926 137.177 92.8615 138.537 96.7524 139.42C99.207 139.976 101.684 140.846 104.177 140.498C105.849 140.265 107.391 139.499 108.92 138.785C110.45 138.07 112.048 137.386 113.735 137.337C115.423 137.288 117.235 138.011 118.023 139.504C118.81 140.997 118.107 143.216 116.465 143.61C118.475 142.236 121.697 143.47 122.276 145.835C122.854 148.2 120.569 150.782 118.151 150.495C119.161 149.562 120.967 150.765 120.965 152.14C120.964 153.516 119.825 154.628 118.625 155.301C115.562 157.017 111.787 156.933 108.366 156.141C104.946 155.349 101.705 153.912 98.305 153.035C94.9047 152.158 89.1956 150.547 86.0128 152.03C83.6692 153.122 82.2655 156.21 80.8328 155.698C79.4475 155.204 78.473 153.898 78.0682 152.484C77.6627 151.07 77.7263 149.57 77.7929 148.101Z" fill="#1A2E35"/>
<path d="M78.2227 172.298C78.4432 176.353 78.6681 180.434 79.6139 184.383C80.5596 188.332 82.2779 192.185 85.1246 195.079C88.8557 198.874 93.6805 202.511 98.9316 203.376C104.666 204.319 111.682 203.125 116.35 199.663C118.564 198.021 120.175 194.474 119.489 191.805C121.374 190.942 122.708 188.985 122.822 186.915C122.935 184.846 121.675 182.257 120.035 181.978C121.268 181.776 121.616 179.824 121.155 178.717C120.675 177.564 119.067 177.282 117.839 177.519C116.612 177.755 115.541 178.48 114.533 179.22C113.525 179.959 112.515 180.743 111.327 181.13C107.361 182.419 103.34 178.921 99.1735 179.083C95.4062 179.229 92.0533 182.357 88.32 181.831C86.2332 181.538 84.4379 180.095 83.2865 178.329C82.1358 176.565 82.6375 170.029 82.1846 167.971" fill="#1A2E35"/>
<mask id="mask8_70_1621" style="mask-type:luminance" maskUnits="userSpaceOnUse" x="102" y="189" width="7" height="2">
<path d="M102.492 189.098H108.454V190.992H102.492V189.098Z" fill="white"/>
</mask>
<g mask="url(#mask8_70_1621)">
<g opacity="0.600006">
<path d="M108.453 189.911C108.425 189.96 108.096 189.789 107.535 189.636C106.979 189.479 106.17 189.367 105.308 189.523C104.444 189.679 103.726 190.068 103.259 190.41C102.789 190.75 102.54 191.025 102.496 190.989C102.462 190.965 102.643 190.625 103.099 190.21C103.549 189.799 104.306 189.338 105.243 189.168C106.18 188.998 107.05 189.165 107.616 189.394C108.188 189.621 108.477 189.875 108.453 189.911Z" fill="#375A64"/>
</g>
</g>
<path d="M100.352 181.409C100.631 181.365 100.817 183.237 102.549 184.409C104.278 185.587 106.254 185.182 106.294 185.442C106.332 185.557 105.885 185.849 105.045 185.954C104.221 186.063 102.989 185.914 101.929 185.198C100.872 184.478 100.346 183.432 100.207 182.67C100.059 181.894 100.223 181.41 100.352 181.409Z" fill="white"/>
<path d="M94.7873 202.121C94.7932 202.11 94.9604 202.172 95.2698 202.3C95.585 202.417 96.0519 202.584 96.6676 202.753C97.8938 203.098 99.7157 203.467 101.993 203.588C103.129 203.653 104.381 203.648 105.712 203.514C107.045 203.403 108.455 203.132 109.89 202.698C111.331 202.281 112.777 201.624 114.154 200.754C115.531 199.89 116.848 198.793 117.845 197.394C119.023 195.742 119.625 193.676 119.307 191.849L119.28 191.69L119.417 191.632C120.362 191.227 121.134 190.508 121.73 189.726C122.025 189.331 122.283 188.915 122.474 188.484C122.663 188.059 122.761 187.598 122.807 187.146C122.981 185.318 122.166 183.624 121.026 182.667L120.92 182.578L121.007 182.471C121.76 181.536 121.808 180.299 121.461 179.426C121.118 178.524 120.381 178 119.759 177.758C119.122 177.508 118.572 177.508 118.216 177.544C117.856 177.585 117.673 177.651 117.667 177.632C117.667 177.632 117.839 177.533 118.205 177.464C118.567 177.401 119.138 177.373 119.813 177.613C120.472 177.841 121.276 178.377 121.669 179.343C122.059 180.276 122.04 181.601 121.225 182.648L121.206 182.451C122.429 183.451 123.311 185.226 123.144 187.178C123.098 187.66 123 188.153 122.795 188.624C122.592 189.089 122.324 189.525 122.017 189.942C121.396 190.764 120.595 191.529 119.561 191.978L119.671 191.76C120.025 193.759 119.383 195.883 118.159 197.616C117.123 199.07 115.764 200.195 114.355 201.074C112.946 201.959 111.463 202.622 109.993 203.038C108.528 203.471 107.093 203.734 105.741 203.832C104.39 203.954 103.124 203.944 101.976 203.861C99.6772 203.703 97.8487 203.288 96.624 202.896C96.0105 202.704 95.5473 202.512 95.2394 202.372C94.936 202.219 94.7814 202.133 94.7873 202.121Z" fill="#375A64"/>
<path d="M61.2401 182.596C61.2401 182.596 61.0869 182.567 60.8501 182.404C60.6141 182.246 60.2922 181.936 60.0731 181.427C59.8637 180.921 59.7468 180.225 59.9192 179.454C60.0835 178.677 60.6296 177.903 61.3911 177.291C62.1577 176.674 63.1375 176.217 64.2001 175.831C65.2576 175.437 66.4149 175.088 67.4716 174.441C68.5284 173.802 69.3897 172.772 69.9381 171.541C70.499 170.312 70.7683 168.908 70.809 167.47C70.8705 164.574 70.2008 161.833 70.1275 159.275C70.0113 156.733 70.5005 154.343 71.6623 152.743C72.8078 151.138 74.3344 150.397 75.3926 150.207C75.9276 150.096 76.3546 150.126 76.6365 150.144C76.9185 150.188 77.0643 150.217 77.062 150.23C77.0606 150.282 76.4597 150.114 75.4244 150.354C74.4084 150.582 72.9587 151.336 71.8857 152.899C70.8016 154.451 70.3495 156.762 70.482 159.261C70.5708 161.772 71.2545 164.511 71.1938 167.481C71.1524 168.96 70.8727 170.415 70.2814 171.697C69.7057 172.981 68.7822 174.076 67.6574 174.744C66.5392 175.414 65.3612 175.752 64.3089 176.131C63.2544 176.5 62.3013 176.93 61.5598 177.505C60.8227 178.077 60.3003 178.788 60.1286 179.505C59.9473 180.223 60.0346 180.885 60.213 181.371C60.6081 182.366 61.2882 182.554 61.2401 182.596Z" fill="#375A64"/>
<path d="M116.717 143.46C116.714 143.45 116.828 143.397 117.056 143.302C117.167 143.25 117.311 143.197 117.488 143.156C117.662 143.102 117.867 143.054 118.106 143.03C119.03 142.889 120.573 143.112 121.875 144.385L121.876 144.386L121.88 144.391C122.751 145.484 123.272 147.162 123.024 148.977C122.817 150.795 121.727 152.685 119.99 153.989C118.268 155.318 115.974 156.087 113.557 156.223C111.132 156.371 108.607 156.004 106.084 155.401C101.968 154.408 98.2736 152.634 95.2418 150.6C93.7122 149.611 92.2641 148.667 90.7974 148.012C89.3388 147.343 87.8648 147.008 86.5054 146.917C83.7689 146.738 81.5851 147.447 80.2109 148.087C78.8227 148.742 78.1634 149.302 78.1367 149.261C78.1367 149.261 78.7605 148.658 80.1451 147.952C81.517 147.263 83.7237 146.498 86.5224 146.646C87.9099 146.72 89.4321 147.049 90.9269 147.721C92.4306 148.376 93.9009 149.322 95.4335 150.301C98.4593 152.308 102.102 154.043 106.175 155.027C108.67 155.623 111.167 155.987 113.533 155.85C115.895 155.725 118.113 154.989 119.784 153.718C121.467 152.468 122.518 150.679 122.739 148.938C122.996 147.198 122.52 145.587 121.706 144.525L121.712 144.532C120.501 143.308 119.018 143.042 118.118 143.147C117.191 143.247 116.731 143.502 116.717 143.46Z" fill="#375A64"/>
<path d="M112.796 136.94C112.796 136.94 112.847 137.577 112.447 138.634C112.044 139.672 111.048 141.083 109.285 142.087C108.415 142.593 107.373 143.005 106.198 143.195C105.028 143.389 103.751 143.382 102.438 143.21C99.7974 142.883 97.0653 141.841 94.1919 140.947C91.3288 140.052 88.431 139.521 85.8868 140.07C83.3449 140.592 81.3514 142.027 80.0497 143.471C78.7296 144.927 78.0325 146.401 77.6847 147.44C77.3428 148.488 77.2792 149.104 77.2333 149.096C77.22 149.094 77.2348 148.941 77.2747 148.651C77.3014 148.357 77.3998 147.935 77.5419 147.394C77.8504 146.327 78.5224 144.804 79.847 143.289C81.1531 141.788 83.1829 140.284 85.8136 139.722C88.4472 139.134 91.422 139.678 94.3043 140.578C97.2014 141.481 99.9002 142.519 102.486 142.858C103.77 143.037 105.014 143.054 106.148 142.879C107.282 142.709 108.299 142.326 109.15 141.85C110.878 140.905 111.873 139.57 112.309 138.576C112.741 137.565 112.747 136.932 112.796 136.94Z" fill="#375A64"/>
</g>
<mask id="mask9_70_1621" style="mask-type:luminance" maskUnits="userSpaceOnUse" x="0" y="0" width="370" height="370">
<path d="M0 3.05176e-05H370V370H0V3.05176e-05Z" fill="white"/>
</mask>
<g mask="url(#mask9_70_1621)">
<path d="M178.107 282.701C180.201 282.976 182.063 284.305 183.297 286.018C184.531 287.731 185.191 289.8 185.539 291.882C186.215 295.911 185.125 300.485 183.631 304.287C179.524 302.359 177.335 297.574 176.378 295.076C174.864 291.128 174.525 283.074 178.107 282.701Z" fill="#7B1FA2"/>
<path d="M189.685 309.955C188.382 307.99 188.413 305.298 189.527 303.219C190.641 301.14 192.722 299.671 194.993 299.03C196.043 298.734 197.255 298.628 198.148 299.255C198.982 299.84 199.322 300.96 199.19 301.97C199.057 302.981 198.522 303.896 197.898 304.702C195.756 307.466 193.176 309.748 189.685 309.955Z" fill="#7B1FA2"/>
<path d="M188.647 322.716C188.616 322.717 188.567 322.415 188.509 321.868C188.451 321.32 188.383 320.526 188.328 319.542C188.23 317.582 188.149 314.819 188.798 311.844C189.45 308.864 190.893 306.402 192.297 304.986C192.992 304.271 193.639 303.781 194.114 303.494C194.588 303.204 194.872 303.085 194.885 303.108C194.937 303.185 193.829 303.75 192.535 305.206C191.231 306.637 189.882 309.041 189.245 311.942C188.61 314.847 188.636 317.576 188.652 319.531C188.683 321.494 188.715 322.712 188.647 322.716Z" fill="#1A2E35"/>
<path d="M179.063 288.812C179.093 288.801 179.276 289.271 179.581 290.129C179.887 290.986 180.309 292.234 180.814 293.781C181.825 296.875 183.15 301.172 184.498 305.952C185.844 310.734 186.956 315.093 187.709 318.258C188.085 319.842 188.377 321.126 188.563 322.017C188.75 322.908 188.839 323.404 188.809 323.411C188.778 323.418 188.63 322.936 188.39 322.059C188.134 321.103 187.799 319.849 187.395 318.337C186.562 315.193 185.402 310.853 184.057 306.076C182.711 301.301 181.436 296.994 180.505 293.878C180.061 292.376 179.693 291.133 179.412 290.184C179.159 289.31 179.033 288.821 179.063 288.812Z" fill="#1A2E35"/>
<path d="M184.215 313.786C182.212 309.235 177.88 305.784 172.996 304.849C171.753 304.611 170.219 304.645 169.528 305.706C168.835 306.768 169.428 308.191 170.174 309.217C173.278 313.485 179.135 315.533 184.221 314.129" fill="#7B1FA2"/>
<path d="M174.362 308.427C174.367 308.396 174.656 308.427 175.179 308.511C175.442 308.548 175.762 308.606 176.123 308.711C176.485 308.812 176.906 308.904 177.348 309.079C178.249 309.377 179.281 309.855 180.369 310.487C181.442 311.142 182.561 311.965 183.612 312.969C184.65 313.988 185.51 315.08 186.199 316.131C186.865 317.198 187.376 318.214 187.704 319.105C187.893 319.541 187.998 319.959 188.111 320.318C188.228 320.676 188.296 320.992 188.342 321.254C188.441 321.775 188.482 322.063 188.451 322.069C188.364 322.089 188.14 320.94 187.404 319.228C187.045 318.369 186.516 317.391 185.846 316.363C185.153 315.348 184.306 314.292 183.293 313.298C182.268 312.319 181.185 311.506 180.149 310.848C179.1 310.211 178.106 309.713 177.235 309.382C175.5 308.702 174.344 308.515 174.362 308.427Z" fill="#1A2E35"/>
</g>
</svg>
