<svg width="350" height="350" viewBox="0 0 350 350" fill="none" xmlns="http://www.w3.org/2000/svg">
<mask id="mask0_70_1261" style="mask-type:luminance" maskUnits="userSpaceOnUse" x="0" y="0" width="350" height="350">
<path d="M0 0H350V350H0V0Z" fill="white"/>
</mask>
<g mask="url(#mask0_70_1261)">
<path d="M181.852 34.3287C177.912 32.4681 173.531 32.2581 170.746 32.6823C168.137 33.0792 164.36 34.0746 161.184 36.5631C159.211 38.1087 157.742 40.0337 156.818 42.2849C155.724 44.9512 155.39 48.0949 155.827 51.6292C155.892 52.1591 156.163 52.6295 156.59 52.9529C157.018 53.2777 157.547 53.4121 158.079 53.3309L164.92 52.2907C165.885 52.1437 166.604 51.2974 166.595 50.3216C166.572 48.1306 167.295 44.3254 172.4 43.4581C176.292 42.7994 178.328 45.3761 179.025 46.5157C180.157 48.3693 180.303 50.75 179.416 52.8836C178.052 56.1617 174.774 57.1305 172.941 57.4161C170.833 57.7444 169.378 59.7177 169.697 61.8142L170.817 69.1747C170.98 70.2499 171.987 70.9912 173.063 70.8281L179.727 69.8138C180.802 69.65 181.544 68.6427 181.38 67.5682L181.145 66.0212C181.139 65.9841 181.157 65.9484 181.191 65.9309C182.62 65.1714 185.352 63.4459 187.589 60.4247C190.445 56.567 191.494 51.9897 190.708 46.8195C189.582 39.4198 185.271 35.9429 181.852 34.3287Z" fill="#F6F4EE"/>
<path d="M177.009 72.1229L176.426 72.2118C173.639 72.6353 171.716 75.2484 172.141 78.0351C172.564 80.8225 175.177 82.7454 177.964 82.3212L178.547 82.2323C181.334 81.8081 183.257 79.1957 182.833 76.4083C182.409 73.6216 179.797 71.6987 177.009 72.1229Z" fill="#F6F4EE"/>
<path d="M44.5699 153.148C42.5903 150.672 39.7952 149.134 37.8394 148.52C36.0082 147.945 33.2222 147.388 30.3508 147.999C28.5672 148.377 26.9915 149.165 25.6678 150.341C24.1005 151.733 22.8769 153.68 22.032 156.129C21.9053 156.497 21.9319 156.891 22.1076 157.239C22.2833 157.588 22.5864 157.845 22.9595 157.962L27.7622 159.469C28.4398 159.682 29.1811 159.36 29.4863 158.718C30.1716 157.28 31.8614 155.024 35.4748 156.091C38.2279 156.905 38.7347 159.24 38.825 160.207C38.9727 161.78 38.307 163.382 37.0449 164.493C35.1052 166.199 32.6531 165.783 31.3644 165.384C29.8818 164.925 28.2998 165.748 27.8378 167.221L26.2159 172.388C25.9786 173.143 26.4 173.95 27.1546 174.186L31.8341 175.655C32.5887 175.891 33.3951 175.471 33.6317 174.716L33.9726 173.63C33.981 173.604 34.0041 173.586 34.0321 173.586C35.2088 173.546 37.5454 173.293 39.9737 172.034C43.0733 170.427 45.2223 167.771 46.3619 164.141C47.9929 158.947 46.2877 155.295 44.5699 153.148Z" fill="#F6F4EE"/>
<path d="M29.3193 176.296L28.9098 176.167C26.9533 175.553 24.8617 176.645 24.2471 178.602C23.6332 180.559 24.7252 182.65 26.6817 183.265L27.0912 183.394C29.0484 184.007 31.14 182.915 31.7539 180.958C32.3685 179.002 31.2765 176.91 29.3193 176.296Z" fill="#F6F4EE"/>
<path d="M252.035 320.866C269.072 320.126 290.684 314.686 303.901 303.569C285.658 304.041 267.21 310.193 252.035 320.866Z" fill="#F6F4EE"/>
<path d="M263.889 300.718C280.925 299.978 302.537 294.537 315.754 283.421C297.512 283.893 279.064 290.045 263.889 300.718Z" fill="#F6F4EE"/>
<path d="M276.629 281.524C293.666 280.785 315.277 275.344 328.495 264.227C310.252 264.699 291.804 270.852 276.629 281.524Z" fill="#F6F4EE"/>
<path d="M290.848 261.727C307.795 258.902 328.686 250.896 340.409 238.344C322.218 241.053 304.59 249.37 290.848 261.727Z" fill="#F6F4EE"/>
<path d="M303.346 247.12C318.394 238.508 335.164 223.815 341.408 208.306C325.129 217.259 311.591 231.064 303.346 247.12Z" fill="#F6F4EE"/>
<path d="M297.288 254.025C301.922 237.124 303.361 214.403 296.56 198.288C291.282 216.295 291.541 236.119 297.288 254.025Z" fill="#F6F4EE"/>
<path d="M285.23 270.175C288.515 252.248 287.93 228.521 279.351 212.304C275.496 231.431 277.587 252.014 285.23 270.175Z" fill="#F6F4EE"/>
<path d="M270.863 289.981C274.147 272.054 273.563 248.328 264.984 232.111C261.129 251.237 263.22 271.821 270.863 289.981Z" fill="#F6F4EE"/>
<path d="M255.551 315.076C258.835 297.149 258.25 273.423 249.671 257.206C245.816 276.331 247.907 296.915 255.551 315.076Z" fill="#F6F4EE"/>
<path d="M249.714 324.344C247.246 328.901 245.313 332.623 244.033 335.222C243.413 336.485 242.923 337.484 242.563 338.218C242.415 338.533 242.295 338.792 242.195 339.003C242.115 339.182 242.08 339.276 242.089 339.281C242.099 339.286 242.155 339.202 242.254 339.033C242.369 338.83 242.508 338.58 242.679 338.277C243.065 337.557 243.592 336.576 244.257 335.338C245.604 332.775 247.598 329.088 250.114 324.564C252.617 320.032 255.711 314.7 259.232 308.83C262.784 302.979 266.79 296.607 271.16 290.025C279.919 276.878 288.488 265.416 294.886 257.276C298.085 253.205 300.708 249.937 302.547 247.699C303.43 246.606 304.13 245.739 304.643 245.104C304.857 244.829 305.032 244.603 305.176 244.418C305.292 244.262 305.348 244.178 305.34 244.171C305.332 244.163 305.259 244.233 305.125 244.376C304.968 244.549 304.777 244.761 304.543 245.02C304.008 245.636 303.277 246.477 302.355 247.538C300.455 249.727 297.776 252.954 294.529 256.992C288.033 265.066 279.393 276.502 270.623 289.667" fill="#F6F4EE"/>
<path d="M220.311 206.493C226.529 191.142 230.44 169.853 225.949 153.691C219.007 169.999 217.002 188.78 220.311 206.493Z" fill="#F6F4EE"/>
<path d="M207.289 187.894C213.507 172.543 217.418 151.253 212.928 135.091C205.986 151.4 203.98 170.181 207.289 187.894Z" fill="#F6F4EE"/>
<path d="M195.471 168.894C201.689 153.543 205.6 132.253 201.109 116.091C194.167 132.4 192.162 151.181 195.471 168.894Z" fill="#F6F4EE"/>
<path d="M183.714 148.347C188.055 132.233 189.408 110.547 183.047 95.1257C178.103 112.291 178.34 131.22 183.714 148.347Z" fill="#F6F4EE"/>
<path d="M175.851 131.411C174.312 114.642 168.094 93.8981 156.91 82.1262C158.254 100.12 164.991 117.65 175.851 131.411Z" fill="#F6F4EE"/>
<path d="M179.508 139.549C166.444 128.637 146.949 118.2 129.969 117.709C143.749 129.635 161.369 137.404 179.508 139.549Z" fill="#F6F4EE"/>
<path d="M188.912 156.717C174.398 146.584 153.199 137.53 135.41 138.568C150.753 149.689 169.783 156.144 188.912 156.717Z" fill="#F6F4EE"/>
<path d="M200.619 177.398C186.105 167.265 164.906 158.211 147.117 159.25C162.46 170.37 181.49 176.826 200.619 177.398Z" fill="#F6F4EE"/>
<path d="M216.613 201.052C202.099 190.919 180.9 181.865 163.111 182.903C178.455 194.024 197.484 200.479 216.613 201.052Z" fill="#F6F4EE"/>
<path d="M222.447 209.948C225.477 213.966 227.985 217.175 229.766 219.354C230.632 220.411 231.316 221.248 231.819 221.862C232.039 222.12 232.218 222.331 232.366 222.503C232.492 222.646 232.56 222.716 232.569 222.709C232.577 222.702 232.525 222.619 232.415 222.464C232.282 222.28 232.118 222.056 231.918 221.782C231.438 221.151 230.784 220.291 229.958 219.204C228.237 216.979 225.784 213.731 222.802 209.683C219.808 205.643 216.345 200.758 212.579 195.28C208.841 189.781 204.828 183.671 200.775 177.155C192.692 164.114 186.021 151.919 181.41 142.983C179.104 138.515 177.274 134.879 176.04 132.351C175.43 131.13 174.947 130.162 174.592 129.453C174.435 129.153 174.306 128.907 174.201 128.706C174.109 128.539 174.058 128.456 174.049 128.46C174.039 128.465 174.071 128.557 174.143 128.733C174.233 128.941 174.343 129.195 174.478 129.507C174.806 130.229 175.254 131.214 175.82 132.457C176.987 135.018 178.757 138.686 181.016 143.184C185.529 152.18 192.148 164.427 200.243 177.486" fill="#F6F4EE"/>
<path d="M338.911 146.395C336.044 142.987 332.064 140.924 329.295 140.13C326.702 139.387 322.769 138.702 318.757 139.659C316.265 140.254 314.08 141.416 312.262 143.114C310.108 145.124 308.458 147.902 307.357 151.372C307.191 151.892 307.243 152.445 307.501 152.927C307.761 153.411 308.196 153.762 308.724 153.913L315.523 155.863C316.482 156.138 317.511 155.659 317.918 154.748C318.831 152.703 321.125 149.476 326.238 150.847C330.134 151.894 330.928 155.157 331.089 156.512C331.35 158.717 330.471 160.991 328.737 162.595C326.073 165.059 322.614 164.561 320.789 164.045C318.691 163.452 316.498 164.664 315.901 166.748L313.803 174.064C313.496 175.132 314.116 176.25 315.185 176.556L321.808 178.456C322.877 178.762 323.995 178.142 324.301 177.074L324.742 175.537C324.753 175.5 324.785 175.475 324.824 175.473C326.476 175.376 329.749 174.939 333.115 173.085C337.413 170.719 340.339 166.914 341.813 161.775C343.922 154.421 341.399 149.352 338.911 146.395Z" fill="#F6F4EE"/>
<path d="M318.298 179.441L317.718 179.276C314.948 178.481 312.048 180.088 311.254 182.859C310.459 185.629 312.067 188.529 314.837 189.323L315.417 189.489C318.187 190.284 321.087 188.677 321.881 185.906C322.676 183.136 321.068 180.236 318.298 179.441Z" fill="#F6F4EE"/>
<path d="M114.577 206.253C111.275 203.783 107.253 202.759 104.591 202.626C102.097 202.5 98.4068 202.708 94.9908 204.415C92.8698 205.475 91.1436 206.982 89.8605 208.894C88.3415 211.159 87.4378 214.011 87.1739 217.37C87.134 217.874 87.2964 218.362 87.631 218.742C87.967 219.125 88.4325 219.349 88.9407 219.374L95.4794 219.703C96.402 219.75 97.2301 219.101 97.4051 218.195C97.7985 216.159 99.1887 212.768 104.087 212.93C107.819 213.055 109.22 215.83 109.65 217.018C110.35 218.951 110.035 221.185 108.808 222.996C106.924 225.777 103.701 226.055 101.947 225.973C99.9307 225.88 98.2087 227.434 98.1079 229.438L97.7537 236.474C97.7019 237.502 98.4957 238.38 99.5233 238.432L105.894 238.753C106.922 238.804 107.8 238.01 107.852 236.982L107.926 235.504C107.928 235.469 107.951 235.439 107.986 235.429C109.455 234.995 112.314 233.912 114.96 231.533C118.337 228.498 120.176 224.452 120.425 219.509C120.781 212.435 117.441 208.396 114.577 206.253Z" fill="#F6F4EE"/>
<path d="M102.936 240.38L102.379 240.352C99.7138 240.218 97.4374 242.277 97.303 244.942C97.1693 247.606 99.228 249.883 101.892 250.017L102.449 250.045C105.114 250.179 107.391 248.12 107.525 245.456C107.659 242.791 105.6 240.515 102.936 240.38Z" fill="#F6F4EE"/>
<path d="M80.5781 330.875H86.6268C90.1863 318.191 91.8992 304.076 89.5682 292.276C84.1082 304.105 81.0492 317.43 80.5781 330.875Z" fill="#F6F4EE"/>
<path d="M79.4321 272.015C71.9953 288.126 68.9972 307.01 70.9593 325.195C71.0265 325.337 71.0951 325.481 71.163 325.624C77.8886 310.255 82.7466 288.794 79.4321 272.015Z" fill="#F6F4EE"/>
<path d="M63.474 249.34C58.0231 265.951 57.0144 284.521 60.5655 301.826C60.7846 302.351 61.0093 302.887 61.2375 303.429C66.1585 287.202 68.563 265.372 63.474 249.34Z" fill="#F6F4EE"/>
<path d="M53.0755 283.326C53.0167 283.14 52.9915 283.044 53.0013 283.039C53.0111 283.035 53.0552 283.124 53.1322 283.301C53.2204 283.515 53.3289 283.775 53.4605 284.094C53.5669 284.363 53.6915 284.68 53.8252 285.019C54.066 285.407 54.2977 285.802 54.5434 286.185C54.0471 268.855 49.3333 247.149 39.3828 234.354C39.6138 252.19 44.6055 269.887 53.436 284.388C53.408 284.307 53.3758 284.217 53.3492 284.142C53.2393 283.814 53.149 283.546 53.0755 283.326Z" fill="#F6F4EE"/>
<path d="M57.2481 294.711C57.197 294.58 57.1473 294.451 57.0976 294.322C45.3082 282.449 27.6353 270.788 11.7285 269.244C24.0646 282.282 40.2444 291.329 57.2481 294.711Z" fill="#F6F4EE"/>
<path d="M65.4983 313.004C65.4332 312.948 65.3646 312.892 65.2988 312.836C65.3212 312.886 65.3443 312.938 65.3667 312.989C65.4108 312.993 65.4542 313 65.4983 313.004Z" fill="#F6F4EE"/>
<path d="M15.6992 291.018C29.4444 303.23 46.8583 310.992 64.7377 312.913C64.6096 312.62 64.4871 312.335 64.3611 312.044C51.1794 301.093 32.1842 291.058 15.6992 291.018Z" fill="#F6F4EE"/>
<path d="M25.6309 313.004C34.6336 321.002 45.2134 327.082 56.4631 330.875H70.2979C57.4473 321.224 40.5157 313.04 25.6309 313.004Z" fill="#F6F4EE"/>
<path d="M58.775 298.605C60.336 302.548 62.212 307.092 64.3617 312.044C64.4877 312.334 64.6102 312.619 64.7383 312.912C67.1687 318.481 69.9456 324.554 73.0165 330.874H73.6892C72.824 329.102 71.9826 327.35 71.1636 325.623C71.0957 325.48 71.0271 325.336 70.9599 325.194C68.9481 320.94 67.0791 316.844 65.369 312.988C65.3466 312.937 65.3235 312.885 65.3018 312.836C63.8234 309.5 62.4682 306.35 61.239 303.428C61.0108 302.887 60.7861 302.35 60.567 301.825C60.077 300.649 59.6066 299.511 59.1621 298.422C57.2273 293.687 55.6985 289.836 54.6702 287.161C54.344 286.332 54.0654 285.625 53.826 285.018C53.6923 284.679 53.5677 284.362 53.4613 284.092C53.3297 283.774 53.2212 283.513 53.133 283.3C53.056 283.123 53.0119 283.035 53.0021 283.038C52.9923 283.042 53.0175 283.14 53.0763 283.324C53.1498 283.545 53.2401 283.812 53.35 284.141C53.3766 284.216 53.4088 284.306 53.4368 284.386C53.6986 285.123 54.0353 286.073 54.4553 287.256C55.1091 289.095 56.003 291.487 57.0985 294.32C57.1482 294.45 57.1979 294.578 57.249 294.71C57.7229 295.933 58.229 297.227 58.775 298.605Z" fill="#F6F4EE"/>
</g>
<mask id="mask1_70_1261" style="mask-type:luminance" maskUnits="userSpaceOnUse" x="0" y="0" width="350" height="350">
<path d="M0 0H350V350H0V0Z" fill="white"/>
</mask>
<g mask="url(#mask1_70_1261)">
<path d="M51.3221 69.6002L52.5464 66.7729C62.8672 42.9407 85.1762 26.3605 110.841 24.4684C114.14 24.2255 117.458 24.2199 120.766 24.4656C144.581 26.2345 167.117 40.959 178.544 62.2152C185.264 74.7165 188.722 89.6993 199.473 98.877C213.464 110.821 234.098 108.417 252.11 105.365C270.122 102.311 290.776 99.9592 304.716 111.966C313.447 119.484 317.522 131.325 318.49 142.871C321.053 173.437 303.642 203.479 278.606 220.666C253.572 237.852 222.077 243.417 191.83 241.534C149.458 238.896 107.11 221.467 78.6921 189.458C50.2742 157.45 37.7015 110.243 51.3221 69.6002Z" fill="#F6F6EE"/>
<path d="M86.7063 278.811C86.7063 291.406 76.4961 301.616 63.901 301.616C51.3059 301.616 41.0957 291.406 41.0957 278.811C41.0957 266.216 51.3059 256.006 63.901 256.006C76.4961 256.006 86.7063 266.216 86.7063 278.811Z" fill="#F6F6EE"/>
</g>
<mask id="mask2_70_1261" style="mask-type:luminance" maskUnits="userSpaceOnUse" x="0" y="0" width="350" height="350">
<path d="M0 0H350V350H0V0Z" fill="white"/>
</mask>
<g mask="url(#mask2_70_1261)">
<path d="M329.271 330.601C329.271 330.707 260.197 330.792 175.009 330.792C89.7916 330.792 20.7324 330.707 20.7324 330.601C20.7324 330.495 89.7916 330.41 175.009 330.41C260.197 330.41 329.271 330.495 329.271 330.601Z" fill="#1A2E35"/>
</g>
<mask id="mask3_70_1261" style="mask-type:luminance" maskUnits="userSpaceOnUse" x="0" y="0" width="350" height="350">
<path d="M0 0H350V350H0V0Z" fill="white"/>
</mask>
<g mask="url(#mask3_70_1261)">
<path d="M71.5071 85.5017C71.5071 97.9526 61.4138 108.046 48.9629 108.046C36.512 108.046 26.418 97.9526 26.418 85.5017C26.418 73.0508 36.512 62.9575 48.9629 62.9575C61.4138 62.9575 71.5071 73.0508 71.5071 85.5017Z" fill="white"/>
<path d="M71.5066 85.5018C71.5066 85.5018 71.4905 85.3779 71.4737 85.1371C71.4576 84.8865 71.4352 84.5302 71.4051 84.0668C71.3911 83.8309 71.3757 83.5677 71.3589 83.2786C71.3281 82.9902 71.2672 82.6773 71.2161 82.3371C71.1622 81.9969 71.1041 81.6308 71.0418 81.2395C70.9956 80.8454 70.8493 80.4457 70.7478 80.011C70.3509 78.2694 69.5368 76.2114 68.2516 74.0302C66.9559 71.8574 65.0869 69.588 62.5417 67.6616C62.2218 67.4236 61.8984 67.1828 61.5708 66.9392C61.2299 66.7159 60.8708 66.5108 60.5159 66.2924C60.1533 66.0866 59.8103 65.8353 59.4218 65.6596C59.0375 65.4755 58.649 65.2893 58.257 65.101C58.0603 65.0079 57.8629 64.9141 57.6641 64.8203C57.4576 64.7447 57.2504 64.6698 57.0425 64.5935C56.6253 64.4416 56.2046 64.2883 55.7797 64.1336C55.3513 63.9922 54.9026 63.9005 54.4581 63.7801C54.0101 63.6786 53.5691 63.5204 53.1008 63.4728C52.174 63.3412 51.2367 63.1501 50.2658 63.1452C49.7821 63.1284 49.2949 63.0808 48.8042 63.0885C48.3135 63.1144 47.8186 63.1396 47.3209 63.1655C47.0717 63.183 46.8204 63.1809 46.5719 63.2138L45.8243 63.3293C45.3252 63.4119 44.8177 63.47 44.3158 63.5743C43.3267 63.8431 42.3019 64.044 41.3275 64.4514C40.3223 64.7727 39.3766 65.2697 38.4043 65.7359C37.9311 65.9921 37.4775 66.2917 37.0092 66.5696C36.7796 66.7159 36.5346 66.8412 36.3169 67.0071L35.6568 67.5013C34.7461 68.1264 33.9495 68.9083 33.1151 69.6615C32.7371 70.0773 32.3577 70.4959 31.9762 70.9159L31.6899 71.2316L31.4323 71.5718L30.9192 72.2585L30.404 72.948L29.9532 73.6851L29.5024 74.4271L29.2763 74.7995L29.0852 75.1908C28.8325 75.7158 28.5791 76.2422 28.3243 76.7714C28.1227 77.3223 27.9197 77.8753 27.7167 78.4304C26.9859 80.6795 26.5925 83.0679 26.5603 85.4983C26.5925 87.9301 26.9845 90.3192 27.7146 92.569C27.9183 93.1241 28.1206 93.6778 28.3229 94.2287C28.577 94.7579 28.8311 95.285 29.0838 95.8093L29.2749 96.2013L29.501 96.5737L29.9511 97.3157L30.4026 98.0535L30.9178 98.743L31.4309 99.4297L31.6878 99.7706L31.9748 100.086C32.3563 100.506 32.7357 100.925 33.1137 101.341C33.9481 102.095 34.7447 102.877 35.6561 103.502L36.3155 103.996C36.5339 104.162 36.7789 104.287 37.0085 104.434C37.4768 104.712 37.9311 105.011 38.4043 105.268C39.3759 105.734 40.3216 106.231 41.3275 106.552C42.3019 106.96 43.3267 107.161 44.3165 107.43C44.8184 107.534 45.3259 107.592 45.825 107.674L46.5726 107.79C46.8211 107.823 47.0724 107.821 47.3216 107.838C47.8193 107.864 48.3142 107.889 48.8049 107.915C49.2963 107.922 49.7835 107.875 50.2672 107.858C51.2381 107.854 52.1754 107.662 53.1022 107.531C53.5698 107.483 54.0115 107.324 54.4595 107.223C54.9033 107.102 55.3527 107.011 55.7811 106.869C56.206 106.715 56.6267 106.561 57.0439 106.409C57.2518 106.334 57.4597 106.258 57.6662 106.183C57.8643 106.089 58.0617 105.995 58.2584 105.902C58.6504 105.714 59.0389 105.527 59.4232 105.343C59.8117 105.167 60.1547 104.916 60.5173 104.711C60.8722 104.491 61.232 104.287 61.5722 104.064C61.8998 103.82 62.2232 103.579 62.5431 103.341C65.0883 101.414 66.9573 99.1448 68.2523 96.9727C69.5368 94.7908 70.3516 92.7335 70.7478 90.9919C70.8493 90.5572 70.9956 90.1575 71.0425 89.7627C71.1041 89.3721 71.1622 89.006 71.2161 88.6658C71.2672 88.3256 71.3288 88.0134 71.3589 87.7243C71.3757 87.4352 71.3918 87.1727 71.4051 86.9368C71.4352 86.4734 71.4576 86.1171 71.4737 85.8665C71.4905 85.6257 71.5066 85.5018 71.5066 85.5018C71.5066 85.5018 71.5101 85.6257 71.5031 85.8672C71.4933 86.1185 71.48 86.4755 71.4625 86.9403C71.4527 87.1769 71.4415 87.4408 71.4296 87.7313C71.4037 88.0211 71.3463 88.3354 71.3001 88.6777C71.2497 89.02 71.1958 89.3882 71.1384 89.7816C71.0957 90.1785 70.9529 90.581 70.8556 91.0192C70.4734 92.7727 69.6698 94.8489 68.3888 97.0539C67.0973 99.2491 65.2255 101.547 62.6649 103.501C62.3429 103.742 62.0174 103.987 61.6884 104.234C61.3454 104.461 60.9835 104.669 60.6258 104.891C60.2611 105.1 59.9153 105.354 59.5233 105.534C59.1362 105.721 58.7449 105.91 58.3494 106.101C58.1513 106.197 57.9525 106.292 57.7523 106.387C57.5437 106.464 57.3344 106.541 57.1244 106.618C56.7037 106.773 56.2788 106.929 55.8504 107.086C55.4178 107.231 54.9649 107.325 54.5169 107.448C54.064 107.552 53.6181 107.713 53.1456 107.763C52.209 107.898 51.2626 108.094 50.2812 108.101C49.7926 108.12 49.2998 108.168 48.8035 108.162C48.3072 108.137 47.8067 108.113 47.3034 108.088C47.0521 108.071 46.7973 108.073 46.546 108.04L45.7893 107.926C45.2846 107.843 44.7715 107.785 44.2633 107.681C43.2623 107.411 42.2249 107.209 41.2379 106.799C40.2201 106.475 39.2618 105.974 38.2783 105.504C37.7988 105.244 37.3389 104.943 36.8643 104.662C36.6319 104.514 36.3841 104.387 36.1629 104.22L35.4944 103.721C34.5718 103.088 33.7633 102.298 32.9191 101.536C32.5355 101.115 32.1512 100.692 31.7641 100.267L31.4743 99.9477L31.2132 99.6026L30.6931 98.9082L30.1709 98.2103L29.7138 97.4641L29.2567 96.713L29.0278 96.3357L28.8339 95.9388C28.5777 95.4082 28.3208 94.8741 28.0625 94.3393C27.8581 93.7807 27.6523 93.2207 27.4458 92.6586C26.7052 90.3801 26.3076 87.9602 26.2754 85.4983C26.3076 83.0371 26.7066 80.6179 27.4479 78.3408C27.6537 77.7787 27.8595 77.2187 28.0646 76.6608C28.3222 76.1253 28.5791 75.5926 28.8353 75.0613L29.0299 74.6644L29.2588 74.2878L29.7152 73.5367L30.173 72.7912L30.6945 72.0933L31.2146 71.3989L31.4757 71.0545L31.7655 70.7353C32.1526 70.3104 32.5369 69.8876 32.9198 69.4662C33.7647 68.7046 34.5725 67.9143 35.4951 67.2829L36.1636 66.7838C36.3848 66.6165 36.6326 66.4898 36.865 66.3414C37.3396 66.0607 37.7988 65.759 38.2783 65.5C39.2625 65.0296 40.2201 64.5291 41.2379 64.2043C42.2249 63.7948 43.2616 63.5925 44.2633 63.323C44.7708 63.2187 45.2839 63.1606 45.7886 63.078L46.5453 62.9632C46.7966 62.931 47.0514 62.9331 47.3027 62.9156C47.806 62.8911 48.3065 62.8666 48.8028 62.8421C49.2991 62.8351 49.7912 62.8841 50.2798 62.9023C51.2612 62.91 52.2083 63.1053 53.1442 63.2411C53.6167 63.2908 54.0626 63.4511 54.5155 63.5554C54.9635 63.6779 55.4164 63.7724 55.849 63.9166C56.2774 64.0741 56.7023 64.2302 57.123 64.3849C57.333 64.4619 57.5423 64.5389 57.7502 64.6159C57.9504 64.7111 58.1499 64.8063 58.348 64.9015C58.7435 65.0926 59.1348 65.2816 59.5219 65.4692C59.9139 65.6484 60.2597 65.9025 60.6244 66.1118C60.9821 66.3337 61.344 66.5416 61.687 66.7684C62.016 67.0162 62.3415 67.2605 62.6635 67.502C65.2241 69.4557 67.0966 71.7531 68.3881 73.9483C69.6698 76.1533 70.4727 78.2295 70.8556 79.9837C70.9529 80.4219 71.0957 80.8244 71.1384 81.2213C71.1958 81.6147 71.2497 81.9829 71.3001 82.3252C71.3463 82.6675 71.4037 82.9818 71.4296 83.2716C71.4415 83.5621 71.4527 83.826 71.4625 84.0633C71.48 84.5281 71.4933 84.8851 71.5031 85.1364C71.5101 85.3779 71.5066 85.5018 71.5066 85.5018Z" fill="#1A2E35"/>
<path d="M40.9422 81.6372H45.2255C45.2255 81.6372 45.2255 78.0406 48.9628 77.9762C50.9039 77.9433 51.9098 79.2145 52.3186 80.1889C52.7939 81.3194 52.6497 82.6088 52.0141 83.6574C51.2875 84.8551 49.6957 85.9436 46.8089 85.4354V91.7207H51.0439V89.4359C51.0439 89.4359 56.9841 87.9001 56.9841 81.3544C56.9841 75.0908 51.3673 73.6362 48.9628 73.6362C47.1246 73.6362 40.8617 74.0807 40.9422 81.6372Z" fill="#FFCD62"/>
<path d="M51.0929 97.3672H46.7949V93.3527H51.0929V97.3672Z" fill="#FFCD62"/>
<path d="M72.5283 106.595C72.5283 108.496 70.9876 110.037 69.0864 110.037C67.1859 110.037 65.6445 108.496 65.6445 106.595C65.6445 104.695 67.1859 103.153 69.0864 103.153C70.9876 103.153 72.5283 104.695 72.5283 106.595Z" fill="white"/>
<path d="M72.5298 106.596C72.4997 106.598 72.5102 106.29 72.3688 105.769C72.2281 105.259 71.8788 104.513 71.1095 103.94C70.3661 103.366 69.1425 103.046 67.9602 103.487C67.3778 103.698 66.8227 104.096 66.4286 104.645C66.0233 105.186 65.7958 105.88 65.7888 106.595C65.7951 107.312 66.0233 108.006 66.4286 108.548C66.8227 109.097 67.3778 109.494 67.9602 109.706C69.1432 110.147 70.3661 109.826 71.1095 109.252C71.8788 108.679 72.2281 107.933 72.3688 107.423C72.5102 106.903 72.4997 106.595 72.5298 106.596C72.5396 106.596 72.5452 106.672 72.5473 106.817C72.5522 106.962 72.5354 107.179 72.4759 107.45C72.3646 107.984 72.0307 108.783 71.232 109.412C70.4599 110.042 69.1537 110.414 67.8706 109.952C67.2392 109.731 66.6344 109.305 66.2039 108.713C65.7615 108.128 65.5102 107.372 65.5039 106.595C65.5109 105.818 65.7615 105.064 66.2039 104.479C66.6351 103.886 67.2392 103.462 67.8706 103.24C69.1537 102.778 70.4599 103.151 71.2313 103.78C72.0307 104.409 72.3639 105.207 72.4759 105.742C72.5354 106.014 72.5522 106.23 72.5473 106.375C72.5452 106.521 72.5396 106.596 72.5298 106.596Z" fill="#1A2E35"/>
</g>
<mask id="mask4_70_1261" style="mask-type:luminance" maskUnits="userSpaceOnUse" x="0" y="0" width="350" height="350">
<path d="M0 0H350V350H0V0Z" fill="white"/>
</mask>
<g mask="url(#mask4_70_1261)">
<path d="M323.238 71.5009C323.238 84.5853 312.631 95.1924 299.547 95.1924C286.463 95.1924 275.855 84.5853 275.855 71.5009C275.855 58.4165 286.463 47.8094 299.547 47.8094C312.631 47.8094 323.238 58.4165 323.238 71.5009Z" fill="white"/>
<path d="M323.24 71.5002C323.24 71.5002 323.223 71.37 323.206 71.1166C323.189 70.8534 323.165 70.4796 323.133 69.9924C323.119 69.7439 323.103 69.4681 323.084 69.1643C323.053 68.8605 322.988 68.5322 322.935 68.1745C322.878 67.8168 322.817 67.4325 322.752 67.0216C322.702 66.6072 322.549 66.1865 322.443 65.7301C322.025 63.8996 321.169 61.7373 319.819 59.4448C318.458 57.1621 316.494 54.7772 313.819 52.7521C313.483 52.5022 313.142 52.2488 312.799 51.9926C312.44 51.7581 312.063 51.5432 311.69 51.3129C311.309 51.0966 310.949 50.8334 310.54 50.6486C310.136 50.4547 309.728 50.2587 309.316 50.0613C309.11 49.9633 308.902 49.8653 308.693 49.7666C308.476 49.6875 308.258 49.6077 308.039 49.5279C307.601 49.369 307.159 49.2073 306.713 49.0449C306.262 48.8958 305.791 48.7999 305.324 48.6732C304.853 48.5668 304.39 48.4009 303.897 48.3505C302.924 48.2126 301.939 48.0117 300.918 48.0054C300.41 47.9886 299.898 47.9389 299.382 47.9466C298.867 47.9732 298.346 48.0005 297.823 48.0271C297.562 48.0453 297.298 48.0439 297.036 48.0782L296.251 48.1993C295.726 48.2861 295.193 48.3477 294.666 48.4569C293.626 48.7397 292.549 48.9504 291.525 49.3781C290.469 49.7169 289.475 50.2384 288.453 50.7284C287.956 50.9979 287.48 51.3122 286.987 51.6041C286.746 51.7588 286.488 51.8904 286.26 52.064L285.566 52.5834C284.608 53.2407 283.772 54.0625 282.895 54.8535C282.498 55.291 282.099 55.7306 281.698 56.1723L281.397 56.5034L281.126 56.8618L280.587 57.5828L280.046 58.3073L279.572 59.0822L279.099 59.862L278.861 60.2533L278.66 60.6649C278.394 61.2158 278.128 61.7695 277.86 62.3253C277.648 62.9042 277.435 63.4859 277.221 64.069C276.454 66.4322 276.04 68.9424 276.007 71.4967C276.04 74.0517 276.453 76.5626 277.22 78.9272C277.433 79.5103 277.647 80.092 277.858 80.6716C278.126 81.2274 278.393 81.7811 278.658 82.332L278.859 82.7443L279.096 83.1356L279.57 83.9154L280.044 84.6903L280.586 85.4155L281.125 86.1365L281.395 86.4949L281.696 86.8267C282.097 87.2684 282.496 87.708 282.893 88.1455C283.77 88.9372 284.608 89.759 285.565 90.4163L286.258 90.9357C286.488 91.11 286.745 91.2409 286.986 91.3956C287.479 91.6875 287.956 92.0018 288.453 92.272C289.475 92.762 290.468 93.2835 291.525 93.6223C292.549 94.05 293.626 94.2607 294.667 94.5435C295.194 94.6527 295.727 94.7143 296.251 94.8011L297.037 94.9222C297.299 94.9565 297.562 94.9551 297.824 94.9733C298.348 94.9999 298.867 95.0272 299.383 95.0538C299.899 95.0615 300.411 95.0118 300.92 94.9943C301.94 94.9887 302.925 94.7878 303.9 94.6499C304.391 94.5995 304.854 94.4336 305.325 94.3265C305.792 94.1998 306.264 94.1039 306.714 93.9548C307.161 93.7924 307.603 93.6314 308.041 93.4718C308.26 93.392 308.478 93.3122 308.695 93.2338C308.903 93.1344 309.111 93.0364 309.318 92.9384C309.729 92.7403 310.137 92.545 310.541 92.3511C310.95 92.1656 311.31 91.9031 311.691 91.6861C312.064 91.4565 312.442 91.2416 312.8 91.0064C313.144 90.7502 313.484 90.4968 313.82 90.2469C316.495 88.2225 318.459 85.8369 319.82 83.5542C321.17 81.2617 322.026 79.0994 322.443 77.2696C322.549 76.8132 322.703 76.3925 322.752 75.9781C322.817 75.5672 322.878 75.1829 322.935 74.8252C322.988 74.4675 323.053 74.1392 323.084 73.8361C323.103 73.5316 323.119 73.2558 323.133 73.008C323.165 72.5208 323.189 72.147 323.206 71.8838C323.223 71.6304 323.24 71.5002 323.24 71.5002C323.24 71.5002 323.243 71.6304 323.236 71.8838C323.226 72.1484 323.212 72.5236 323.194 73.0115C323.183 73.2607 323.172 73.5379 323.159 73.8431C323.132 74.1476 323.072 74.478 323.023 74.8378C322.97 75.1976 322.914 75.584 322.853 75.9977C322.808 76.4149 322.658 76.8384 322.555 77.2983C322.154 79.1414 321.31 81.3233 319.964 83.6403C318.607 85.9468 316.639 88.3611 313.948 90.4149C313.61 90.669 313.268 90.9259 312.922 91.1856C312.561 91.4243 312.181 91.6427 311.805 91.8758C311.422 92.0956 311.058 92.3623 310.647 92.5513C310.24 92.748 309.829 92.9475 309.413 93.1484C309.205 93.2478 308.996 93.3479 308.786 93.448C308.566 93.5292 308.347 93.6097 308.126 93.6909C307.684 93.8533 307.238 94.0178 306.787 94.183C306.332 94.3349 305.856 94.4336 305.385 94.5631C304.91 94.6723 304.441 94.841 303.945 94.8935C302.961 95.0363 301.965 95.2414 300.934 95.2498C300.421 95.2687 299.903 95.3198 299.382 95.3128C298.86 95.2876 298.335 95.2617 297.805 95.2351C297.541 95.2176 297.273 95.2197 297.009 95.1854L296.214 95.065C295.684 94.9782 295.144 94.9173 294.611 94.8074C293.558 94.5239 292.468 94.3118 291.431 93.8813C290.362 93.5404 289.354 93.014 288.32 92.5191C287.817 92.2475 287.333 91.9304 286.835 91.635C286.591 91.4789 286.33 91.3459 286.098 91.1702L285.395 90.6459C284.426 89.9816 283.576 89.1514 282.689 88.3499C282.286 87.9075 281.882 87.463 281.475 87.0164L281.171 86.6811L280.896 86.3185L280.349 85.5884L279.801 84.8555L279.32 84.0708L278.84 83.2819L278.599 82.8857L278.396 82.4685C278.127 81.9099 277.857 81.3499 277.585 80.7871C277.37 80.2005 277.154 79.6118 276.938 79.021C276.159 76.627 275.741 74.0839 275.707 71.4967C275.741 68.9102 276.161 66.3678 276.939 63.9752C277.156 63.3844 277.372 62.7957 277.587 62.2098C277.858 61.647 278.128 61.0863 278.397 60.5284L278.602 60.1119L278.842 59.7157L279.322 58.9268L279.803 58.1428L280.352 57.4092L280.898 56.6798L281.172 56.3179L281.477 55.9819C281.883 55.536 282.288 55.0915 282.69 54.6491C283.578 53.8483 284.426 53.0181 285.396 52.3538L286.099 51.8295C286.331 51.6538 286.591 51.5208 286.836 51.3647C287.334 51.07 287.817 50.7529 288.321 50.4806C289.355 49.9857 290.362 49.46 291.431 49.1191C292.468 48.6886 293.558 48.4765 294.61 48.193C295.144 48.0838 295.683 48.0222 296.214 47.9354L297.008 47.815C297.273 47.7807 297.54 47.7828 297.804 47.7653C298.333 47.7387 298.859 47.7128 299.38 47.6876C299.902 47.6806 300.42 47.731 300.933 47.7506C301.964 47.759 302.959 47.9641 303.944 48.1069C304.44 48.1594 304.908 48.3274 305.384 48.4366C305.855 48.5661 306.331 48.6648 306.786 48.8167C307.236 48.9819 307.682 49.1464 308.124 49.3088C308.345 49.39 308.565 49.4712 308.784 49.5517C308.994 49.6518 309.203 49.7519 309.411 49.8513C309.827 50.0522 310.239 50.2517 310.645 50.4484C311.057 50.6367 311.421 50.9034 311.804 51.1239C312.18 51.357 312.56 51.5754 312.92 51.8141C313.266 52.0738 313.609 52.3307 313.947 52.5841C316.637 54.6379 318.606 57.0522 319.963 59.3587C321.309 61.6757 322.153 63.8583 322.555 65.7014C322.658 66.1613 322.808 66.5848 322.853 67.002C322.914 67.4157 322.97 67.8021 323.023 68.1619C323.071 68.5217 323.131 68.8521 323.159 69.1566C323.172 69.4618 323.183 69.739 323.194 69.9882C323.212 70.4768 323.226 70.852 323.236 71.1166C323.243 71.37 323.24 71.5002 323.24 71.5002Z" fill="#1A2E35"/>
<path d="M291.12 67.4395H295.621C295.621 67.4395 295.621 63.6602 299.549 63.5923C301.588 63.5573 302.645 64.8936 303.075 65.917C303.574 67.1056 303.423 68.4601 302.755 69.5626C301.992 70.8212 300.319 71.9657 297.285 71.4309V78.0361H301.736V75.6351C301.736 75.6351 307.978 74.0209 307.978 67.142C307.978 60.5606 302.076 59.0318 299.549 59.0318C297.617 59.0318 291.035 59.4987 291.12 67.4395Z" fill="#FFCD62"/>
<path d="M301.789 83.9697H297.271V79.7515H301.789V83.9697Z" fill="#FFCD62"/>
<path d="M277.505 91.9153C277.505 93.9131 275.886 95.5322 273.888 95.5322C271.891 95.5322 270.271 93.9131 270.271 91.9153C270.271 89.9175 271.891 88.2984 273.888 88.2984C275.886 88.2984 277.505 89.9175 277.505 91.9153Z" fill="white"/>
<path d="M277.504 91.9157C277.472 91.9171 277.484 91.5937 277.335 91.047C277.187 90.5101 276.82 89.7268 276.012 89.1248C275.23 88.5214 273.944 88.1847 272.702 88.6481C272.09 88.87 271.506 89.2879 271.093 89.8647C270.666 90.4338 270.427 91.1632 270.42 91.915C270.427 92.6675 270.666 93.3976 271.092 93.9667C271.506 94.5435 272.09 94.9614 272.702 95.1833C273.945 95.6467 275.23 95.31 276.012 94.7066C276.82 94.1046 277.187 93.3206 277.335 92.7844C277.484 92.2377 277.472 91.9143 277.504 91.9157C277.514 91.9157 277.52 91.9948 277.522 92.1481C277.528 92.3007 277.51 92.5282 277.447 92.8131C277.33 93.3745 276.98 94.2138 276.14 94.8746C275.329 95.5361 273.956 95.9281 272.608 95.4423C271.944 95.2099 271.309 94.7626 270.856 94.1403C270.391 93.5257 270.127 92.7319 270.121 91.915C270.127 91.0988 270.391 90.305 270.857 89.6911C271.309 89.0681 271.945 88.6215 272.608 88.3891C273.956 87.9033 275.328 88.2953 276.14 88.9568C276.98 89.6176 277.33 90.4562 277.447 91.0183C277.51 91.3032 277.528 91.5307 277.522 91.6833C277.52 91.8359 277.514 91.9157 277.504 91.9157Z" fill="#1A2E35"/>
</g>
<mask id="mask5_70_1261" style="mask-type:luminance" maskUnits="userSpaceOnUse" x="0" y="0" width="350" height="350">
<path d="M0 0H350V350H0V0Z" fill="white"/>
</mask>
<g mask="url(#mask5_70_1261)">
<path d="M145.822 265.908C138.267 246.981 132.598 233.834 132.598 233.834L63.5122 244.335C63.5122 244.335 51.0949 276.168 52.1694 290.612C53.2439 305.056 58.3007 330.491 58.3007 330.491H141.9C141.9 330.491 153.378 284.835 145.822 265.908Z" fill="#1A2E35"/>
<path d="M120.888 108.044C121.43 102.583 122.249 97.0924 124.248 91.9817C126.246 86.871 129.52 82.1229 134.145 79.1682L135.332 80.2735C136.152 77.9264 138.335 76.1127 140.792 75.7361C143.25 75.3595 145.875 76.4368 147.36 78.4304C150.01 77.7164 153.049 78.7986 154.651 81.0267C156.254 83.2555 156.312 86.4811 154.791 88.7659C157.274 89.0802 159.465 91.0346 160.062 93.4643C160.659 95.8947 159.621 98.6415 157.567 100.07C160.303 102.435 161.393 106.529 160.195 109.942C158.996 113.354 155.586 115.868 151.972 116.002C152.778 119.144 151.142 122.74 148.243 124.195C145.344 125.65 141.482 124.814 139.445 122.29C139.699 125.559 137.085 128.653 133.901 129.431C130.716 130.209 127.247 128.922 124.923 126.609C122.6 124.297 121.324 121.092 120.83 117.851C120.335 114.611 120.564 111.306 120.888 108.044Z" fill="#1A2E35"/>
<path d="M135.591 83.8479C138.768 84.8769 139.419 87.4501 140.079 89.5942C141.5 94.21 139.902 101.04 137.319 105.12C134.736 109.201 131.904 111.275 127.124 111.965C126.969 104.638 126.814 97.3117 126.658 89.9848L135.591 83.8479Z" fill="#FFCD62"/>
<path d="M137.385 96.4658C139.555 93.6476 139.248 89.2215 136.71 86.7302C138.101 84.9823 137.602 82.2866 136.188 80.5576C134.774 78.8279 132.674 77.836 130.646 76.8987C129.533 71.7852 123.793 68.1886 118.706 69.4171C116.056 65.5216 110.409 64.9105 105.886 66.2286C104.781 66.5506 103.678 66.9664 102.527 66.9622C101.683 66.9587 100.857 66.7277 100.021 66.615C95.4189 65.9962 90.8507 69.2358 89.0566 73.5184C88.7696 74.203 88.5344 74.9247 88.0794 75.5113C87.4823 76.2813 86.5772 76.7342 85.8051 77.3285C84.137 78.6144 83.0786 80.6584 82.9904 82.7626C82.9148 84.5497 83.4839 86.4467 82.7314 88.0693C82.3541 88.8827 81.6723 89.54 81.379 90.387C80.5278 92.8419 83.2494 95.3521 82.7454 97.9008C82.6425 98.4209 82.408 98.9053 82.2638 99.4156C81.9684 100.459 82.0685 101.609 82.5396 102.586C82.9029 103.34 83.4888 104.03 83.5378 104.865C83.5756 105.499 83.2928 106.103 83.1661 106.724C82.8553 108.246 86.139 114.114 87.4529 114.942L126.746 115.293C129.72 114.687 132.142 111.992 132.428 108.971C132.476 108.469 132.483 107.923 132.795 107.526C133.059 107.188 133.488 107.032 133.867 106.829C136.397 105.471 136.702 101.997 136.436 99.1377C136.398 98.7373 136.357 98.3271 136.458 97.9379C136.605 97.3723 137.029 96.9292 137.385 96.4658Z" fill="#1A2E35"/>
<path d="M126.127 96.5221C126.243 89.5683 121.882 81.5771 114.974 78.1765C110.62 76.0331 107.222 76.0191 104.933 75.7524C99.8042 75.1546 95.6658 77.6956 95.6658 77.6956C93.5007 78.2045 85.5634 85.4719 85.1518 93.3574C84.6933 102.118 84.4798 112.832 85.5872 119.353C87.8139 132.466 97.8995 134.03 97.8995 134.03C97.9002 134.01 96.9601 155.827 96.9601 155.827L116.343 171.712L122.265 145.631L126.127 96.5221Z" fill="#FFC19D"/>
<path d="M97.8994 134.03C97.8994 134.03 106.801 134.507 115.499 129.151C115.499 129.151 110.915 138.46 97.7559 137.371L97.8994 134.03Z" fill="#FF9C6A"/>
<path d="M124.146 108.994C124.137 108.016 125.243 105.697 126.208 105.536C128.783 105.106 133.435 105.263 133.549 111.815C133.703 120.77 124.913 118.77 124.661 118.821C123.233 119.113 124.174 112.371 124.146 108.994Z" fill="#FFC19D"/>
<path d="M127.074 115.506C127.114 115.477 127.233 115.613 127.498 115.729C127.757 115.842 128.201 115.917 128.665 115.733C129.605 115.37 130.376 113.854 130.391 112.239C130.399 111.423 130.215 110.65 129.916 110.012C129.631 109.362 129.2 108.912 128.721 108.836C128.245 108.735 127.914 109.025 127.808 109.278C127.692 109.532 127.753 109.71 127.705 109.725C127.681 109.748 127.51 109.579 127.576 109.208C127.61 109.029 127.711 108.816 127.919 108.64C128.131 108.462 128.445 108.368 128.777 108.397C129.469 108.434 130.101 109.058 130.431 109.758C130.798 110.46 131.025 111.329 131.015 112.245C130.989 114.05 130.095 115.755 128.806 116.151C128.18 116.326 127.65 116.145 127.375 115.939C127.094 115.723 127.044 115.523 127.074 115.506Z" fill="#FF9C6A"/>
<path d="M83.2311 92.0305C83.5153 88.7776 84.8117 85.6934 86.3811 82.8304C87.4675 80.8487 88.717 78.9139 90.4264 77.4362C91.8551 76.2014 93.5561 75.3285 95.2627 74.5193C99.749 72.3913 104.753 70.586 109.597 71.6773C112.198 72.2639 114.539 73.6457 116.816 75.0303C118.562 76.0922 120.314 77.18 121.776 78.6066C123.059 79.8589 124.09 81.3464 124.999 82.8913C127.168 86.5726 128.699 90.6879 128.992 94.9502C129.285 99.2132 132.51 102.982 130.011 106.447C129.818 106.716 125.366 107.637 125.059 107.76C124.336 108.047 123.54 107.263 123.546 106.483C123.551 105.705 124.087 105.034 124.664 104.511C123.556 104.474 122.796 103.24 122.866 102.133C122.936 101.026 123.591 100.052 124.249 99.1593C124.334 99.0431 124.424 98.9192 124.442 98.7757C124.488 98.3984 124.06 98.166 123.733 97.9721C122.138 97.0278 121.96 94.4021 123.413 93.252C121.278 92.7571 119.893 90.1881 120.654 88.1315C120.774 87.8067 120.938 87.442 120.783 87.1326C120.633 86.8344 120.263 86.7413 119.944 86.6468C117.58 85.9461 115.992 83.2756 116.505 80.8641C115.262 80.9292 113.998 80.9929 112.789 80.6989C111.579 80.4056 110.409 79.6979 109.856 78.5828C109.064 80.0108 107.507 80.9838 105.875 81.0713C104.244 81.1588 102.593 80.358 101.652 79.0224C99.5663 79.2219 97.432 78.8915 95.5042 78.0711C95.031 80.0143 93.4987 81.6649 91.5947 82.2802C91.2251 82.3992 90.8002 82.5154 90.6224 82.8612C90.509 83.081 90.5272 83.3421 90.5405 83.5885C90.6063 84.8387 89.7544 85.3714 89.0649 86.4172C88.3754 87.4616 87.1735 89.0191 85.9695 88.674C86.1032 90.8034 84.9643 92.3539 83.166 93.5033L83.2311 92.0305Z" fill="#1A2E35"/>
<path d="M81.377 90.3866C81.377 90.3866 81.4631 90.0163 81.8509 89.4213C82.0378 89.1217 82.3031 88.7724 82.5523 88.3258C82.7959 87.8785 82.9891 87.3115 83.0388 86.6479C83.1046 85.9864 83.0444 85.2444 82.9807 84.4331C82.9163 83.6246 82.8484 82.7223 83.0269 81.7738C83.197 80.8288 83.5701 79.8474 84.1798 78.9416C84.4836 78.4894 84.8469 78.0568 85.2697 77.6641C85.6897 77.2672 86.1825 76.9333 86.6753 76.5994C87.1646 76.2627 87.6595 75.9015 88.0256 75.4136C88.3931 74.9257 88.6171 74.3265 88.8593 73.7203C89.3458 72.4967 90.0556 71.2976 91.0041 70.2385C91.947 69.1801 93.0943 68.2197 94.4509 67.5386C95.1173 67.1739 95.8516 66.9275 96.5999 66.7091C97.3601 66.5376 98.1469 66.4032 98.9512 66.4228C99.3523 66.4165 99.7555 66.469 100.159 66.5082C100.56 66.567 100.955 66.6475 101.352 66.7147C102.144 66.8645 102.945 66.8813 103.745 66.6965C104.546 66.5313 105.33 66.2359 106.156 66.0224C106.976 65.7893 107.828 65.65 108.69 65.552C109.553 65.4561 110.433 65.4554 111.315 65.5051C112.197 65.5709 113.079 65.7263 113.946 65.9664C115.662 66.4746 117.336 67.4217 118.48 68.9029C118.592 69.0499 118.704 69.1962 118.816 69.3411L118.672 69.2858C121.376 68.6383 124.209 69.3446 126.397 70.7782C128.6 72.2069 130.239 74.4231 130.77 76.871L130.698 76.7821C131.785 77.2854 132.86 77.7915 133.852 78.4124C134.841 79.0312 135.749 79.7725 136.434 80.6832C137.112 81.5981 137.527 82.6754 137.625 83.7646C137.728 84.8496 137.461 85.9724 136.795 86.7998L136.786 86.65C138.076 87.9212 138.735 89.6194 138.887 91.2308C139.04 92.8492 138.714 94.4298 137.993 95.6891C137.829 96.0132 137.606 96.2946 137.406 96.5802C137.189 96.8539 136.969 97.1094 136.795 97.3845C136.622 97.6596 136.507 97.9557 136.484 98.2658C136.456 98.5752 136.492 98.8867 136.517 99.1954C136.622 100.43 136.604 101.577 136.45 102.595C136.295 103.612 136.008 104.503 135.591 105.189C135.183 105.882 134.67 106.356 134.21 106.655C133.75 106.963 133.342 107.085 133.116 107.253C132.882 107.407 132.8 107.533 132.793 107.526C132.793 107.526 132.864 107.392 133.096 107.224C133.321 107.044 133.729 106.91 134.172 106.598C134.62 106.295 135.114 105.824 135.505 105.14C135.906 104.461 136.178 103.582 136.323 102.576C136.466 101.57 136.474 100.434 136.361 99.2094C136.335 98.9035 136.294 98.5843 136.321 98.2518C136.343 97.9179 136.47 97.584 136.652 97.2956C136.832 97.0037 137.056 96.7426 137.267 96.4724C137.461 96.191 137.677 95.9173 137.833 95.6002C138.529 94.3717 138.839 92.8282 138.683 91.2511C138.529 89.6803 137.879 88.0325 136.629 86.8103L136.557 86.7389L136.62 86.6598C137.241 85.8821 137.493 84.8244 137.392 83.7856C137.296 82.744 136.893 81.7052 136.239 80.8288C135.578 79.9531 134.692 79.23 133.719 78.6252C132.743 78.0169 131.678 77.5164 130.59 77.0152L130.532 76.9886L130.518 76.9256C130 74.5533 128.403 72.3945 126.251 71.0015C124.114 69.6036 121.353 68.9204 118.735 69.5483L118.651 69.5686L118.592 69.493C118.485 69.353 118.376 69.2116 118.268 69.0702C117.165 67.6415 115.547 66.7217 113.87 66.224C113.024 65.9895 112.161 65.8362 111.295 65.7711C110.43 65.7221 109.566 65.7214 108.717 65.8152C107.869 65.9104 107.031 66.0462 106.223 66.2751C105.412 66.4823 104.623 66.7798 103.798 66.9485C103.386 67.0346 102.967 67.0885 102.546 67.0892C102.124 67.0892 101.711 67.0332 101.309 66.9646C100.907 66.896 100.514 66.8148 100.122 66.7567C99.7296 66.7189 99.339 66.6664 98.9491 66.6713C98.1679 66.6503 97.4021 66.7805 96.6601 66.945C95.93 67.1571 95.2118 67.3944 94.5594 67.75C93.2301 68.4122 92.101 69.3516 91.1721 70.3869C90.2369 71.4243 89.5362 72.5954 89.0525 73.798C88.8089 74.3993 88.5772 75.016 88.1852 75.5333C87.7925 76.0513 87.2766 76.4202 86.7831 76.7569C86.284 77.0908 85.8038 77.4135 85.3929 77.7978C84.9792 78.1779 84.6222 78.5979 84.3219 79.0382C83.7206 79.9195 83.3489 80.8771 83.176 81.8011C82.9933 82.7265 83.0521 83.6134 83.1088 84.424C83.1648 85.2346 83.2187 85.985 83.1438 86.6584C83.0843 87.3318 82.8778 87.9135 82.6223 88.365C82.3612 88.8151 82.0896 89.1574 81.8964 89.4514C81.6976 89.7412 81.5695 89.9764 81.4918 90.1388C81.4134 90.3012 81.384 90.3894 81.377 90.3866Z" fill="#7B1FA2"/>
<path d="M114.485 67.4841C114.472 67.5044 114.248 67.3504 113.811 67.1404C113.375 66.9339 112.712 66.677 111.853 66.586C111.003 66.4915 109.948 66.5713 108.913 67.0382C107.886 67.503 106.89 68.3444 106.253 69.4861C106.071 69.8137 105.915 70.163 105.817 70.5032C105.723 70.842 105.711 71.2018 105.889 71.4461L106.111 71.7485L105.748 71.6498C104.753 71.3768 103.732 71.5742 102.982 72.0012C102.217 72.4268 101.737 73.0834 101.475 73.6707C101.211 74.2643 101.15 74.7928 101.137 75.1491C101.128 75.5075 101.158 75.7042 101.138 75.707C101.13 75.7091 101.115 75.6608 101.096 75.567C101.074 75.4739 101.055 75.3332 101.046 75.1498C101.031 74.7851 101.066 74.2342 101.32 73.6049C101.571 72.9833 102.062 72.2728 102.867 71.8038C103.658 71.3362 104.741 71.1094 105.818 71.3964L105.677 71.6001C105.425 71.2515 105.457 70.8021 105.558 70.4332C105.666 70.0552 105.825 69.7024 106.018 69.3545C106.685 68.1575 107.733 67.2839 108.813 66.8114C109.901 66.3347 111.002 66.2738 111.876 66.397C112.76 66.516 113.43 66.8079 113.859 67.0466C114.074 67.1677 114.234 67.2734 114.336 67.3532C114.439 67.4316 114.491 67.4764 114.485 67.4841Z" fill="#7B1FA2"/>
<path d="M129.097 77.65C129.108 77.6619 129.003 77.7809 128.787 77.9727C128.57 78.1624 128.24 78.4277 127.779 78.6846C127.32 78.9366 126.718 79.1872 125.997 79.2348C125.289 79.2831 124.444 79.1277 123.768 78.5796L123.966 78.5481C123.881 78.6685 123.794 78.7924 123.707 78.9177C123.611 79.0381 123.506 79.1529 123.404 79.2726C122.75 79.9593 121.952 80.4318 121.177 80.6831C120.402 80.9428 119.658 81.0107 119.045 80.9673C118.43 80.9246 117.95 80.7776 117.631 80.6572C117.318 80.5207 117.155 80.4255 117.162 80.4108C117.181 80.3548 117.859 80.7349 119.054 80.7769C119.646 80.7951 120.359 80.709 121.096 80.4479C121.833 80.1952 122.587 79.7381 123.207 79.0885C123.303 78.9751 123.404 78.8666 123.493 78.7532C123.577 78.6349 123.66 78.5187 123.74 78.4053L123.827 78.2821L123.938 78.3731C124.542 78.8694 125.317 79.029 125.984 78.9975C126.659 78.9681 127.241 78.7504 127.697 78.5264C128.607 78.0574 129.068 77.6115 129.097 77.65Z" fill="#7B1FA2"/>
<path d="M133.896 85.9192C133.905 85.9213 133.898 85.9773 133.876 86.0844C133.846 86.188 133.795 86.3441 133.68 86.5191C133.462 86.8719 132.976 87.3024 132.244 87.49C131.508 87.6874 130.595 87.5467 129.684 87.2324C129.227 87.0728 128.752 86.9132 128.266 86.6857C127.793 86.4582 127.277 86.1299 127.02 85.5685C127 85.5195 126.981 85.4705 126.963 85.425L127.175 85.4873C126.318 86.1684 125.433 86.762 124.531 87.1036C123.635 87.4578 122.731 87.5201 122.018 87.3829C121.298 87.2534 120.768 86.9524 120.462 86.6906C120.307 86.5618 120.2 86.4456 120.136 86.3616C120.071 86.2776 120.041 86.2314 120.048 86.2258C120.067 86.209 120.208 86.3805 120.526 86.608C120.84 86.8362 121.358 87.0959 122.048 87.196C122.736 87.3031 123.584 87.2261 124.441 86.8733C125.303 86.5324 126.159 85.9507 127.007 85.2759L127.149 85.1632L127.219 85.3389C127.233 85.376 127.25 85.4173 127.266 85.4579C127.476 85.9227 127.928 86.2279 128.381 86.4477C128.838 86.6661 129.319 86.8348 129.764 86.9972C130.654 87.3178 131.513 87.4641 132.2 87.3045C132.89 87.1519 133.363 86.7732 133.594 86.4589C133.833 86.1425 133.869 85.9101 133.896 85.9192Z" fill="#7B1FA2"/>
<path d="M104.978 104.105C104.919 104.978 105.61 105.748 106.521 105.827C107.43 105.905 108.217 105.262 108.277 104.389C108.335 103.515 107.644 102.744 106.735 102.665C105.824 102.587 105.037 103.231 104.978 104.105Z" fill="#1A2E35"/>
<path d="M88.9274 103.665C88.8679 104.539 89.5595 105.309 90.4702 105.387C91.3795 105.465 92.1663 104.823 92.2258 103.949C92.2846 103.076 91.593 102.304 90.6844 102.226C89.773 102.147 88.9862 102.791 88.9274 103.665Z" fill="#1A2E35"/>
<path d="M88.274 98.1694C88.4721 98.392 89.7566 97.5037 91.5388 97.566C93.3196 97.6017 94.5985 98.5614 94.798 98.3493C94.8967 98.2555 94.6993 97.8586 94.1435 97.426C93.5968 96.9955 92.6532 96.5629 91.543 96.5314C90.4328 96.502 89.4857 96.8814 88.9355 97.2818C88.3741 97.685 88.176 98.0693 88.274 98.1694Z" fill="#1A2E35"/>
<path d="M105.996 99.0587C106.217 99.2596 107.405 98.2446 109.183 98.1235C110.957 97.9765 112.328 98.799 112.505 98.5673C112.593 98.4644 112.359 98.0899 111.759 97.7168C111.17 97.3437 110.188 97.0112 109.081 97.0938C107.973 97.1785 107.07 97.6524 106.563 98.1081C106.048 98.5666 105.889 98.9698 105.996 99.0587Z" fill="#1A2E35"/>
<path d="M99.3511 112.437C99.363 112.336 98.2612 112.109 96.4734 111.822C96.0205 111.76 95.5921 111.656 95.5256 111.343C95.429 111.01 95.6348 110.527 95.8728 110.004C96.3362 108.917 96.8206 107.776 97.3302 106.582C99.3574 101.709 100.841 97.6955 100.644 97.6157C100.447 97.5359 98.6434 101.421 96.6155 106.294C96.1269 107.496 95.6593 108.642 95.2148 109.738C95.0258 110.25 94.7108 110.828 94.9215 111.517C95.0328 111.861 95.359 112.118 95.6481 112.207C95.9372 112.305 96.1927 112.318 96.4174 112.338C98.2206 112.494 99.3413 112.538 99.3511 112.437Z" fill="#1A2E35"/>
<path d="M102.112 115.086C102.78 115.179 103.447 115.524 103.837 116.084C104.226 116.642 104.507 117.949 104.12 118.458C103.79 118.891 102.318 118.89 101.306 118.763C100.837 118.704 100.446 118.378 100.29 117.932L99.8907 116.782C99.6632 116.127 100.004 115.392 100.666 115.184C101.115 115.044 101.616 115.016 102.112 115.086Z" fill="#FF9C6A"/>
<path d="M105.187 92.5511C105.452 92.9935 107.156 92.4272 109.257 92.2746C111.356 92.08 113.128 92.3586 113.317 91.8791C113.399 91.6509 113.023 91.2596 112.265 90.9292C111.511 90.5988 110.367 90.3678 109.108 90.4707C107.849 90.5757 106.758 90.9915 106.07 91.4409C105.375 91.8924 105.069 92.3397 105.187 92.5511Z" fill="#1A2E35"/>
<path d="M88.7137 95.2426C89.0875 95.6374 90.498 95.1796 92.2074 95.1131C93.9147 94.9955 95.3728 95.3 95.6948 94.8681C95.8355 94.6581 95.5961 94.2591 94.9535 93.893C94.3193 93.5276 93.2679 93.2441 92.094 93.3057C90.9201 93.3701 89.9121 93.7642 89.3283 94.1947C88.7354 94.6273 88.5485 95.0494 88.7137 95.2426Z" fill="#1A2E35"/>
<path d="M150.127 169.253L133.312 230.242L139.211 247.724C117.007 257.51 84.9102 260.62 59.6094 248.36C59.6094 248.36 68.204 223.142 68.4959 218.234C68.7885 213.325 66.6759 184.65 69.0146 175.033C71.3533 165.416 78.0488 144.804 78.0488 144.804L97.7433 141.677C106.773 146.528 112.555 147.25 122.266 141.629L140.611 145.63L150.127 169.253Z" fill="#7B1FA2"/>
<path d="M78.3467 144.771C78.3467 144.771 67.7704 145.891 63.5116 154.589C59.3046 163.183 47.6265 201.217 46.9909 207.571C46.3553 213.925 51.5101 222.478 56.0041 223.66L69.631 210.075L80.936 211.082L95.8222 141.629L78.3467 144.771Z" fill="#7B1FA2"/>
<mask id="mask6_70_1261" style="mask-type:luminance" maskUnits="userSpaceOnUse" x="56" y="168" width="15" height="36">
<path d="M56.6641 168.135H70.3629V203.992H56.6641V168.135Z" fill="white"/>
</mask>
<g mask="url(#mask6_70_1261)">
<g opacity="0.300003">
<path d="M70.3611 168.135C67.0725 176.666 66.1429 186.092 67.7018 195.1C65.2196 194.173 62.7374 193.246 60.2559 192.319C62.2845 195.121 64.9494 197.459 67.9923 199.105C65.984 198.525 63.9267 197.939 61.8414 198.075C59.7554 198.211 57.6008 199.216 56.6621 201.083C59.0967 200.638 61.574 200.193 64.031 200.48C66.4887 200.767 68.9688 201.901 70.2911 203.992C68.4557 196.07 67.7487 187.887 68.1988 179.767" fill="black"/>
</g>
</g>
<mask id="mask7_70_1261" style="mask-type:luminance" maskUnits="userSpaceOnUse" x="66" y="220" width="57" height="14">
<path d="M66.6289 220.444H122.777V233.836H66.6289V220.444Z" fill="white"/>
</mask>
<g mask="url(#mask7_70_1261)">
<g opacity="0.300003">
<path d="M67.2746 220.444L122.777 225.943C118.776 225.859 115.698 229.245 112.234 231.248C105.821 234.958 97.8332 233.92 90.5147 232.769C84.4506 231.815 78.3865 230.862 72.3224 229.908C70.7922 229.667 69.1618 229.379 68.0341 228.317C66.0125 226.415 66.5655 223.129 67.2746 220.444Z" fill="black"/>
</g>
</g>
<path d="M109.661 215.879L118.955 206.906C119.857 206.034 121.091 205.601 122.34 205.718C124.992 205.97 129.488 206.436 130.412 206.796C131.741 207.312 132.997 208.051 133.366 208.716C133.735 209.38 134.991 213.368 135.064 213.959C135.101 214.246 135.014 215.075 134.916 215.849C134.8 216.766 133.792 217.307 132.988 216.852C132.627 216.647 132.298 216.378 132.11 216.027C131.52 214.919 131.594 214.476 131.594 214.476C131.594 214.476 131.889 218.464 128.64 218.537C128.64 218.537 130.136 221.935 125.954 223.337C125.954 223.337 126.109 225.553 122.611 225.848C119.113 226.144 115.938 225.848 115.938 225.848C115.938 225.848 109.544 230.441 105.039 230.736C100.534 231.032 90.4478 229.063 90.4478 229.063L89.2305 210.486L109.661 215.879Z" fill="#FFC19D"/>
<path d="M122.254 210.187C122.243 210.218 122.811 210.458 123.743 210.81C124.676 211.159 125.975 211.624 127.449 212.016C128.179 212.224 128.915 212.341 129.527 212.509C130.149 212.675 130.523 213.141 130.793 213.547C131.064 213.959 131.278 214.309 131.464 214.522C131.647 214.738 131.776 214.829 131.785 214.819C131.799 214.804 131.695 214.691 131.541 214.463C131.383 214.238 131.199 213.885 130.942 213.452C130.81 213.238 130.653 213.003 130.435 212.788C130.22 212.569 129.922 212.393 129.597 212.29C128.943 212.098 128.245 211.984 127.513 211.776C126.05 211.386 124.748 210.95 123.801 210.644C122.855 210.335 122.266 210.154 122.254 210.187Z" fill="#FF9C6A"/>
<path d="M121.057 215.882C121.045 215.914 121.44 216.098 122.092 216.36C122.743 216.622 123.653 216.96 124.669 217.301C125.686 217.641 126.616 217.918 127.295 218.101C127.973 218.284 128.399 218.374 128.408 218.342C128.417 218.309 128.009 218.158 127.346 217.933C126.592 217.681 125.716 217.388 124.748 217.065C123.781 216.741 122.905 216.447 122.152 216.195C121.485 215.976 121.07 215.85 121.057 215.882Z" fill="#FF9C6A"/>
<path d="M118.76 221.177C118.752 221.254 120.378 221.419 122.312 221.947C124.25 222.463 125.739 223.137 125.77 223.067C125.784 223.039 125.428 222.833 124.822 222.563C124.216 222.294 123.356 221.97 122.377 221.706C121.399 221.443 120.492 221.29 119.833 221.219C119.173 221.146 118.763 221.146 118.76 221.177Z" fill="#FF9C6A"/>
<path d="M97.2359 230.243L56.0059 223.662C56.0059 223.662 60.9605 202.982 68.1894 202.982C69.2485 202.982 105.871 214.88 105.871 214.88L97.2359 230.243Z" fill="#7B1FA2"/>
<path d="M104.449 221.238C104.474 221.262 104.836 220.916 105.415 220.353C106.052 219.728 106.819 218.974 107.668 218.14C108.543 217.27 109.324 216.47 109.871 215.873C110.42 215.278 110.737 214.888 110.712 214.865C110.686 214.841 110.325 215.187 109.745 215.75C109.109 216.375 108.341 217.13 107.492 217.964C106.618 218.834 105.837 219.634 105.289 220.23C104.74 220.826 104.424 221.216 104.449 221.238Z" fill="#FF9C6A"/>
<path d="M105.869 214.877C105.863 214.897 105.683 214.863 105.345 214.779C104.942 214.672 104.457 214.543 103.875 214.388C102.515 213.997 100.702 213.475 98.5029 212.843C93.9739 211.513 87.7299 209.637 80.844 207.53C77.0318 206.354 73.4198 205.238 70.2131 204.248L70.1291 204.222L70.0668 204.138C68.8033 202.438 66.9413 201.403 65.2613 200.891C63.5533 200.369 61.9552 200.307 60.6658 200.423C59.3687 200.528 58.3691 200.814 57.6957 201.016C57.0244 201.232 56.6765 201.386 56.6625 201.359C56.6485 201.334 56.9754 201.126 57.6383 200.856C58.3033 200.6 59.3071 200.259 60.6322 200.104C61.9489 199.939 63.6016 199.958 65.388 200.464C67.159 200.979 69.0959 201.98 70.5155 203.845L70.3692 203.736C73.5815 204.709 77.1991 205.806 81.0176 206.964C87.9035 209.071 94.1279 211.01 98.6254 212.442C100.801 213.148 102.596 213.731 103.943 214.168C104.512 214.365 104.986 214.529 105.38 214.665C105.707 214.786 105.875 214.858 105.869 214.877Z" fill="#1A2E35"/>
<path d="M94.9473 148.777C95.2917 147.631 97.2286 137.036 98.0161 134.572C99.127 131.097 108.158 124.881 108.158 124.881C108.158 124.881 106.742 121.619 102.896 123.315C98.3444 125.322 96.0939 128.702 94.9473 128.015C93.8007 127.326 86.6502 120.047 84.7 120.277C82.7512 120.506 82.3228 122.506 83.0109 123.309C83.699 124.112 84.4711 125.438 84.4711 125.438C84.4711 125.438 80.3425 124.195 81.1454 128.715C81.1454 128.715 76.4435 125.782 76.902 131.974C76.902 131.974 73.8059 130.713 73.1171 132.892C72.4297 135.071 74.4702 137.594 75.502 139.314C76.5345 141.035 79.884 151.012 79.884 151.012L79.9232 159.809L96.3634 156.429L94.9473 148.777Z" fill="#FFC19D"/>
<path d="M94.9458 148.776C94.9584 148.777 95.0018 148.948 95.0753 149.281C95.1523 149.649 95.2545 150.137 95.384 150.755C95.6472 152.089 96.0203 153.984 96.4977 156.402L96.5236 156.534L96.3899 156.563C92.3299 157.419 86.7152 158.605 79.9672 160.03L79.6956 160.088L79.6935 159.808C79.6732 157.099 79.6508 154.136 79.627 151.012L79.6403 151.091C78.4671 147.708 77.2477 144.068 75.7161 140.391C74.9671 138.62 73.4061 137.077 72.844 134.928C72.7061 134.396 72.6424 133.822 72.7348 133.248C72.8209 132.698 73.082 132.063 73.6252 131.715C74.1537 131.365 74.7802 131.289 75.3458 131.329C75.9226 131.371 76.4637 131.496 77.0111 131.701L76.6086 131.995C76.5855 131.389 76.5617 130.775 76.6485 130.141C76.7619 129.523 76.9005 128.834 77.4346 128.311C77.9519 127.767 78.766 127.649 79.4212 127.766C80.0981 127.877 80.7099 128.119 81.3 128.463L80.8527 128.766C80.7421 127.935 80.6 126.922 81.16 126.011C81.5079 125.439 82.1596 125.111 82.7644 125.026C83.3825 124.937 83.9656 125 84.555 125.153L84.2141 125.585C83.8018 124.895 83.3594 124.207 82.868 123.599C82.5495 123.281 82.3822 122.731 82.4088 122.285C82.4326 121.821 82.5901 121.373 82.8561 120.999C83.1214 120.624 83.5022 120.334 83.9215 120.17C84.1329 120.094 84.3464 120.032 84.5648 120.002C84.7755 119.973 85.0709 120.006 85.2767 120.063C86.1202 120.337 86.7663 120.809 87.4208 121.264C89.9856 123.137 92.1836 125.287 94.4005 127.228C94.6651 127.444 94.992 127.751 95.1852 127.805C95.384 127.87 95.7137 127.716 95.9979 127.546C96.5845 127.182 97.1431 126.714 97.7073 126.277C98.8301 125.386 99.9886 124.552 101.205 123.869C102.413 123.231 103.687 122.524 105.125 122.583C106.566 122.614 107.804 123.572 108.379 124.783L108.462 124.96L108.293 125.08C104.775 127.581 101.611 130.044 99.374 132.693C98.8168 133.36 98.3821 134.063 98.135 134.811C97.9047 135.583 97.7262 136.352 97.5547 137.085C97.2306 138.558 96.9338 139.91 96.665 141.135C96.1498 143.55 95.7431 145.455 95.4561 146.799C95.3112 147.449 95.1936 147.946 95.1054 148.279C95.02 148.611 94.9458 148.776 94.9458 148.776C94.9304 148.777 94.971 148.601 95.0333 148.262C95.1033 147.89 95.1964 147.395 95.314 146.77C95.5695 145.419 95.9328 143.506 96.3934 141.079C96.6447 139.849 96.9226 138.49 97.2257 137.011C97.3888 136.271 97.5575 135.502 97.7857 134.705C98.0405 133.896 98.5081 133.131 99.0681 132.448C101.339 129.709 104.483 127.229 108.019 124.68L107.934 124.977C107.428 123.943 106.341 123.098 105.105 123.09C103.863 123.034 102.649 123.691 101.464 124.328C100.283 124.999 99.1577 125.814 98.044 126.705C97.4798 127.144 96.9324 127.612 96.2821 128.019C95.9524 128.196 95.5821 128.456 95.0459 128.343C94.5398 128.157 94.3508 127.885 94.0365 127.653C91.7944 125.701 89.5971 123.566 87.0841 121.738C86.459 121.298 85.794 120.839 85.1171 120.626C84.9463 120.588 84.8301 120.566 84.6523 120.581C84.4738 120.605 84.3051 120.656 84.1399 120.714C83.8144 120.842 83.533 121.06 83.3342 121.342C82.938 121.897 82.8386 122.734 83.323 123.224C83.8536 123.88 84.2953 124.57 84.7251 125.287L85.0982 125.91L84.3842 125.719C83.4266 125.464 82.1659 125.491 81.6591 126.33C81.2405 126.976 81.3231 127.894 81.4351 128.662L81.5254 129.281L80.9871 128.965C80.4838 128.67 79.8979 128.44 79.3351 128.351C78.7681 128.256 78.2039 128.354 77.849 128.731C77.121 129.517 77.142 130.842 77.1924 131.951L77.2127 132.398L76.7899 132.244C75.8631 131.906 74.7053 131.706 73.9521 132.195C73.5783 132.432 73.3858 132.866 73.3046 133.342C73.2276 133.815 73.2773 134.308 73.4005 134.786C73.6497 135.747 74.1551 136.643 74.6878 137.503C75.2107 138.356 75.8442 139.205 76.2271 140.167C77.7678 143.9 78.9641 147.526 80.1247 150.929L80.1373 150.968L80.138 151.009C80.1422 154.134 80.1457 157.097 80.1499 159.806L79.8755 159.583C86.6382 158.231 92.2655 157.107 96.3346 156.293L96.2268 156.453C95.8047 154.013 95.4736 152.102 95.2405 150.757C95.1404 150.136 95.062 149.647 95.0025 149.278C94.9528 148.945 94.9332 148.775 94.9458 148.776Z" fill="#FF9C6A"/>
<path d="M84.4839 125.552C84.4398 125.608 85.368 126.401 86.4796 127.414C87.5926 128.424 88.4704 129.274 88.5215 129.225C88.5705 129.179 87.7683 128.247 86.6469 127.23C85.5283 126.21 84.5245 125.5 84.4839 125.552Z" fill="#FF9C6A"/>
<path d="M80.8071 128.468C80.7483 128.492 81.1004 129.382 81.82 130.304C82.5354 131.231 83.3089 131.794 83.3474 131.743C83.3957 131.687 82.7125 131.054 82.0174 130.152C81.316 129.254 80.8729 128.435 80.8071 128.468Z" fill="#FF9C6A"/>
<path d="M76.9644 131.747C76.9084 131.787 77.2955 132.419 77.8282 133.158C78.3616 133.896 78.8383 134.462 78.8943 134.422C78.9503 134.382 78.5632 133.75 78.0305 133.011C77.4978 132.273 77.0204 131.707 76.9644 131.747Z" fill="#FF9C6A"/>
<path d="M140.611 145.631L122.929 163.274L104.789 186.064L97.5744 155.693L79.1406 159.481C79.1406 159.481 80.4412 193.789 86.114 209.338C87.1934 212.297 90.3875 214.498 91.812 215.174C100.724 219.407 109.424 212.858 109.424 212.858C109.424 212.858 146.603 187.905 150.633 171.2C152.536 163.312 151.773 153.934 148.531 150.073C145.681 146.679 140.611 145.631 140.611 145.631Z" fill="#7B1FA2"/>
<path d="M150.632 171.201C150.632 171.201 150.59 171.385 150.491 171.741C150.375 172.09 150.281 172.64 149.993 173.303C149.525 174.67 148.562 176.585 147.074 178.885C145.577 181.179 143.512 183.834 140.889 186.707C138.255 189.571 135.1 192.688 131.432 195.931C127.777 199.189 123.623 202.585 119.05 206.081C116.762 207.827 114.367 209.594 111.863 211.364C111.233 211.802 110.6 212.244 109.961 212.689C109.33 213.124 108.67 213.584 107.981 213.971C106.599 214.753 105.122 215.411 103.567 215.897C100.474 216.898 96.975 217.1 93.6892 216.083C93.2713 215.986 92.8877 215.781 92.4838 215.634C92.0862 215.471 91.6774 215.327 91.2987 215.105C90.5364 214.685 89.828 214.177 89.1525 213.623C87.8239 212.502 86.6101 211.132 85.9598 209.435C84.7817 206.098 83.9403 202.605 83.1948 199.042C82.5179 195.466 81.8893 191.826 81.4203 188.12C80.1204 178.236 79.3798 168.608 78.964 159.488L78.957 159.339L79.1047 159.309C85.5384 157.991 91.7012 156.728 97.5399 155.533L97.696 155.5L97.7324 155.655C100.458 167.194 102.883 177.461 104.909 186.035L104.696 185.979C110.923 179.282 115.92 173.906 119.369 170.195C121.091 168.354 122.425 166.929 123.337 165.953C123.787 165.478 124.132 165.114 124.371 164.861C124.605 164.616 124.731 164.497 124.731 164.497C124.731 164.497 124.623 164.633 124.398 164.885C124.163 165.144 123.828 165.515 123.389 166.001C122.488 166.987 121.171 168.427 119.47 170.288C116.04 174.017 111.07 179.419 104.879 186.148L104.721 186.321L104.667 186.092C102.62 177.524 100.168 167.262 97.4139 155.731L97.6057 155.853C91.7691 157.056 85.607 158.327 79.1754 159.653L79.3154 159.475C79.7389 168.579 80.4837 178.204 81.7815 188.072C82.2498 191.772 82.8763 195.405 83.5504 198.97C84.2917 202.521 85.1303 206.004 86.2951 209.311C86.9083 210.921 88.0815 212.257 89.3786 213.352C90.0366 213.893 90.7317 214.391 91.4674 214.798C91.8279 215.01 92.2276 215.151 92.6168 215.31C93.0109 215.454 93.3847 215.656 93.7935 215.751C96.9988 216.746 100.42 216.557 103.467 215.576C104.998 215.1 106.456 214.454 107.818 213.686C108.504 213.301 109.13 212.867 109.778 212.421C110.416 211.978 111.049 211.538 111.678 211.102C114.182 209.339 116.578 207.578 118.868 205.84C123.443 202.36 127.601 198.979 131.261 195.738C134.934 192.512 138.097 189.414 140.738 186.569C143.37 183.716 145.444 181.082 146.956 178.807C148.457 176.527 149.437 174.631 149.924 173.277C150.223 172.62 150.327 172.076 150.455 171.731C150.566 171.379 150.632 171.201 150.632 171.201Z" fill="#1A2E35"/>
<path d="M108.143 200.013C108.077 199.998 108.294 199.12 108.406 197.681C108.476 196.962 108.465 196.102 108.415 195.152C108.338 194.203 108.178 193.167 107.907 192.103C107.363 189.97 106.446 188.176 105.706 186.939C104.953 185.705 104.396 184.995 104.447 184.956C104.466 184.94 104.622 185.103 104.888 185.415C105.159 185.721 105.512 186.196 105.924 186.801C106.729 188.018 107.704 189.831 108.26 192.012C108.537 193.099 108.69 194.161 108.75 195.131C108.783 196.102 108.767 196.979 108.663 197.705C108.575 198.433 108.459 199.016 108.346 199.41C108.238 199.805 108.167 200.019 108.143 200.013Z" fill="#1A2E35"/>
<path d="M105.625 117.396C105.592 117.492 105.212 117.45 104.631 117.332C104.049 117.217 103.27 117.039 102.402 116.972C101.534 116.899 100.757 116.962 100.223 117.103C99.6773 117.23 99.4477 117.452 99.3588 117.415C99.3161 117.395 99.3154 117.274 99.4253 117.111C99.5338 116.949 99.7473 116.769 100.038 116.622C100.616 116.321 101.512 116.164 102.46 116.246C103.413 116.32 104.234 116.596 104.787 116.841C105.343 117.089 105.657 117.302 105.625 117.396Z" fill="#1A2E35"/>
<mask id="mask8_70_1261" style="mask-type:luminance" maskUnits="userSpaceOnUse" x="113" y="168" width="33" height="62">
<path d="M113.436 168.323H145.971V229.853H113.436V168.323Z" fill="white"/>
</mask>
<g mask="url(#mask8_70_1261)">
<g opacity="0.300003">
<path d="M133.715 229.853C133.715 229.853 125.621 228.86 121.267 228.187C118.887 227.819 115.264 227.436 114.578 226.771C113.726 225.945 113.732 224.57 113.642 223.386C112.098 203.194 119.04 181.35 140.498 168.323L145.971 169.762L145.617 182.916L133.715 229.853Z" fill="black"/>
</g>
</g>
</g>
<mask id="mask9_70_1261" style="mask-type:luminance" maskUnits="userSpaceOnUse" x="0" y="0" width="350" height="350">
<path d="M0 0H350V350H0V0Z" fill="white"/>
</mask>
<g mask="url(#mask9_70_1261)">
<path d="M260.218 72.4793C262.964 72.725 265.724 70.6453 266.244 67.9377C266.765 65.2308 264.973 62.2754 262.332 61.4851C263.993 59.6987 264.35 56.8259 263.176 54.6867C262.004 52.5475 259.39 51.3043 256.991 51.7439C256.831 49.3401 255.338 47.0686 253.194 45.9703C251.05 44.8727 248.334 44.9882 246.29 46.2636C243.576 44.0481 239.286 44.0663 236.591 46.3056C234.243 45.9304 231.723 47.2373 230.677 49.3737C229.63 51.5094 230.143 54.301 231.879 55.9264" fill="#1A2E35"/>
<path d="M235.516 51.8852L236.752 51.8565C249.189 51.5667 259.765 60.8739 261.053 73.2478C262.251 84.7565 263.428 97.4867 263.496 103.674C263.636 116.486 250.872 118.776 250.872 118.776L252.314 134.139L221.207 133.901L217.156 78.1569C215.699 64.8849 222.209 52.9744 235.516 51.8852Z" fill="#FFC19D"/>
<path d="M250.889 118.774C250.889 118.774 241.958 119.439 233.229 114.236C233.229 114.236 238.433 123.572 251.186 122.121L250.889 118.774Z" fill="#FF9C6A"/>
<path d="M257.141 87.1488C257.199 88.1141 256.427 88.9576 255.421 89.0353C254.415 89.1123 253.554 88.3955 253.497 87.4302C253.44 86.4649 254.21 85.62 255.216 85.5423C256.222 85.4646 257.085 86.1842 257.141 87.1488Z" fill="#1A2E35"/>
<path d="M258.446 79.5793C258.225 79.8229 256.816 78.8296 254.847 78.8807C252.881 78.9038 251.459 79.9503 251.241 79.7144C251.133 79.6094 251.354 79.1733 251.973 78.7015C252.581 78.2304 253.627 77.7628 254.853 77.739C256.079 77.7173 257.121 78.145 257.724 78.593C258.341 79.0431 258.555 79.4694 258.446 79.5793Z" fill="#1A2E35"/>
<path d="M240.193 87.1494C240.249 88.1147 239.479 88.9582 238.472 89.0352C237.468 89.1136 236.605 88.3961 236.548 87.4301C236.492 86.4655 237.262 85.6206 238.267 85.5429C239.274 85.4652 240.136 86.1848 240.193 87.1494Z" fill="#1A2E35"/>
<path d="M239.107 80.3977C238.886 80.6413 237.474 79.6487 235.508 79.6998C233.541 79.7222 232.12 80.7687 231.901 80.5328C231.794 80.4285 232.013 79.9924 232.634 79.5199C233.242 79.0495 234.287 78.5819 235.513 78.5581C236.739 78.5357 237.781 78.9634 238.385 79.4114C238.999 79.8615 239.216 80.2885 239.107 80.3977Z" fill="#1A2E35"/>
<path d="M246.591 94.8287C246.579 94.7167 247.798 94.4766 249.774 94.177C250.276 94.114 250.749 94.0027 250.826 93.6576C250.936 93.2915 250.713 92.7546 250.456 92.1757C249.955 90.971 249.431 89.7075 248.88 88.3831C246.689 82.9819 245.091 78.5369 245.309 78.4501C245.527 78.3647 247.48 82.6718 249.671 88.0723C250.199 89.4044 250.705 90.6742 251.185 91.8887C251.388 92.4564 251.731 93.0962 251.491 93.8557C251.365 94.2344 251.002 94.5158 250.682 94.6096C250.362 94.716 250.08 94.7279 249.832 94.7482C247.839 94.9022 246.601 94.9393 246.591 94.8287Z" fill="#1A2E35"/>
<path d="M239.524 76.3318C239.276 76.8372 237.577 76.3353 235.499 76.3164C233.421 76.2506 231.68 76.6832 231.478 76.1687C231.39 75.9237 231.749 75.4666 232.488 75.0501C233.221 74.6329 234.343 74.2983 235.588 74.3221C236.834 74.3487 237.924 74.7281 238.618 75.1747C239.317 75.6206 239.634 76.091 239.524 76.3318Z" fill="#1A2E35"/>
<path d="M258.352 71.4618C257.948 71.9182 256.313 71.4919 254.359 71.5164C252.405 71.4828 250.758 71.9007 250.367 71.4415C250.195 71.2189 250.445 70.7646 251.157 70.325C251.859 69.8868 253.043 69.5137 254.386 69.5165C255.729 69.5214 256.902 69.8987 257.592 70.3411C258.293 70.7849 258.53 71.2399 258.352 71.4618Z" fill="#1A2E35"/>
<path d="M259.685 67.4035C259.685 67.4035 256.12 59.4613 252.208 57.6798C247.473 55.5231 245.577 60.7094 241.086 59.5656C236.594 58.4232 232.074 56.3526 227.595 59.9079C222.691 63.7999 225.091 66.3941 224.916 72.0844C224.202 95.1536 220.147 101.767 218.697 90.9424C218.538 89.7566 215.216 88.8879 214.61 83.8759C213.824 77.3771 213.389 69.4734 214.736 64.817C215.87 60.8921 218.029 58.1481 221.943 55.0877C228.123 50.2556 236.758 49.9539 242.638 50.4075C248.518 50.8611 259.985 57.348 259.685 67.4035Z" fill="#1A2E35"/>
<path d="M219.504 90.5756C219.378 88.6002 217.638 87.0798 215.673 87.3129C213.289 87.595 210.663 89.0139 210.936 93.9461C211.419 102.696 220.104 100.406 220.106 100.154C220.106 99.9829 219.74 94.2352 219.504 90.5756Z" fill="#FFC19D"/>
<path d="M218.021 96.9669C217.981 96.941 217.874 97.0824 217.623 97.2147C217.378 97.3435 216.95 97.4464 216.485 97.3008C215.541 97.0131 214.682 95.5886 214.553 94.0136C214.486 93.2191 214.611 92.4512 214.859 91.8079C215.09 91.1527 215.48 90.683 215.94 90.5745C216.397 90.4415 216.742 90.7019 216.863 90.9427C216.994 91.1807 216.948 91.3585 216.995 91.3711C217.021 91.3921 217.175 91.2136 217.084 90.8566C217.039 90.6844 216.924 90.4835 216.71 90.3274C216.49 90.1678 216.177 90.0978 215.855 90.151C215.183 90.235 214.61 90.8895 214.337 91.5958C214.029 92.307 213.87 93.1708 213.944 94.0633C214.097 95.8231 215.091 97.424 216.376 97.7187C217.001 97.8461 217.504 97.6319 217.757 97.4107C218.016 97.1797 218.051 96.9816 218.021 96.9669Z" fill="#FF9C6A"/>
<path d="M219.28 73.6064C220.435 74.3561 221.655 75.1282 223.029 75.2325C224.402 75.3361 225.951 74.5129 226.15 73.15C226.24 72.5375 226.074 71.834 226.464 71.3538C226.929 70.7805 227.816 70.9359 228.551 70.9968C231.103 71.2075 234.012 68.3263 234.603 65.8343C235.275 66.7912 236.704 67.0523 237.672 66.3957C238.639 65.7398 238.989 65.3695 239.738 64.4707C240.487 63.5726 241.547 62.7599 242.709 62.8971C243.358 62.9741 243.973 63.3458 244.623 63.2723C245.771 63.1435 246.301 61.7841 246.448 60.6389C246.596 59.4937 246.7 58.1581 247.659 57.5155C248.548 56.9191 249.725 57.2243 250.788 57.3559C251.85 57.4868 253.211 57.2068 253.458 56.1652C253.587 55.6192 253.342 55.0536 253.029 54.586C251.616 52.4713 248.62 51.5872 246.285 52.5952C245.361 49.7217 242.602 47.5335 239.594 47.2864C236.585 47.04 233.507 48.7501 232.127 51.4346C230.237 49.7987 227.532 49.1568 225.108 49.7693C222.685 50.3818 220.61 52.2319 219.723 54.5699C217.581 54.0589 215.172 54.9395 213.863 56.7112C212.554 58.4836 212.422 61.0449 213.54 62.9433C211.987 63.8792 210.676 65.4738 210.686 67.2875C210.695 69.1005 212.503 70.8652 214.241 70.3479C213.567 71.7752 214.187 73.6778 215.572 74.4338C216.958 75.1905 218.893 74.6837 219.73 73.3446" fill="#1A2E35"/>
<path d="M246.995 55.1561C247.002 55.1568 247.003 55.2107 246.997 55.3164C246.987 55.4221 246.985 55.581 246.952 55.7854C246.881 56.1914 246.733 56.7948 246.356 57.4878C245.976 58.1703 245.382 58.9634 244.463 59.6032C243.562 60.2493 242.318 60.754 240.9 60.7092L241.043 60.5125C241.332 61.2545 241.279 62.1554 240.924 62.9338C240.589 63.7248 240.048 64.4325 239.476 65.122C239.181 65.4538 238.928 65.8416 238.519 66.1503C238.121 66.4457 237.639 66.6228 237.143 66.697C236.158 66.8461 235.037 66.5668 234.301 65.7527L234.626 65.6519C234.444 67.3977 233.495 69.1624 231.947 70.2607C231.128 70.8816 230.107 71.2736 229.093 71.2701C228.079 71.2841 227.131 71.0083 226.245 70.7143L226.477 70.6058C226.032 71.7055 225.33 72.6505 224.467 73.3568C223.621 74.061 222.481 74.4894 221.436 74.2584C219.359 73.8692 217.948 72.1822 217.634 70.5701L217.835 70.6583C216.822 71.2407 215.723 71.3205 214.836 71.1707C213.936 71.0279 213.225 70.6548 212.715 70.2838C212.204 69.9044 211.897 69.5096 211.712 69.2366C211.542 68.9517 211.47 68.7935 211.479 68.7886C211.523 68.7515 211.785 69.4473 212.801 70.1634C213.308 70.5043 214.003 70.8438 214.868 70.9607C215.721 71.086 216.761 70.9859 217.696 70.428L217.858 70.3314L217.897 70.5162C218.21 72.0191 219.568 73.5927 221.493 73.9315C222.441 74.1303 223.442 73.7481 224.244 73.081C225.049 72.4153 225.718 71.5046 226.131 70.4714L226.197 70.3076L226.363 70.3622C227.234 70.6499 228.15 70.9068 229.087 70.8914C230.025 70.89 230.941 70.5414 231.722 69.9527C233.184 68.9132 234.075 67.2619 234.257 65.6092L234.301 65.1934L234.582 65.5077C235.203 66.2049 236.207 66.4737 237.092 66.3414C237.536 66.277 237.964 66.1216 238.311 65.8661C238.65 65.6218 238.914 65.2382 239.213 64.9029C239.786 64.2246 240.311 63.5442 240.63 62.8078C240.968 62.0798 241.018 61.2881 240.77 60.6154L240.693 60.4082L240.914 60.418C242.251 60.4768 243.45 60.0183 244.329 59.4114C245.228 58.8122 245.823 58.059 246.213 57.4066C246.98 56.064 246.932 55.1372 246.995 55.1561Z" fill="#7B1FA2"/>
<path d="M184.01 132.766C184.01 132.766 151.095 144.359 141.573 149.148C134.135 152.889 129.422 166.461 140.868 172.117C149.404 176.336 195.608 168.274 195.608 168.274L184.01 132.766Z" fill="#FFC19D"/>
<path d="M284.495 248.009L200.863 244.845L197.835 273.314L194.484 330.42L237.175 330.6C237.193 330.357 242.499 298.5 242.499 298.5L244.911 297.868L244.688 330.6H284.7C286.801 303.514 288.002 280.763 288.075 278.623C288.657 261.702 284.495 248.009 284.495 248.009Z" fill="#1A2E35"/>
<path d="M239.489 280.756C239.473 280.794 239.921 281.032 240.759 281.403C241.6 281.756 242.837 282.298 244.496 282.535C245.324 282.65 246.261 282.654 247.236 282.439C248.205 282.224 249.231 281.765 250.043 280.942C250.855 280.118 251.352 278.992 251.65 277.832C251.952 276.662 252.102 275.452 252.296 274.221C253.036 269.284 253.489 264.784 253.725 261.523C253.844 259.892 253.912 258.571 253.942 257.657C253.97 256.742 253.962 256.236 253.918 256.233C253.875 256.23 253.8 256.731 253.697 257.639C253.585 258.679 253.446 259.964 253.281 261.483C252.932 264.727 252.411 269.204 251.672 274.128C251.295 276.561 251.072 279.035 249.625 280.538C248.178 282.016 246.088 282.253 244.548 282.093C242.956 281.923 241.71 281.457 240.848 281.174C239.987 280.876 239.505 280.714 239.489 280.756Z" fill="#7B1FA2"/>
<path d="M247.463 257.364C247.471 257.337 247.263 257.217 246.844 257.209C246.429 257.195 245.805 257.348 245.202 257.814C244.626 258.277 244.028 259.089 244.047 260.164C244.045 261.252 244.938 262.285 246.061 262.636C247.174 263.018 248.505 262.713 249.147 261.833C249.798 260.979 249.796 259.969 249.605 259.255C249.395 258.524 248.982 258.032 248.64 257.797C248.296 257.556 248.059 257.529 248.049 257.556C247.972 257.64 248.907 258.02 249.171 259.357C249.289 259.989 249.221 260.836 248.695 261.469C248.191 262.115 247.179 262.342 246.257 262.037C245.333 261.737 244.651 260.956 244.628 260.137C244.578 259.315 245.024 258.592 245.492 258.153C246.497 257.23 247.475 257.479 247.463 257.364Z" fill="#7B1FA2"/>
<path d="M200.863 271.601C200.862 271.644 201.224 271.682 201.882 271.715C202.54 271.759 203.497 271.736 204.673 271.629C207.022 271.425 210.26 270.716 213.538 269.176C216.811 267.623 219.418 265.574 221.069 263.89C221.898 263.049 222.524 262.326 222.908 261.79C223.302 261.261 223.501 260.957 223.467 260.93C223.38 260.86 222.472 261.994 220.761 263.568C219.057 265.143 216.47 267.087 213.269 268.606C210.063 270.111 206.919 270.873 204.62 271.188C202.318 271.508 200.865 271.488 200.863 271.601Z" fill="#7B1FA2"/>
<path d="M286.18 243.369C284.54 239.634 284.844 239.29 284.844 239.29L280.194 198.601L275.729 159.018L272.107 129.72L251.186 125.24C251.186 125.24 248.778 131.914 238.664 132.116C227.014 132.348 220.337 121.93 220.337 121.93L186.885 129.113L199.464 215.396L200.973 238.637C200.973 238.637 198.475 242.397 198.475 246.432C198.475 250.466 198.312 253.155 198.312 253.155C229.362 261.685 260.175 269.072 288.528 260.814C288.528 260.814 287.821 247.104 286.18 243.369Z" fill="#7B1FA2"/>
<path d="M264.475 128.191C264.475 128.191 276.533 129.538 280.811 134.079C285.09 138.621 298.766 161.091 298.766 161.091L278.902 188.268L269.699 175.71L264.475 128.191Z" fill="#7B1FA2"/>
<path d="M273.668 142.254C273.835 142.238 275.735 157.174 277.911 175.611C280.088 194.054 281.717 209.013 281.549 209.029C281.383 209.045 279.483 194.112 277.307 175.669C275.13 157.233 273.501 142.27 273.668 142.254Z" fill="#1A2E35"/>
<path d="M186.883 129.111L160.098 140.999L169.79 168.114L195.607 172.205L186.883 129.111Z" fill="#7B1FA2"/>
<path d="M190.572 147.086C190.75 147.067 192.028 157.645 193.426 170.711C194.823 183.78 195.812 194.387 195.633 194.406C195.455 194.426 194.177 183.85 192.779 170.78C191.382 157.714 190.393 147.104 190.572 147.086Z" fill="#1A2E35"/>
<mask id="mask10_70_1261" style="mask-type:luminance" maskUnits="userSpaceOnUse" x="197" y="219" width="36" height="66">
<path d="M197.176 219.775H232.071V284.564H197.176V219.775Z" fill="white"/>
</mask>
<g mask="url(#mask10_70_1261)">
<g opacity="0.300003">
<path d="M197.178 284.564C211.72 279.335 219.778 269.033 226.282 258.105C232.786 247.178 233.716 231.791 229.553 219.775C229.553 219.775 199.498 248.849 199.285 249.49C199.071 250.131 197.178 284.564 197.178 284.564Z" fill="black"/>
</g>
</g>
<mask id="mask11_70_1261" style="mask-type:luminance" maskUnits="userSpaceOnUse" x="238" y="128" width="43" height="76">
<path d="M238.035 128.19H280.982V203.104H238.035V128.19Z" fill="white"/>
</mask>
<g mask="url(#mask11_70_1261)">
<g opacity="0.300003">
<path d="M238.085 131.736C237.725 134.688 239.374 137.535 241.397 139.714C243.421 141.894 245.87 143.671 247.714 146.004C249.819 148.667 251.024 151.913 252.195 155.099C254.643 161.751 257.09 168.404 259.537 175.056C261.645 180.785 263.78 186.572 267.122 191.68C270.465 196.789 275.17 201.235 280.981 203.104L276.569 165.624L253.292 128.19L238.085 131.736Z" fill="black"/>
</g>
</g>
<path d="M262.201 132.065C262.201 131.594 262.575 114.234 261.411 112.348C260.247 110.463 259.315 108.695 259.082 106.928C259.082 106.928 259.718 105.897 258.561 105.251C257.403 104.604 255.568 106.179 255.528 108.966C255.488 111.752 255.807 116.518 255.807 116.518C255.807 116.518 243.001 109.249 239.49 109.047C235.979 108.845 230.712 108.199 230.433 109.895C230.155 111.59 230.394 111.994 232.229 112.64C234.064 113.287 236.977 113.731 239.849 114.701C242.722 115.669 244.038 116.328 244.038 116.328C244.038 116.328 237.495 114.402 236.059 116.328C234.623 118.254 234.822 119.99 235.74 120.919C235.74 120.919 233.785 121.727 233.984 123.867C234.184 126.008 235.141 126.532 235.141 126.532C235.141 126.532 233.226 127.986 234.144 129.844C235.062 131.701 237.216 130.53 239.25 132.63C241.285 134.73 246.352 139.657 248.307 140.747C250.262 141.837 254.73 142.281 254.73 142.281L262.201 132.065Z" fill="#FFC19D"/>
<path d="M262.202 132.064C262.206 132.065 262.167 132.125 262.087 132.241C261.999 132.366 261.88 132.536 261.725 132.758C261.392 133.222 260.912 133.892 260.29 134.761C259.014 136.524 257.158 139.088 254.807 142.336L254.775 142.38L254.721 142.374C253.837 142.281 252.916 142.151 251.959 141.971C251.003 141.789 250.008 141.567 249.011 141.191C248.511 141.011 248.025 140.734 247.582 140.411C247.131 140.096 246.698 139.746 246.259 139.389C245.388 138.667 244.517 137.889 243.633 137.075C242.749 136.26 241.853 135.406 240.945 134.517C240.494 134.069 240.037 133.616 239.575 133.157C239.118 132.681 238.671 132.226 238.099 131.913C237.538 131.587 236.892 131.427 236.229 131.281C235.583 131.133 234.804 130.979 234.317 130.368C233.841 129.799 233.635 128.997 233.817 128.257C234.005 127.518 234.465 126.897 235.051 126.411L235.069 126.663C234.562 126.312 234.316 125.8 234.12 125.275C233.94 124.74 233.841 124.19 233.821 123.609C233.801 123.024 233.975 122.423 234.311 121.924C234.657 121.43 235.119 121.036 235.68 120.773L235.628 121.029C234.808 120.21 234.685 118.903 235.063 117.856C235.239 117.321 235.511 116.821 235.837 116.364C235.987 116.131 236.225 115.89 236.484 115.757C236.745 115.613 237.023 115.52 237.304 115.452C238.435 115.214 239.582 115.312 240.711 115.456C241.843 115.615 242.965 115.855 244.085 116.168L243.964 116.475C242.282 115.702 240.462 115.05 238.612 114.487C236.751 113.931 234.807 113.568 232.868 113.02C232.174 112.799 231.482 112.6 230.835 112.186C230.513 111.977 230.247 111.604 230.198 111.208C230.138 110.82 230.186 110.453 230.234 110.097C230.261 109.933 230.277 109.714 230.395 109.525C230.508 109.343 230.669 109.211 230.834 109.108C231.171 108.914 231.53 108.818 231.885 108.748C232.596 108.617 233.306 108.594 234.008 108.59C235.413 108.592 236.795 108.699 238.161 108.793C238.845 108.849 239.513 108.856 240.215 108.991C240.552 109.067 240.877 109.17 241.209 109.258L242.168 109.591C244.688 110.549 247.047 111.709 249.325 112.864C251.6 114.026 253.786 115.204 255.882 116.386L255.658 116.527C255.5 113.776 255.338 111.144 255.409 108.596C255.505 107.327 255.986 106.02 257.047 105.285C257.314 105.113 257.624 104.992 257.952 104.98C258.278 104.961 258.613 105.096 258.853 105.285C259.103 105.471 259.313 105.753 259.367 106.077C259.42 106.402 259.345 106.713 259.192 106.993L259.209 106.91C259.486 108.849 260.454 110.52 261.357 112.039C261.469 112.218 261.602 112.432 261.662 112.656C261.737 112.873 261.776 113.09 261.821 113.306C261.9 113.738 261.956 114.164 261.999 114.585C262.087 115.425 262.138 116.241 262.18 117.029C262.332 120.184 262.33 122.908 262.329 125.135C262.322 127.363 262.291 129.095 262.265 130.271C262.248 130.848 262.236 131.294 262.227 131.608C262.216 131.908 262.202 132.064 262.202 132.064C262.202 132.064 262.19 131.911 262.19 131.608C262.19 131.293 262.19 130.847 262.19 130.269C262.19 129.081 262.188 127.352 262.187 125.135C262.165 122.91 262.147 120.187 261.977 117.041C261.931 116.254 261.875 115.442 261.783 114.608C261.738 114.192 261.681 113.77 261.602 113.349C261.511 112.916 261.427 112.529 261.161 112.159C260.246 110.636 259.253 108.954 258.956 106.944L258.95 106.904L258.975 106.86C259.091 106.645 259.159 106.367 259.112 106.121C259.07 105.872 258.91 105.654 258.695 105.493C258.266 105.134 257.664 105.191 257.194 105.509C256.245 106.167 255.771 107.405 255.688 108.617C255.626 111.116 255.794 113.77 255.958 116.506L255.974 116.783L255.734 116.648C253.641 115.475 251.453 114.301 249.182 113.145C246.908 111.997 244.55 110.842 242.056 109.898L241.111 109.57C240.79 109.485 240.47 109.385 240.147 109.313C239.515 109.189 238.817 109.176 238.138 109.123C236.772 109.029 235.394 108.923 234.009 108.923C233.318 108.927 232.62 108.952 231.948 109.076C231.3 109.208 230.545 109.438 230.565 110.144C230.518 110.487 230.478 110.836 230.528 111.154C230.573 111.473 230.752 111.725 231.026 111.912C231.586 112.274 232.291 112.488 232.963 112.698C234.871 113.238 236.829 113.606 238.706 114.166C240.583 114.74 242.386 115.385 244.112 116.179L243.992 116.486C242.895 116.178 241.777 115.938 240.666 115.782C239.559 115.636 238.429 115.545 237.377 115.768C236.859 115.893 236.368 116.103 236.099 116.551C235.788 116.987 235.531 117.458 235.366 117.955C235.014 118.934 235.139 120.092 235.852 120.808L236.01 120.966L235.8 121.064C235.317 121.289 234.872 121.661 234.57 122.099C234.269 122.545 234.113 123.075 234.13 123.605C234.146 124.136 234.243 124.682 234.408 125.175C234.575 125.657 234.85 126.147 235.214 126.4L235.391 126.521L235.233 126.652C234.706 127.086 234.266 127.678 234.106 128.326C233.943 128.97 234.126 129.684 234.541 130.181C234.944 130.701 235.637 130.852 236.291 131.001C236.955 131.15 237.639 131.319 238.236 131.668C238.84 132 239.329 132.502 239.769 132.964C240.229 133.424 240.684 133.878 241.132 134.327C242.035 135.217 242.926 136.072 243.804 136.889C244.683 137.705 245.549 138.484 246.411 139.205C247.285 139.907 248.117 140.631 249.093 140.983C250.063 141.356 251.051 141.583 251.998 141.769C252.946 141.953 253.865 142.089 254.74 142.187L254.655 142.225C257.031 139.007 258.907 136.468 260.197 134.723C260.839 133.863 261.334 133.199 261.677 132.74C261.842 132.523 261.968 132.357 262.062 132.233C262.15 132.119 262.202 132.064 262.202 132.064Z" fill="#FF9C6A"/>
<path d="M303.708 172.593C302.429 170.147 299.538 165.057 298.145 161.94L288.99 165.267C288.99 165.267 263.058 130.236 262.23 130.236C261.402 130.236 250.139 140.679 250.139 140.679C250.636 141.176 273.985 194.69 282.928 200.486C291.872 206.283 298.537 209.964 303.341 201.683C308.143 193.402 309.339 183.358 303.708 172.593Z" fill="#FFC19D"/>
<path d="M300.714 180.99C300.693 181 300.541 180.758 300.284 180.311C300.03 179.862 299.652 179.219 299.174 178.433C298.222 176.858 296.812 174.74 295.1 172.512C293.387 170.285 291.726 168.355 290.517 166.963C289.948 166.307 289.468 165.755 289.085 165.313C288.749 164.921 288.572 164.697 288.589 164.681C288.606 164.666 288.816 164.86 289.181 165.225C289.547 165.589 290.065 166.128 290.693 166.804C291.949 168.158 293.645 170.07 295.366 172.309C297.086 174.546 298.474 176.7 299.379 178.312C299.833 179.118 300.18 179.781 300.399 180.25C300.621 180.717 300.735 180.979 300.714 180.99Z" fill="#FF9C6A"/>
<path d="M247.963 102.982C247.731 103.154 246.766 102.159 245.233 101.624C243.714 101.049 242.335 101.191 242.267 100.91C242.238 100.782 242.568 100.562 243.18 100.444C243.787 100.325 244.676 100.352 245.577 100.679C246.476 101.008 247.174 101.558 247.563 102.039C247.957 102.522 248.068 102.904 247.963 102.982Z" fill="#1A2E35"/>
<path d="M271.373 243.129C271.378 243.14 271.268 243.204 271.053 243.317C270.834 243.423 270.524 243.61 270.094 243.782C269.243 244.146 267.958 244.569 266.313 244.8C264.67 245.029 262.677 245.054 260.504 244.772C258.329 244.496 255.979 243.948 253.566 243.221C248.745 241.748 244.477 240.132 241.424 238.883C239.897 238.257 238.674 237.723 237.834 237.342C237.443 237.16 237.125 237.011 236.871 236.892C236.653 236.786 236.54 236.725 236.545 236.715C236.55 236.703 236.671 236.744 236.898 236.831C237.158 236.934 237.484 237.063 237.885 237.222C238.784 237.579 240.012 238.067 241.512 238.663C244.582 239.853 248.857 241.431 253.662 242.9C256.064 243.624 258.393 244.175 260.543 244.465C262.692 244.761 264.657 244.761 266.282 244.565C267.909 244.367 269.187 243.984 270.046 243.661C270.898 243.323 271.359 243.101 271.373 243.129Z" fill="#1A2E35"/>
<path d="M208.032 176.342C196.342 168.467 182.437 165.655 173.323 165.649C164.787 165.644 152.225 166.981 140.851 173.386C133.787 177.365 128.15 182.803 124.095 189.549C119.293 197.54 116.689 207.43 116.358 218.944C116.308 220.671 116.945 222.306 118.152 223.549C119.364 224.798 120.99 225.486 122.73 225.487L145.111 225.502C148.27 225.504 150.986 223.15 151.43 220.026C152.426 213.008 156.6 201.194 173.349 200.916C186.114 200.71 191.366 209.945 193.035 213.929C195.751 220.41 195.056 228.094 191.176 234.483C185.214 244.298 174.257 245.794 168.256 245.812C161.356 245.833 155.738 251.431 155.734 258.291L155.718 282.374C155.715 285.892 158.574 288.755 162.091 288.757L183.898 288.771C187.415 288.774 190.278 285.914 190.28 282.397L190.284 277.337C190.284 277.216 190.359 277.111 190.477 277.07C195.418 275.34 204.995 271.159 213.625 262.589C224.643 251.65 230.234 237.527 230.245 220.609C230.261 196.399 218.175 183.173 208.032 176.342Z" fill="#FFCD62"/>
<path d="M174.077 294.827L172.169 294.825C163.05 294.82 155.625 302.234 155.619 311.354C155.613 320.473 163.027 327.898 172.147 327.904L174.055 327.905C183.175 327.912 190.599 320.496 190.605 311.377C190.611 302.257 183.196 294.833 174.077 294.827Z" fill="#FFCD62"/>
<mask id="mask12_70_1261" style="mask-type:luminance" maskUnits="userSpaceOnUse" x="145" y="172" width="85" height="48">
<path d="M145.02 172.005H229.556V219.51H145.02V172.005Z" fill="white"/>
</mask>
<g mask="url(#mask12_70_1261)">
<g opacity="0.300003">
<path d="M229.406 205.139C229.113 202.674 228.47 200.314 227.561 198.047C223.196 187.154 212.95 179.73 201.29 178.404L145.02 172.005C151.138 178.258 159.127 179.503 167.597 181.699C176.066 183.894 185.184 187.185 193.741 189.007C196.487 189.591 199.324 190.32 201.46 192.143C203.544 193.92 204.706 196.519 205.805 199.028C207.432 202.747 209.058 206.465 210.685 210.184C212.543 214.431 215.015 219.226 220.015 219.499C222.034 219.609 224.014 218.854 225.548 217.539C229.17 214.433 229.934 209.596 229.406 205.139Z" fill="black"/>
</g>
</g>
<path d="M228.604 190.069C228.168 189.304 219.616 178.846 215.365 174.793C212.618 172.175 208.482 170.369 205.889 169.415C205.889 169.415 163.071 153.952 160.1 152.443L140.869 172.119C147.564 173.981 193.017 184.924 204.23 187.385C206.192 189.673 208.165 191.549 208.165 191.549L211.424 199.206C211.424 199.206 211.8 201.993 211.566 204.982C211.331 207.972 213.755 206.806 213.755 206.806C213.755 206.806 213.641 208.664 213.799 211.341C213.8 211.368 213.802 211.395 213.804 211.421C213.963 213.423 216.839 213.671 217.452 211.758L219.661 204.854C219.661 204.854 219.372 211.137 219.254 214.633C219.233 215.267 219.343 215.789 219.539 216.218C220.384 218.072 223.144 217.726 223.613 215.743L226.201 204.822L225.364 198.133L227.535 204.244C227.535 204.244 228.135 207.511 228.014 212.101C227.965 213.937 228.584 214.717 229.344 214.994C230.617 215.457 231.962 214.443 232.072 213.093L232.9 202.973C232.9 202.973 229.039 190.835 228.604 190.069Z" fill="#FFC19D"/>
<path d="M157.336 151.678C157.354 151.599 158.571 151.793 160.486 152.325C162.401 152.85 164.998 153.744 167.807 154.859C170.616 155.975 173.126 157.052 174.945 157.825C176.762 158.601 177.885 159.088 177.853 159.176C177.824 159.257 176.642 158.921 174.777 158.252C172.911 157.587 170.369 156.576 167.568 155.463C164.767 154.351 162.217 153.396 160.35 152.764C158.485 152.124 157.313 151.773 157.336 151.678Z" fill="#FF9C6A"/>
</g>
</svg>
