<svg width="25" height="22" viewBox="0 0 25 22" fill="none" xmlns="http://www.w3.org/2000/svg">
<path d="M1.48535 1.8877L3.89648 1.8877L4.37871 3.9947M6.30762 12.4227L18.3633 12.4227L23.1855 3.9947L4.37871 3.9947M6.30762 12.4227L4.37871 3.9947M6.30762 12.4227L3.54325 14.8384C2.78375 15.5021 3.32143 16.6368 4.39559 16.6368L18.3633 16.6368M18.3633 16.6368C17.7238 16.6368 17.1105 16.8587 16.6584 17.2539C16.2062 17.649 15.9521 18.1849 15.9521 18.7438C15.9521 19.3026 16.2062 19.8385 16.6584 20.2336C17.1105 20.6288 17.7238 20.8508 18.3633 20.8508C19.0028 20.8508 19.616 20.6288 20.0682 20.2336C20.5204 19.8385 20.7744 19.3026 20.7744 18.7438C20.7744 18.1849 20.5204 17.649 20.0682 17.2539C19.616 16.8587 19.0028 16.6368 18.3633 16.6368ZM8.71875 18.7438C8.71875 19.3026 8.46472 19.8385 8.01254 20.2336C7.56037 20.6288 6.94709 20.8508 6.30762 20.8508C5.66814 20.8508 5.05486 20.6288 4.60269 20.2336C4.15051 19.8385 3.89648 19.3026 3.89648 18.7438C3.89648 18.1849 4.15051 17.649 4.60269 17.2539C5.05486 16.8587 5.66814 16.6368 6.30762 16.6368C6.94709 16.6368 7.56037 16.8587 8.01254 17.2539C8.46472 17.649 8.71875 18.1849 8.71875 18.7438V18.7438Z" stroke="#221714" stroke-width="2" stroke-linecap="round" stroke-linejoin="round"/>
</svg>